  0
SECTION
  2
HEADER
  9
$ACADVER
  1
AC1024
  9
$ACADMAINTVER
 70
     6
  9
$DWGCODEPAGE
  3
ANSI_1252
  9
$LASTSAVEDBY
  1
sourada
  9
$INSBASE
 10
0.0
 20
0.0
 30
0.0
  9
$EXTMIN
 10
-0.0080868904573208
 20
-0.0080868904573208
 30
-0.0015258207003583
  9
$EXTMAX
 10
33.00735491445209
 20
21.00631730282481
 30
0.0000000349246037
  9
$LIMMIN
 10
-10.0
 20
-10.0
  9
$LIMMAX
 10
100.0
 20
100.0
  9
$ORTHOMODE
 70
     0
  9
$REGENMODE
 70
     1
  9
$FILLMODE
 70
     1
  9
$QTEXTMODE
 70
     0
  9
$MIRRTEXT
 70
     0
  9
$LTSCALE
 40
1.0
  9
$ATTMODE
 70
     1
  9
$TEXTSIZE
 40
0.1
  9
$TRACEWID
 40
0.05
  9
$TEXTSTYLE
  7
SIMPLEX
  9
$CLAYER
  8
DIM
  9
$CELTYPE
  6
BYLAYER
  9
$CECOLOR
 62
   256
  9
$CELTSCALE
 40
1.0
  9
$DISPSILH
 70
     0
  9
$DIMSCALE
 40
1.0
  9
$DIMASZ
 40
0.18
  9
$DIMEXO
 40
0.063
  9
$DIMDLI
 40
0.38
  9
$DIMRND
 40
0.0
  9
$DIMDLE
 40
0.0
  9
$DIMEXE
 40
0.18
  9
$DIMTP
 40
0.0
  9
$DIMTM
 40
0.0
  9
$DIMTXT
 40
0.1
  9
$DIMCEN
 40
0.1
  9
$DIMTSZ
 40
0.0
  9
$DIMTOL
 70
     0
  9
$DIMLIM
 70
     0
  9
$DIMTIH
 70
     1
  9
$DIMTOH
 70
     1
  9
$DIMSE1
 70
     0
  9
$DIMSE2
 70
     0
  9
$DIMTAD
 70
     0
  9
$DIMZIN
 70
     0
  9
$DIMBLK
  1

  9
$DIMASO
 70
     1
  9
$DIMSHO
 70
     1
  9
$DIMPOST
  1

  9
$DIMAPOST
  1

  9
$DIMALT
 70
     0
  9
$DIMALTD
 70
     2
  9
$DIMALTF
 40
25.4
  9
$DIMLFAC
 40
1.0
  9
$DIMTOFL
 70
     0
  9
$DIMTVP
 40
0.0
  9
$DIMTIX
 70
     0
  9
$DIMSOXD
 70
     0
  9
$DIMSAH
 70
     0
  9
$DIMBLK1
  1

  9
$DIMBLK2
  1

  9
$DIMSTYLE
  2
STANDARD
  9
$DIMCLRD
 70
     1
  9
$DIMCLRE
 70
     1
  9
$DIMCLRT
 70
     1
  9
$DIMTFAC
 40
0.7999999999999999
  9
$DIMGAP
 40
0.1
  9
$DIMJUST
 70
     0
  9
$DIMSD1
 70
     0
  9
$DIMSD2
 70
     0
  9
$DIMTOLJ
 70
     1
  9
$DIMTZIN
 70
     0
  9
$DIMALTZ
 70
     0
  9
$DIMALTTZ
 70
     0
  9
$DIMUPT
 70
     0
  9
$DIMDEC
 70
     4
  9
$DIMTDEC
 70
     4
  9
$DIMALTU
 70
     2
  9
$DIMALTTD
 70
     2
  9
$DIMTXSTY
  7
STANDARD
  9
$DIMAUNIT
 70
     0
  9
$DIMADEC
 70
     0
  9
$DIMALTRND
 40
0.0
  9
$DIMAZIN
 70
     0
  9
$DIMDSEP
 70
    46
  9
$DIMATFIT
 70
     3
  9
$DIMFRAC
 70
     0
  9
$DIMLDRBLK
  1

  9
$DIMLUNIT
 70
     2
  9
$DIMLWD
 70
    -2
  9
$DIMLWE
 70
    -2
  9
$DIMTMOVE
 70
     0
  9
$DIMFXL
 40
1.0
  9
$DIMFXLON
 70
     0
  9
$DIMJOGANG
 40
0.7853981633974483
  9
$DIMTFILL
 70
     0
  9
$DIMTFILLCLR
 70
     0
  9
$DIMARCSYM
 70
     0
  9
$DIMLTYPE
  6

  9
$DIMLTEX1
  6

  9
$DIMLTEX2
  6

  9
$DIMTXTDIRECTION
 70
     0
  9
$LUNITS
 70
     2
  9
$LUPREC
 70
     3
  9
$SKETCHINC
 40
0.1
  9
$FILLETRAD
 40
0.0
  9
$AUNITS
 70
     0
  9
$AUPREC
 70
     0
  9
$MENU
  1
ACAD
  9
$ELEVATION
 40
0.0
  9
$PELEVATION
 40
0.0
  9
$THICKNESS
 40
0.0
  9
$LIMCHECK
 70
     0
  9
$CHAMFERA
 40
0.0
  9
$CHAMFERB
 40
0.0
  9
$CHAMFERC
 40
0.0
  9
$CHAMFERD
 40
0.0
  9
$SKPOLY
 70
     0
  9
$TDCREATE
 40
2450324.483883333
  9
$TDUCREATE
 40
2450324.733883333
  9
$TDUPDATE
 40
2456641.547104896
  9
$TDUUPDATE
 40
2456641.797104896
  9
$TDINDWG
 40
0.0208571065
  9
$TDUSRTIMER
 40
2456641.797030046
  9
$USRTIMER
 70
     1
  9
$ANGBASE
 50
0.0
  9
$ANGDIR
 70
     0
  9
$PDMODE
 70
     0
  9
$PDSIZE
 40
0.0
  9
$PLINEWID
 40
0.0
  9
$SPLFRAME
 70
     0
  9
$SPLINETYPE
 70
     6
  9
$SPLINESEGS
 70
     8
  9
$HANDSEED
  5
50E27
  9
$SURFTAB1
 70
     6
  9
$SURFTAB2
 70
     6
  9
$SURFTYPE
 70
     6
  9
$SURFU
 70
     6
  9
$SURFV
 70
     6
  9
$UCSBASE
  2

  9
$UCSNAME
  2

  9
$UCSORG
 10
0.0
 20
0.0
 30
0.0
  9
$UCSXDIR
 10
1.0
 20
0.0
 30
0.0
  9
$UCSYDIR
 10
0.0
 20
1.0
 30
0.0
  9
$UCSORTHOREF
  2

  9
$UCSORTHOVIEW
 70
     0
  9
$UCSORGTOP
 10
0.0
 20
0.0
 30
0.0
  9
$UCSORGBOTTOM
 10
0.0
 20
0.0
 30
0.0
  9
$UCSORGLEFT
 10
0.0
 20
0.0
 30
0.0
  9
$UCSORGRIGHT
 10
0.0
 20
0.0
 30
0.0
  9
$UCSORGFRONT
 10
0.0
 20
0.0
 30
0.0
  9
$UCSORGBACK
 10
0.0
 20
0.0
 30
0.0
  9
$PUCSBASE
  2

  9
$PUCSNAME
  2

  9
$PUCSORG
 10
0.0
 20
0.0
 30
0.0
  9
$PUCSXDIR
 10
1.0
 20
0.0
 30
0.0
  9
$PUCSYDIR
 10
0.0
 20
1.0
 30
0.0
  9
$PUCSORTHOREF
  2

  9
$PUCSORTHOVIEW
 70
     0
  9
$PUCSORGTOP
 10
0.0
 20
0.0
 30
0.0
  9
$PUCSORGBOTTOM
 10
0.0
 20
0.0
 30
0.0
  9
$PUCSORGLEFT
 10
0.0
 20
0.0
 30
0.0
  9
$PUCSORGRIGHT
 10
0.0
 20
0.0
 30
0.0
  9
$PUCSORGFRONT
 10
0.0
 20
0.0
 30
0.0
  9
$PUCSORGBACK
 10
0.0
 20
0.0
 30
0.0
  9
$USERI1
 70
     0
  9
$USERI2
 70
     0
  9
$USERI3
 70
     0
  9
$USERI4
 70
     0
  9
$USERI5
 70
     0
  9
$USERR1
 40
0.0
  9
$USERR2
 40
0.0
  9
$USERR3
 40
0.0
  9
$USERR4
 40
0.0
  9
$USERR5
 40
0.0
  9
$WORLDVIEW
 70
     1
  9
$SHADEDGE
 70
     3
  9
$SHADEDIF
 70
    70
  9
$TILEMODE
 70
     1
  9
$MAXACTVP
 70
    16
  9
$PINSBASE
 10
0.0
 20
0.0
 30
0.0
  9
$PLIMCHECK
 70
     0
  9
$PEXTMIN
 10
14.0
 20
6.0
 30
0.0
  9
$PEXTMAX
 10
20.0
 20
10.0
 30
0.0
  9
$PLIMMIN
 10
0.0
 20
0.0
  9
$PLIMMAX
 10
0.0
 20
0.0
  9
$UNITMODE
 70
     0
  9
$VISRETAIN
 70
     0
  9
$PLINEGEN
 70
     0
  9
$PSLTSCALE
 70
     1
  9
$TREEDEPTH
 70
  3020
  9
$CMLSTYLE
  2
STANDARD
  9
$CMLJUST
 70
     0
  9
$CMLSCALE
 40
1.0
  9
$PROXYGRAPHICS
 70
     1
  9
$MEASUREMENT
 70
     0
  9
$CELWEIGHT
370
    -1
  9
$ENDCAPS
280
     0
  9
$JOINSTYLE
280
     0
  9
$LWDISPLAY
290
     0
  9
$INSUNITS
 70
     0
  9
$HYPERLINKBASE
  1

  9
$STYLESHEET
  1

  9
$XEDIT
290
     1
  9
$CEPSNTYPE
380
     0
  9
$PSTYLEMODE
290
     1
  9
$FINGERPRINTGUID
  2
{B5C12403-DE12-456C-9B20-F8F00823FA66}
  9
$VERSIONGUID
  2
{D21E810B-90B5-49E8-8B4D-0A0D9BC19E68}
  9
$EXTNAMES
290
     1
  9
$PSVPSCALE
 40
0.0
  9
$OLESTARTUP
290
     0
  9
$SORTENTS
280
   127
  9
$INDEXCTL
280
     0
  9
$HIDETEXT
280
     0
  9
$XCLIPFRAME
280
     2
  9
$HALOGAP
280
     0
  9
$OBSCOLOR
 70
   257
  9
$OBSLTYPE
280
     0
  9
$INTERSECTIONDISPLAY
280
     0
  9
$INTERSECTIONCOLOR
 70
   257
  9
$DIMASSOC
280
     1
  9
$PROJECTNAME
  1

  9
$CAMERADISPLAY
290
     0
  9
$LENSLENGTH
 40
50.0
  9
$CAMERAHEIGHT
 40
0.0
  9
$STEPSPERSEC
 40
2.0
  9
$STEPSIZE
 40
6.0
  9
$3DDWFPREC
 40
2.0
  9
$PSOLWIDTH
 40
0.25
  9
$PSOLHEIGHT
 40
4.0
  9
$LOFTANG1
 40
1.570796326794897
  9
$LOFTANG2
 40
1.570796326794897
  9
$LOFTMAG1
 40
0.0
  9
$LOFTMAG2
 40
0.0
  9
$LOFTPARAM
 70
     7
  9
$LOFTNORMALS
280
     1
  9
$LATITUDE
 40
37.795
  9
$LONGITUDE
 40
-122.394
  9
$NORTHDIRECTION
 40
0.0
  9
$TIMEZONE
 70
 -8000
  9
$LIGHTGLYPHDISPLAY
280
     1
  9
$TILEMODELIGHTSYNCH
280
     1
  9
$CMATERIAL
347
50D65
  9
$SOLIDHIST
280
     0
  9
$SHOWHIST
280
     1
  9
$DWFFRAME
280
     2
  9
$DGNFRAME
280
     0
  9
$REALWORLDSCALE
290
     1
  9
$INTERFERECOLOR
 62
     1
  9
$CSHADOW
280
     0
  9
$SHADOWPLANELOCATION
 40
0.0
  0
ENDSEC
  0
SECTION
  2
CLASSES
  0
CLASS
  1
ACDBDICTIONARYWDFLT
  2
AcDbDictionaryWithDefault
  3
ObjectDBX Classes
 90
        0
 91
        5
280
     0
281
     0
  0
CLASS
  1
MATERIAL
  2
AcDbMaterial
  3
ObjectDBX Classes
 90
     1153
 91
        5
280
     0
281
     0
  0
CLASS
  1
VISUALSTYLE
  2
AcDbVisualStyle
  3
ObjectDBX Classes
 90
     4095
 91
        5
280
     0
281
     0
  0
CLASS
  1
TABLESTYLE
  2
AcDbTableStyle
  3
ObjectDBX Classes
 90
     4095
 91
        5
280
     0
281
     0
  0
CLASS
  1
SCALE
  2
AcDbScale
  3
ObjectDBX Classes
 90
     1153
 91
        5
280
     0
281
     0
  0
CLASS
  1
MLEADERSTYLE
  2
AcDbMLeaderStyle
  3
ACDB_MLEADERSTYLE_CLASS
 90
     4095
 91
        4
280
     0
281
     0
  0
CLASS
  1
ACDBSECTIONVIEWSTYLE
  2
AcDbSectionViewStyle
  3
ObjectDBX Classes
 90
     1025
 91
        2
280
     1
281
     0
  0
CLASS
  1
ACDBDETAILVIEWSTYLE
  2
AcDbDetailViewStyle
  3
ObjectDBX Classes
 90
     1025
 91
        2
280
     1
281
     0
  0
CLASS
  1
DICTIONARYVAR
  2
AcDbDictionaryVar
  3
ObjectDBX Classes
 90
        0
 91
        5
280
     0
281
     0
  0
CLASS
  1
RASTERVARIABLES
  2
AcDbRasterVariables
  3
ISM
 90
        0
 91
        5
280
     0
281
     0
  0
CLASS
  1
CELLSTYLEMAP
  2
AcDbCellStyleMap
  3
ObjectDBX Classes
 90
     1152
 91
        5
280
     0
281
     0
  0
ENDSEC
  0
SECTION
  2
TABLES
  0
TABLE
  2
VPORT
  5
50D00
330
0
100
AcDbSymbolTable
 70
     1
  0
VPORT
  5
50D60
330
50D00
100
AcDbSymbolTableRecord
100
AcDbViewportTableRecord
  2
*ACTIVE
 70
     0
 10
0.0
 20
0.0
 11
1.0
 21
1.0
 12
16.49963401199739
 22
10.49911520618374
 13
0.0
 23
0.0
 14
1.0
 24
1.0
 15
0.0
 25
0.0
 16
0.0
 26
0.0
 36
1.0
 17
0.0
 27
0.0
 37
0.0
 40
21.18548482443504
 41
2.349184782608696
 42
50.0
 43
0.0
 44
0.0
 50
0.0
 51
0.0
 71
     0
 72
 10000
 73
     1
 74
     3
 75
     0
 76
     0
 77
     0
 78
     0
281
     0
 65
     1
110
0.0
120
0.0
130
0.0
111
1.0
121
0.0
131
0.0
112
0.0
122
1.0
132
0.0
 79
     0
146
0.0
348
50D83
 60
     3
 61
     5
292
     1
282
     1
141
0.0
142
0.0
 63
   250
421
  3355443
1001
ACAD_NAV_VCDISPLAY
1070
     3
  0
ENDTAB
  0
TABLE
  2
LTYPE
  5
50CFD
330
0
100
AcDbSymbolTable
 70
     2
  0
LTYPE
  5
50D0A
330
50CFD
100
AcDbSymbolTableRecord
100
AcDbLinetypeTableRecord
  2
BYBLOCK
 70
     0
  3

 72
    65
 73
     0
 40
0.0
  0
LTYPE
  5
50D0B
330
50CFD
100
AcDbSymbolTableRecord
100
AcDbLinetypeTableRecord
  2
BYLAYER
 70
     0
  3

 72
    65
 73
     0
 40
0.0
  0
LTYPE
  5
50D0C
330
50CFD
100
AcDbSymbolTableRecord
100
AcDbLinetypeTableRecord
  2
CONTINUOUS
 70
     0
  3
Solid line
 72
    65
 73
     0
 40
0.0
  0
LTYPE
  5
50D27
330
50CFD
100
AcDbSymbolTableRecord
100
AcDbLinetypeTableRecord
  2
HIDDEN2
 70
     0
  3
_ _ _ _ _ _ _ _ _ _ _ _ _ _ _ _ _ _ _ _ _ _ _ _
 72
    65
 73
     2
 40
0.1875
 49
0.125
 74
     0
 49
-0.0625
 74
     0
  0
ENDTAB
  0
TABLE
  2
LAYER
  5
50CFA
102
{ACAD_XDICTIONARY
360
50DCA
102
}
330
0
100
AcDbSymbolTable
 70
     7
  0
LAYER
  5
50D07
102
{ACAD_XDICTIONARY
360
50DBB
102
}
330
50CFA
100
AcDbSymbolTableRecord
100
AcDbLayerTableRecord
  2
0
 70
     0
 62
     7
  6
CONTINUOUS
370
    -3
390
50D63
347
50D75
  0
LAYER
  5
50D49
102
{ACAD_XDICTIONARY
360
50DBD
102
}
330
50CFA
100
AcDbSymbolTableRecord
100
AcDbLayerTableRecord
  2
DIM
 70
     0
 62
     1
  6
CONTINUOUS
370
    -3
390
50D63
347
50D75
  0
LAYER
  5
50D4A
102
{ACAD_XDICTIONARY
360
50DBF
102
}
330
50CFA
100
AcDbSymbolTableRecord
100
AcDbLayerTableRecord
  2
TEXT
 70
     0
 62
     1
  6
CONTINUOUS
370
    -3
390
50D63
347
50D75
  0
LAYER
  5
50D4D
102
{ACAD_XDICTIONARY
360
50DC1
102
}
330
50CFA
100
AcDbSymbolTableRecord
100
AcDbLayerTableRecord
  2
OBJECT
 70
     0
 62
     3
  6
CONTINUOUS
370
    -3
390
50D63
347
50D75
  0
LAYER
  5
50D4F
102
{ACAD_XDICTIONARY
360
50DC3
102
}
330
50CFA
100
AcDbSymbolTableRecord
100
AcDbLayerTableRecord
  2
BORDER
 70
     0
 62
     5
  6
CONTINUOUS
370
    -3
390
50D63
347
50D75
  0
LAYER
  5
50D52
330
50CFA
100
AcDbSymbolTableRecord
100
AcDbLayerTableRecord
  2
DEFPOINTS
 70
     0
 62
     7
  6
CONTINUOUS
290
     0
370
    -3
390
50D63
347
50D75
  0
LAYER
  5
50D53
102
{ACAD_XDICTIONARY
360
50DC5
102
}
330
50CFA
100
AcDbSymbolTableRecord
100
AcDbLayerTableRecord
  2
HIDDEN2
 70
     0
 62
     6
  6
HIDDEN2
370
    -3
390
50D63
347
50D75
  0
ENDTAB
  0
TABLE
  2
STYLE
  5
50CFB
330
0
100
AcDbSymbolTable
 70
     4
  0
STYLE
  5
50D08
330
50CFB
100
AcDbSymbolTableRecord
100
AcDbTextStyleTableRecord
  2
STANDARD
 70
     0
 40
0.0
 41
1.0
 50
0.0
 71
     0
 42
0.2
  3
txt
  4

  0
STYLE
  5
50D22
330
50CFB
100
AcDbSymbolTableRecord
100
AcDbTextStyleTableRecord
  2
SIMPLEX
 70
     0
 40
0.0
 41
1.0
 50
0.0
 71
     0
 42
0.1
  3
romans
  4

  0
STYLE
  5
50D23
330
50CFB
100
AcDbSymbolTableRecord
100
AcDbTextStyleTableRecord
  2
TITLE
 70
     0
 40
0.0
 41
1.0
 50
0.0
 71
     0
 42
0.125
  3
italic
  4

  0
STYLE
  5
50D24
330
50CFB
100
AcDbSymbolTableRecord
100
AcDbTextStyleTableRecord
  2
ROMANS
 70
     0
 40
0.0
 41
1.0
 50
0.0
 71
     0
 42
0.2
  3
romans
  4

  0
ENDTAB
  0
TABLE
  2
VIEW
  5
50CFE
330
0
100
AcDbSymbolTable
 70
     0
  0
ENDTAB
  0
TABLE
  2
UCS
  5
50CFF
330
0
100
AcDbSymbolTable
 70
     0
  0
ENDTAB
  0
TABLE
  2
APPID
  5
50D01
330
0
100
AcDbSymbolTable
 70
     5
  0
APPID
  5
50D09
330
50D01
100
AcDbSymbolTableRecord
100
AcDbRegAppTableRecord
  2
ACAD
 70
     0
  0
APPID
  5
50DB8
330
50D01
100
AcDbSymbolTableRecord
100
AcDbRegAppTableRecord
  2
AEC_XDATA_BOUND_SPACE
 70
     0
  0
APPID
  5
50DB9
330
50D01
100
AcDbSymbolTableRecord
100
AcDbRegAppTableRecord
  2
ACAD_EXEMPT_FROM_CAD_STANDARDS
 70
     0
  0
APPID
  5
50DD0
330
50D01
100
AcDbSymbolTableRecord
100
AcDbRegAppTableRecord
  2
ACAD_NAV_VCDISPLAY
 70
     0
  0
APPID
  5
50DEF
330
50D01
100
AcDbSymbolTableRecord
100
AcDbRegAppTableRecord
  2
ACAD_MLEADERVER
 70
     0
  0
ENDTAB
  0
TABLE
  2
DIMSTYLE
  5
50D02
330
0
100
AcDbSymbolTable
 70
     1
100
AcDbDimStyleTable
  0
DIMSTYLE
105
50D46
330
50D02
100
AcDbSymbolTableRecord
100
AcDbDimStyleTableRecord
  2
STANDARD
 70
     0
 42
0.063
140
0.1
141
0.1
146
0.7999999999999999
147
0.1
176
     1
177
     1
271
     3
178
     1
271
     3
272
     3
279
     2
340
50D22
  0
ENDTAB
  0
TABLE
  2
BLOCK_RECORD
  5
50CF9
330
0
100
AcDbSymbolTable
 70
     5
  0
BLOCK_RECORD
  5
50D10
330
50CF9
100
AcDbSymbolTableRecord
100
AcDbBlockTableRecord
  2
*MODEL_SPACE
340
50DB1
 70
     0
280
     1
281
     0
  0
BLOCK_RECORD
  5
50D0D
330
50CF9
100
AcDbSymbolTableRecord
100
AcDbBlockTableRecord
  2
*PAPER_SPACE
340
50DB2
 70
     0
280
     1
281
     0
  0
BLOCK_RECORD
  5
50D15
330
50CF9
100
AcDbSymbolTableRecord
100
AcDbBlockTableRecord
  2
T-BLK
340
0
102
{BLKREFS
331
50C0E
102
}
 70
     0
280
     1
281
     0
  0
BLOCK_RECORD
  5
50D1D
330
50CF9
100
AcDbSymbolTableRecord
100
AcDbBlockTableRecord
  2
*D1
340
0
 70
     0
280
     1
281
     0
  0
BLOCK_RECORD
  5
50D1E
330
50CF9
100
AcDbSymbolTableRecord
100
AcDbBlockTableRecord
  2
*D2
340
0
 70
     0
280
     1
281
     0
  0
BLOCK_RECORD
  5
50D1F
330
50CF9
100
AcDbSymbolTableRecord
100
AcDbBlockTableRecord
  2
*D3
340
0
 70
     0
280
     1
281
     0
  0
BLOCK_RECORD
  5
50D20
330
50CF9
100
AcDbSymbolTableRecord
100
AcDbBlockTableRecord
  2
P-TITLE
340
0
102
{BLKREFS
331
50CF1
102
}
 70
     0
280
     1
281
     0
  0
ENDTAB
  0
ENDSEC
  0
SECTION
  2
BLOCKS
  0
BLOCK
  5
50D56
330
50D10
100
AcDbEntity
  8
DIM
100
AcDbBlockBegin
  2
*MODEL_SPACE
 70
     0
 10
0.0
 20
0.0
 30
0.0
  3
*MODEL_SPACE
  1

  0
ENDBLK
  5
50D57
330
50D10
100
AcDbEntity
  8
DIM
100
AcDbBlockEnd
  0
BLOCK
  5
50D54
330
50D0D
100
AcDbEntity
 67
     1
  8
DIM
100
AcDbBlockBegin
  2
*PAPER_SPACE
 70
     0
 10
0.0
 20
0.0
 30
0.0
  3
*PAPER_SPACE
  1

  0
ENDBLK
  5
50D55
330
50D0D
100
AcDbEntity
 67
     1
  8
DIM
100
AcDbBlockEnd
  0
BLOCK
  5
66CE
330
50D15
100
AcDbEntity
  8
0
100
AcDbBlockBegin
  2
T-BLK
 70
     2
 10
0.0
 20
0.0
 30
0.0
  3
T-BLK
  1

  0
LWPOLYLINE
  5
66CF
330
50D15
100
AcDbEntity
  8
BORDER
100
AcDbPolyline
 90
        2
 70
     0
 43
0.0
 10
-2.020730330510332
 20
2.48
 10
-6.230730330510333
 20
2.479999999999999
  0
LWPOLYLINE
  5
66D3
330
50D15
100
AcDbEntity
  8
BORDER
100
AcDbPolyline
 90
        3
 70
     0
 43
0.0
 10
-7.98
 20
1.091109248495146
 10
-7.98
 20
0.0199999999999996
 10
-2.020730330510332
 20
0.0199999999999996
  0
LINE
  5
66D8
330
50D15
100
AcDbEntity
  8
BORDER
100
AcDbLine
 10
-6.230730330510333
 20
1.381109248495145
 30
0.0
 11
-2.020730330510332
 21
1.381109248495145
 31
0.0
  0
LINE
  5
66D9
330
50D15
100
AcDbEntity
  8
BORDER
100
AcDbLine
 10
-2.020730330510332
 20
1.091109248495146
 30
0.0
 11
-7.98
 21
1.091109248495146
 31
0.0
  0
ATTDEF
  5
66DA
330
50D15
100
AcDbEntity
  8
0
 62
     7
100
AcDbText
 10
-6.698162780669641
 20
0.7669952529405766
 30
0.0
 40
0.17
  1
AMES LABORATORY
  7
TITLE
100
AcDbAttributeDefinition
  3

  2
TOP_LINE_LOGO
 70
     2
280
     0
  0
LINE
  5
66DB
330
50D15
100
AcDbEntity
  8
BORDER
100
AcDbLine
 10
-6.230730330510333
 20
1.361109248495145
 30
0.0
 11
-2.020730330510332
 21
1.361109248495145
 31
0.0
  0
LINE
  5
66DC
330
50D15
100
AcDbEntity
  8
BORDER
100
AcDbLine
 10
-2.020730330510332
 20
1.111109248495145
 30
0.0
 11
-6.230730330510333
 21
1.111109248495145
 31
0.0
  0
LWPOLYLINE
  5
66DD
330
50D15
100
AcDbEntity
  8
BORDER
100
AcDbPolyline
 90
        5
 70
     0
 43
0.0
 10
0.0
 20
0.0
 10
0.0
 20
2.5
 10
-8.0
 20
2.5
 10
-8.0
 20
0.0
 10
0.0
 20
0.0
  0
ATTDEF
  5
66E4
330
50D15
100
AcDbEntity
  8
0
100
AcDbText
 10
-6.691813131097959
 20
0.3842645999110657
 30
0.0
 40
0.085
  1
Iowa State University / Ames, Iowa 50011-3020
  7
SIMPLEX
100
AcDbAttributeDefinition
  3

  2
SECOND_LOGO_LINE
 70
     2
280
     0
  0
ATTDEF
  5
66E5
330
50D15
100
AcDbEntity
  8
0
 62
     7
100
AcDbText
 10
-6.693374734676866
 20
0.1467324103005243
 30
0.0
 40
0.125
  1
ENGINEERING SERVICES GROUP
  7
TITLE
100
AcDbAttributeDefinition
  3

  2
BOTTOM_LINE_LOGO
 70
     2
280
     0
  0
ATTDEF
  5
66E6
330
50D15
100
AcDbEntity
  8
0
100
AcDbText
 10
-6.690942941973226
 20
0.5415309283517562
 30
0.0
 40
0.1
  1
Institute for Physical Research and Technology
  7
SIMPLEX
100
AcDbAttributeDefinition
  3

  2
FIRST_LOGO_LINE
 70
     2
280
     0
  0
TEXT
  5
66E7
330
50D15
100
AcDbEntity
  8
TEXT
100
AcDbText
 10
-6.192293609917634
 20
1.253580182982754
 30
0.0
 40
0.06
  1
JO/WO NUMBER:
100
AcDbText
  0
ATTDEF
  5
66E8
330
50D15
100
AcDbEntity
  8
0
100
AcDbText
 10
-6.146971456581131
 20
2.03411122257206
 30
0.0
 40
0.2
  1
***
  7
SIMPLEX
100
AcDbAttributeDefinition
  3
FIRST LINE OF TITLE?
  2
FLINE_TITLE
 70
     0
280
     0
  0
ATTDEF
  5
66E9
330
50D15
100
AcDbEntity
  8
0
100
AcDbText
 10
-6.146971456581131
 20
1.690467266152602
 30
0.0
 40
0.2
  1
***
  7
SIMPLEX
100
AcDbAttributeDefinition
  3
SECOND LINE OF TITLE?
  2
SLINE_TITLE
 70
     0
280
     0
  0
TEXT
  5
66EA
330
50D15
100
AcDbEntity
  8
0
100
AcDbText
 10
-6.147887888259298
 20
1.436348743349257
 30
0.0
 40
0.1
  1
REQUESTOR:
  7
SIMPLEX
100
AcDbText
  0
LINE
  5
66EB
330
50D15
100
AcDbEntity
  8
0
100
AcDbLine
 10
-7.300000000000001
 20
0.8242692132698135
 30
0.0
 11
-7.800000000000001
 21
0.1062692132698144
 31
0.0
  0
LINE
  5
66EC
330
50D15
100
AcDbEntity
  8
0
100
AcDbLine
 10
-6.800000000000001
 20
0.1062692132698144
 30
0.0
 11
-7.300000000000001
 21
0.8242692132698135
 31
0.0
  0
LINE
  5
66ED
330
50D15
100
AcDbEntity
  8
0
100
AcDbLine
 10
-7.300000000000001
 20
0.9492692132698135
 30
0.0
 11
-6.800000000000001
 21
0.1062692132698144
 31
0.0
  0
LINE
  5
66EE
330
50D15
100
AcDbEntity
  8
0
100
AcDbLine
 10
-7.800000000000001
 20
0.1062692132698144
 30
0.0
 11
-7.300000000000001
 21
0.9492692132698135
 31
0.0
  0
CIRCLE
  5
66EF
330
50D15
100
AcDbEntity
  8
0
100
AcDbCircle
 10
-7.289561615363514
 20
0.3562692132698144
 30
0.0
 40
0.1166666666666667
  0
LWPOLYLINE
  5
66F0
330
50D15
100
AcDbEntity
  8
BORDER
100
AcDbPolyline
 90
        3
 70
     0
 43
0.0
 10
-6.250730330510329
 20
2.479999999999999
 10
-7.98
 20
2.479999999999999
 10
-7.98
 20
1.748105042785745
  0
LINE
  5
66F5
330
50D15
100
AcDbEntity
  8
BORDER
100
AcDbLine
 10
-6.230730330510333
 20
2.479999999999999
 30
0.0
 11
-6.230730330510333
 21
1.381109248495145
 31
0.0
  0
LINE
  5
66F6
330
50D15
100
AcDbEntity
  8
BORDER
100
AcDbLine
 10
-6.250730330510329
 20
2.479999999999999
 30
0.0
 11
-6.250730330510333
 21
1.748105042785745
 31
0.0
  0
TEXT
  5
66F7
330
50D15
100
AcDbEntity
  8
TEXT
100
AcDbText
 10
-7.918386835514642
 20
2.371537649751534
 30
0.0
 40
0.08
  1
SCALE:
100
AcDbText
  0
TEXT
  5
66F8
330
50D15
100
AcDbEntity
  8
TEXT
100
AcDbText
 10
-6.186165195932105
 20
2.370791380016078
 30
0.0
 40
0.06
  1
TITLE:
100
AcDbText
  0
LINE
  5
66F9
330
50D15
100
AcDbEntity
  8
BORDER
100
AcDbLine
 10
-6.250730330510329
 20
1.111109248495145
 30
0.0
 11
-7.98
 21
1.111109248495147
 31
0.0
  0
LINE
  5
66FA
330
50D15
100
AcDbEntity
  8
BORDER
100
AcDbLine
 10
-7.979999999999997
 20
1.748105042785747
 30
0.0
 11
-6.250730330510333
 21
1.748105042785744
 31
0.0
  0
LINE
  5
66FB
330
50D15
100
AcDbEntity
  8
BORDER
100
AcDbLine
 10
-7.979999999999997
 20
1.728105042785748
 30
0.0
 11
-6.250730330510333
 21
1.728105042785744
 31
0.0
  0
TEXT
  5
66FC
330
50D15
100
AcDbEntity
  8
0
100
AcDbText
 10
-7.841220418005243
 20
1.193768545403715
 30
0.0
 40
0.125
  1
.XX %%P .01
  7
SIMPLEX
100
AcDbText
  0
TEXT
  5
66FD
330
50D15
100
AcDbEntity
  8
0
100
AcDbText
 10
-7.841220418005243
 20
1.408054259689429
 30
0.0
 40
0.125
  1
.XXX %%P .005
  7
SIMPLEX
100
AcDbText
  0
ATTDEF
  5
66FE
330
50D15
100
AcDbEntity
  8
0
100
AcDbText
 10
-7.835514766961644
 20
2.017516067498457
 30
0.0
 40
0.13
  1
***
  7
SIMPLEX
100
AcDbAttributeDefinition
  3
ENTER SCALE
  2
DWG_:_ACT
 70
     0
280
     0
  0
LWPOLYLINE
  5
66FF
330
50D15
100
AcDbEntity
  8
BORDER
100
AcDbPolyline
 90
        2
 70
     0
 43
0.0
 10
-7.98
 20
1.728105042785746
 10
-7.98
 20
1.111109248495147
  0
TEXT
  5
6703
330
50D15
100
AcDbEntity
  8
TEXT
100
AcDbText
 10
-7.919055782961202
 20
1.608704948758236
 30
0.0
 40
0.06
  1
TOLERANCES:
100
AcDbText
  0
LINE
  5
6704
330
50D15
100
AcDbEntity
  8
BORDER
100
AcDbLine
 10
-6.250730330510333
 20
1.728105042785744
 30
0.0
 11
-6.250730330510333
 21
1.111109248495145
 31
0.0
  0
LINE
  5
6705
330
50D15
100
AcDbEntity
  8
BORDER
100
AcDbLine
 10
-6.230730330510333
 20
1.361109248495145
 30
0.0
 11
-6.230730330510333
 21
1.111109248495145
 31
0.0
  0
LWPOLYLINE
  5
6706
330
50D15
100
AcDbEntity
  8
BORDER
100
AcDbPolyline
 90
        3
 70
     0
 43
0.0
 10
-0.019999999999996
 20
1.748105042785745
 10
-0.019999999999996
 20
2.48
 10
-2.000730330510333
 20
2.48
  0
LINE
  5
670B
330
50D15
100
AcDbEntity
  8
BORDER
100
AcDbLine
 10
-2.000730330510336
 20
1.728105042785748
 30
0.0
 11
-0.019999999999996
 21
1.728105042785744
 31
0.0
  0
LINE
  5
670C
330
50D15
100
AcDbEntity
  8
BORDER
100
AcDbLine
 10
-2.000730330510336
 20
1.748105042785745
 30
0.0
 11
-0.019999999999996
 21
1.748105042785744
 31
0.0
  0
LWPOLYLINE
  5
670D
330
50D15
100
AcDbEntity
  8
BORDER
100
AcDbPolyline
 90
        2
 70
     0
 43
0.0
 10
-2.000730330510333
 20
0.0199999999999996
 10
-0.019999999999996
 20
0.0199999999999996
  0
LINE
  5
6711
330
50D15
100
AcDbEntity
  8
BORDER
100
AcDbLine
 10
-2.000730330510333
 20
0.8774998615443206
 30
0.0
 11
-0.019999999999996
 21
0.8774998615443206
 31
0.0
  0
LINE
  5
6712
330
50D15
100
AcDbEntity
  8
BORDER
100
AcDbLine
 10
-2.000730330510333
 20
0.8974998615443202
 30
0.0
 11
-0.019999999999996
 21
0.8974998615443202
 31
0.0
  0
LINE
  5
6713
330
50D15
100
AcDbEntity
  8
TEXT
 62
     2
100
AcDbLine
 10
-2.000730330510333
 20
1.19066379334865
 30
0.0
 11
-0.019999999999996
 21
1.19066379334865
 31
0.0
  0
LINE
  5
6714
330
50D15
100
AcDbEntity
  8
TEXT
 62
     2
100
AcDbLine
 10
-0.019999999999996
 20
1.456080483091261
 30
0.0
 11
-2.000730330510333
 21
1.456080483091261
 31
0.0
  0
LINE
  5
6715
330
50D15
100
AcDbEntity
  8
TEXT
 62
     2
100
AcDbLine
 10
-2.000730330510333
 20
0.4437499307721584
 30
0.0
 11
-0.0200000000000031
 21
0.4437499307721584
 31
0.0
  0
LINE
  5
6716
330
50D15
100
AcDbEntity
  8
BORDER
100
AcDbLine
 10
-2.020730330510332
 20
1.091109248495146
 30
0.0
 11
-2.020730330510332
 21
0.0199999999999996
 31
0.0
  0
LINE
  5
6717
330
50D15
100
AcDbEntity
  8
BORDER
100
AcDbLine
 10
-2.000730330510333
 20
0.8774998615443206
 30
0.0
 11
-2.000730330510333
 21
0.0199999999999996
 31
0.0
  0
ATTDEF
  5
6718
330
50D15
100
AcDbEntity
  8
0
100
AcDbText
 10
-1.940291179278251
 20
0.5049608133436783
 30
0.0
 40
0.125
  1
***
  7
SIMPLEX
100
AcDbAttributeDefinition
  3
ACAD NUMBER (Example - filename.disk#)
  2
CAD_NUMBER
 70
     0
280
     0
  0
TEXT
  5
6719
330
50D15
100
AcDbEntity
  8
TEXT
100
AcDbText
 10
-1.939845251415054
 20
0.312068574868297
 30
0.0
 40
0.06
  1
FILE NUMBER:
100
AcDbText
  0
ATTDEF
  5
671A
330
50D15
100
AcDbEntity
  8
0
100
AcDbText
 10
-1.939597083614473
 20
0.0835693487308422
 30
0.0
 40
0.125
  1
***
  7
SIMPLEX
100
AcDbAttributeDefinition
  3
(Example: M99-99999-99.99)
  2
FILE_NUMBER
 70
     0
280
     0
  0
ARC
  5
671B
330
50D15
100
AcDbEntity
  8
0
100
AcDbCircle
 10
-2.547338971330674
 20
0.262515735328674
 30
0.0
 40
0.0587143588478629
100
AcDbArc
 50
270.0
 51
51.38006886992486
  0
LINE
  5
671C
330
50D15
100
AcDbEntity
  8
0
100
AcDbLine
 10
-2.602710164528251
 20
0.4202961415120177
 30
0.0
 11
-2.491967778133098
 21
0.3318285655238418
 31
0.0
  0
ARC
  5
671D
330
50D15
100
AcDbEntity
  8
0
100
AcDbCircle
 10
-2.547338971330674
 20
0.262515735328674
 30
0.0
 40
0.0887143588478629
100
AcDbArc
 50
270.0
 51
51.38006886992486
  0
LINE
  5
671E
330
50D15
100
AcDbEntity
  8
0
100
AcDbLine
 10
-2.547338971330674
 20
0.6083233305550468
 30
0.0
 11
-2.458624612482812
 21
0.6083233305550468
 31
0.0
  0
LINE
  5
671F
330
50D15
100
AcDbEntity
  8
0
100
AcDbLine
 10
-2.547338971330674
 20
0.5783233305550493
 30
0.0
 11
-2.458624612482812
 21
0.5783233305550493
 31
0.0
  0
LINE
  5
6720
330
50D15
100
AcDbEntity
  8
0
100
AcDbLine
 10
-2.837794065745545
 20
0.262515735328674
 30
0.0
 11
-2.822461696717102
 21
0.236729722453946
 31
0.0
  0
LINE
  5
6721
330
50D15
100
AcDbEntity
  8
0
100
AcDbLine
 10
-2.688594056589714
 20
0.3163274512447911
 30
0.0
 11
-2.822461696717102
 21
0.236729722453946
 31
0.0
  0
ARC
  5
6722
330
50D15
100
AcDbEntity
  8
0
100
AcDbCircle
 10
-2.837794065745545
 20
0.262515735328674
 30
0.0
 40
0.0587143588478612
100
AcDbArc
 50
90.0
 51
270.0
  0
ARC
  5
6723
330
50D15
100
AcDbEntity
  8
0
100
AcDbCircle
 10
-2.837794065745545
 20
0.262515735328674
 30
0.0
 40
0.0887143588478612
100
AcDbArc
 50
90.0
 51
270.0
  0
LINE
  5
6724
330
50D15
100
AcDbEntity
  8
0
100
AcDbLine
 10
-2.837794065745545
 20
0.2038013764808122
 30
0.0
 11
-2.547338971330674
 21
0.2038013764808122
 31
0.0
  0
LINE
  5
6725
330
50D15
100
AcDbEntity
  8
0
100
AcDbLine
 10
-2.837794065745545
 20
0.173801376480812
 30
0.0
 11
-2.547338971330674
 21
0.173801376480812
 31
0.0
  0
LINE
  5
6726
330
50D15
100
AcDbEntity
  8
0
100
AcDbLine
 10
-2.739048124373156
 20
0.3212300941765376
 30
0.0
 11
-2.837794065745545
 21
0.3212300941765358
 31
0.0
  0
LINE
  5
6727
330
50D15
100
AcDbEntity
  8
0
100
AcDbLine
 10
-2.739048124373156
 20
0.3212300941765376
 30
0.0
 11
-2.837794065745545
 21
0.262515735328674
 31
0.0
  0
LINE
  5
6728
330
50D15
100
AcDbEntity
  8
0
100
AcDbLine
 10
-2.688594056589714
 20
0.3512300941765352
 30
0.0
 11
-2.837794065745545
 21
0.3512300941765352
 31
0.0
  0
ARC
  5
6729
330
50D15
100
AcDbEntity
  8
0
100
AcDbCircle
 10
-2.547338971330674
 20
0.4896089717071854
 30
0.0
 40
0.1187143588478629
100
AcDbArc
 50
90.0
 51
231.3800688699256
  0
LINE
  5
672A
330
50D15
100
AcDbEntity
  8
0
100
AcDbLine
 10
-2.621434707178398
 20
0.396857039512521
 30
0.0
 11
-2.510692320783246
 21
0.3083894635243452
 31
0.0
  0
ARC
  5
672B
330
50D15
100
AcDbEntity
  8
0
100
AcDbCircle
 10
-2.547338971330674
 20
0.4896089717071854
 30
0.0
 40
0.0887143588478629
100
AcDbArc
 50
90.0
 51
231.3800688699256
  0
LINE
  5
672C
330
50D15
100
AcDbEntity
  8
0
100
AcDbLine
 10
-2.688594056589714
 20
0.3512300941765352
 30
0.0
 11
-2.688594056589714
 21
0.3163274512447911
 31
0.0
  0
LINE
  5
672D
330
50D15
100
AcDbEntity
  8
0
100
AcDbLine
 10
-2.244498011936777
 20
0.2091882213449638
 30
0.0
 11
-2.244498011936773
 21
0.3212300941765358
 31
0.0
  0
ARC
  5
672E
330
50D15
100
AcDbEntity
  8
0
100
AcDbCircle
 10
-2.325466698990429
 20
0.2652091577607498
 30
0.0
 40
0.0560209364157853
100
AcDbArc
 50
90.0
 51
270.0
  0
ARC
  5
672F
330
50D15
100
AcDbEntity
  8
0
100
AcDbCircle
 10
-2.325466698990429
 20
0.2652091577607498
 30
0.0
 40
0.0860209364157853
100
AcDbArc
 50
90.0
 51
270.0
  0
LINE
  5
6730
330
50D15
100
AcDbEntity
  8
0
100
AcDbLine
 10
-2.214498011936776
 20
0.1441951921742719
 30
0.0
 11
-2.214498011936772
 21
0.3512300941765352
 31
0.0
  0
LINE
  5
6731
330
50D15
100
AcDbEntity
  8
0
100
AcDbLine
 10
-2.411487635406214
 20
0.1362692132698138
 30
0.0
 11
-2.411487635406214
 21
0.1062692132698153
 31
0.0
  0
LINE
  5
6732
330
50D15
100
AcDbEntity
  8
0
100
AcDbLine
 10
-2.325466698990429
 20
0.2091882213449647
 30
0.0
 11
-2.244498011936777
 21
0.209188221344963
 31
0.0
  0
LINE
  5
6733
330
50D15
100
AcDbEntity
  8
0
100
AcDbLine
 10
-2.244498011936777
 20
0.1441951921742728
 30
0.0
 11
-2.244498011936777
 21
0.1791882213449627
 31
0.0
  0
ARC
  5
6734
330
50D15
100
AcDbEntity
  8
0
100
AcDbCircle
 10
-2.252423990841233
 20
0.1441951921742719
 30
0.0
 40
0.0079259789044571
100
AcDbArc
 50
270.0
 51
0.0
  0
LINE
  5
6735
330
50D15
100
AcDbEntity
  8
0
100
AcDbLine
 10
-2.411487635406214
 20
0.1362692132698138
 30
0.0
 11
-2.252423990841233
 21
0.1362692132698147
 31
0.0
  0
ARC
  5
6736
330
50D15
100
AcDbEntity
  8
0
100
AcDbCircle
 10
-2.252423990841233
 20
0.1441951921742719
 30
0.0
 40
0.0379259789044571
100
AcDbArc
 50
270.0
 51
0.0
  0
LINE
  5
6737
330
50D15
100
AcDbEntity
  8
0
100
AcDbLine
 10
-2.325466698990429
 20
0.1791882213449636
 30
0.0
 11
-2.244498011936777
 21
0.1791882213449627
 31
0.0
  0
LINE
  5
6738
330
50D15
100
AcDbEntity
  8
0
100
AcDbLine
 10
-2.411487635406214
 20
0.1062692132698153
 30
0.0
 11
-2.252423990841233
 21
0.1062692132698144
 31
0.0
  0
LINE
  5
6739
330
50D15
100
AcDbEntity
  8
0
100
AcDbLine
 10
-2.458624612482812
 20
0.6083233305550468
 30
0.0
 11
-2.458624612482812
 21
0.5783233305550493
 31
0.0
  0
LINE
  5
673A
330
50D15
100
AcDbEntity
  8
0
100
AcDbLine
 10
-2.244498011936773
 20
0.3212300941765358
 30
0.0
 11
-2.325466698990429
 21
0.3212300941765358
 31
0.0
  0
LINE
  5
673B
330
50D15
100
AcDbEntity
  8
0
100
AcDbLine
 10
-2.214498011936772
 20
0.3512300941765352
 30
0.0
 11
-2.325466698990429
 21
0.3512300941765352
 31
0.0
  0
ATTDEF
  5
673C
330
50D15
100
AcDbEntity
  8
0
100
AcDbText
 10
-5.175887888259297
 20
1.436348743349257
 30
0.0
 40
0.1
  1
***
  7
SIMPLEX
100
AcDbAttributeDefinition
  3
REQUESTOR?
  2
REQUESTOR
 70
     0
280
     0
  0
ATTDEF
  5
673D
330
50D15
100
AcDbEntity
  8
0
100
AcDbText
 10
-5.313867918038127
 20
1.173648743349258
 30
0.0
 40
0.125
  1
***
  7
SIMPLEX
100
AcDbAttributeDefinition
  3
JOB, WORK OR DAY SHEET NUMBER?
  2
J.O.N.
 70
     0
280
     0
  0
LINE
  5
673E
330
50D15
100
AcDbEntity
  8
BORDER
100
AcDbLine
 10
-2.020730330510332
 20
2.480000000000002
 30
0.0
 11
-2.020730330510336
 21
1.381109248495145
 31
0.0
  0
LINE
  5
673F
330
50D15
100
AcDbEntity
  8
BORDER
100
AcDbLine
 10
-2.000730330510333
 20
2.480000000000002
 30
0.0
 11
-2.000730330510333
 21
1.748105042785747
 31
0.0
  0
TEXT
  5
6740
330
50D15
100
AcDbEntity
  8
TEXT
100
AcDbText
 10
-1.927754661968038
 20
2.366171748061648
 30
0.0
 40
0.06
  1
REVISIONS:
100
AcDbText
  0
TEXT
  5
6741
330
50D15
100
AcDbEntity
  8
TEXT
100
AcDbText
 10
-1.941127080659825
 20
0.7449832089821466
 30
0.0
 40
0.06
  1
CAD NUMBER:
100
AcDbText
  0
TEXT
  5
6742
330
50D15
100
AcDbEntity
  8
TEXT
100
AcDbText
 10
-1.945216685738259
 20
1.648279667137581
 30
0.0
 40
0.05
  1
DATE:
100
AcDbText
  0
TEXT
  5
6743
330
50D15
100
AcDbEntity
  8
TEXT
100
AcDbText
 10
-1.945216685738259
 20
1.386297541935566
 30
0.0
 40
0.05
  1
DESIGNED BY:
100
AcDbText
  0
TEXT
  5
6744
330
50D15
100
AcDbEntity
  8
TEXT
100
AcDbText
 10
-1.950328692086302
 20
1.11950364488939
 30
0.0
 40
0.05
  1
APP. BY:
100
AcDbText
  0
LINE
  5
6745
330
50D15
100
AcDbEntity
  8
BORDER
100
AcDbLine
 10
-2.000730330510333
 20
1.728105042785749
 30
0.0
 11
-2.000730330510333
 21
0.8974998615443202
 31
0.0
  0
LINE
  5
6746
330
50D15
100
AcDbEntity
  8
BORDER
100
AcDbLine
 10
-2.020730330510336
 20
1.361109248495143
 30
0.0
 11
-2.020730330510332
 21
1.111109248495145
 31
0.0
  0
ATTDEF
  5
6747
330
50D15
100
AcDbEntity
  8
0
100
AcDbText
 10
-1.704126691764781
 20
1.501142427424082
 30
0.0
 40
0.125
  1
***
  7
SIMPLEX
100
AcDbAttributeDefinition
  3
DATE: ? (Example - 29 Feb 2001)
  2
DATE
 70
     0
280
     0
  0
ATTDEF
  5
6748
330
50D15
100
AcDbEntity
  8
0
100
AcDbText
 10
-1.715144879658755
 20
1.225167620959432
 30
0.0
 40
0.125
  1
***
  7
SIMPLEX
100
AcDbAttributeDefinition
  3
DESIGNED BY?
  2
DESN
 70
     0
280
     0
  0
LINE
  5
6749
330
50D15
100
AcDbEntity
  8
TEXT
 62
     2
100
AcDbLine
 10
-1.000730330510333
 20
1.19066379334865
 30
0.0
 11
-1.000730330510333
 21
0.8974998615443202
 31
0.0
  0
TEXT
  5
674A
330
50D15
100
AcDbEntity
  8
TEXT
100
AcDbText
 10
-0.9815436058020026
 20
1.110295807050656
 30
0.0
 40
0.05
  1
DATE:
100
AcDbText
  0
LWPOLYLINE
  5
674B
330
50D15
100
AcDbEntity
  8
BORDER
100
AcDbPolyline
 90
        2
 70
     0
 43
0.0
 10
-0.019999999999996
 20
0.0199999999999996
 10
-0.019999999999996
 20
0.8774998615443206
  0
LWPOLYLINE
  5
674F
330
50D15
100
AcDbEntity
  8
BORDER
100
AcDbPolyline
 90
        2
 70
     0
 43
0.0
 10
-0.019999999999996
 20
0.8974998615443202
 10
-0.019999999999996
 20
1.728105042785746
  0
ENDBLK
  5
6753
330
50D15
100
AcDbEntity
  8
0
100
AcDbBlockEnd
  0
BLOCK
  5
50C40
330
50D1D
100
AcDbEntity
  8
0
100
AcDbBlockBegin
  2
*D1
 70
     1
 10
0.0
 20
0.0
 30
0.0
  3
*D1
  1

  0
LINE
  5
50C41
330
50D1D
100
AcDbEntity
  8
0
  6
ByBlock
 62
     1
440
 16777216
100
AcDbLine
 10
4.185611614744118
 20
18.17896912282763
 30
0.0
 11
4.185611614744118
 21
18.67989563409379
 31
0.0
  0
LINE
  5
50C42
330
50D1D
100
AcDbEntity
  8
0
  6
ByBlock
 62
     1
440
 16777216
100
AcDbLine
 10
19.09186161474412
 20
18.17896912282763
 30
0.0
 11
19.09186161474412
 21
18.67989563409379
 31
0.0
  0
LINE
  5
50C43
330
50D1D
100
AcDbEntity
  8
0
  6
ByBlock
 62
     1
440
 16777216
100
AcDbLine
 10
4.365611614744118
 20
18.49989563409379
 30
0.0
 11
11.29826042426793
 21
18.49989563409379
 31
0.0
  0
LINE
  5
50C44
330
50D1D
100
AcDbEntity
  8
0
  6
ByBlock
 62
     1
440
 16777216
100
AcDbLine
 10
18.91186161474412
 20
18.49989563409379
 30
0.0
 11
11.97921280522031
 21
18.49989563409379
 31
0.0
  0
SOLID
  5
50C45
330
50D1D
100
AcDbEntity
  8
0
  6
ByBlock
 62
     1
440
 16777216
100
AcDbTrace
 10
4.365611614744118
 20
18.52989563409379
 30
0.0
 11
4.365611614744118
 21
18.46989563409379
 31
0.0
 12
4.185611614744118
 22
18.49989563409379
 32
0.0
 13
4.185611614744118
 23
18.49989563409379
 33
0.0
  0
SOLID
  5
50C46
330
50D1D
100
AcDbEntity
  8
0
  6
ByBlock
 62
     1
440
 16777216
100
AcDbTrace
 10
18.91186161474412
 20
18.52989563409379
 30
0.0
 11
18.91186161474412
 21
18.46989563409379
 31
0.0
 12
19.09186161474412
 22
18.49989563409379
 32
0.0
 13
19.09186161474412
 23
18.49989563409379
 33
0.0
  0
TEXT
  5
50C47
330
50D1D
100
AcDbEntity
  8
0
  6
ByBlock
 62
     1
440
 16777216
100
AcDbText
 10
11.3696889956965
 20
18.44989563409379
 30
0.0
 40
0.1
  1
14.906
  7
SIMPLEX
 72
     1
 11
11.63873661474412
 21
18.49989563409379
 31
0.0
100
AcDbText
 73
     2
  0
POINT
  5
50C48
330
50D1D
100
AcDbEntity
  8
DEFPOINTS
  6
ByBlock
 62
     0
440
 16777216
100
AcDbPoint
 10
4.185611614744118
 20
18.11596912282763
 30
0.0
  0
POINT
  5
50C49
330
50D1D
100
AcDbEntity
  8
DEFPOINTS
  6
ByBlock
 62
     0
440
 16777216
100
AcDbPoint
 10
19.09186161474412
 20
18.11596912282763
 30
0.0
  0
POINT
  5
50C4A
330
50D1D
100
AcDbEntity
  8
DEFPOINTS
  6
ByBlock
 62
     0
440
 16777216
100
AcDbPoint
 10
19.09186161474412
 20
18.49989563409379
 30
0.0
  0
ENDBLK
  5
50C4B
330
50D1D
100
AcDbEntity
  8
0
100
AcDbBlockEnd
  0
BLOCK
  5
50C69
330
50D1E
100
AcDbEntity
  8
0
100
AcDbBlockBegin
  2
*D2
 70
     1
 10
0.0
 20
0.0
 30
0.0
  3
*D2
  1

  0
LINE
  5
50C6A
330
50D1E
100
AcDbEntity
  8
0
  6
ByBlock
 62
     1
440
 16777216
100
AcDbLine
 10
20.48867334030504
 20
6.680942194989583
 30
0.0
 11
20.48867334030504
 21
6.30607648095609
 31
0.0
  0
LINE
  5
50C6B
330
50D1E
100
AcDbEntity
  8
0
  6
ByBlock
 62
     1
440
 16777216
100
AcDbLine
 10
26.98968387194842
 20
6.680942194989554
 30
0.0
 11
26.98968387194842
 21
6.30607648095609
 31
0.0
  0
LINE
  5
50C6C
330
50D1E
100
AcDbEntity
  8
0
  6
ByBlock
 62
     1
440
 16777216
100
AcDbLine
 10
20.66867334030504
 20
6.48607648095609
 30
0.0
 11
23.39870241565054
 21
6.48607648095609
 31
0.0
  0
LINE
  5
50C6D
330
50D1E
100
AcDbEntity
  8
0
  6
ByBlock
 62
     1
440
 16777216
100
AcDbLine
 10
26.80968387194842
 20
6.48607648095609
 30
0.0
 11
24.07965479660292
 21
6.48607648095609
 31
0.0
  0
SOLID
  5
50C6E
330
50D1E
100
AcDbEntity
  8
0
  6
ByBlock
 62
     1
440
 16777216
100
AcDbTrace
 10
20.66867334030504
 20
6.51607648095609
 30
0.0
 11
20.66867334030504
 21
6.45607648095609
 31
0.0
 12
20.48867334030504
 22
6.48607648095609
 32
0.0
 13
20.48867334030504
 23
6.48607648095609
 33
0.0
  0
SOLID
  5
50C6F
330
50D1E
100
AcDbEntity
  8
0
  6
ByBlock
 62
     1
440
 16777216
100
AcDbTrace
 10
26.80968387194842
 20
6.51607648095609
 30
0.0
 11
26.80968387194842
 21
6.45607648095609
 31
0.0
 12
26.98968387194842
 22
6.48607648095609
 32
0.0
 13
26.98968387194842
 23
6.48607648095609
 33
0.0
  0
TEXT
  5
50C70
330
50D1E
100
AcDbEntity
  8
0
  6
ByBlock
 62
     1
440
 16777216
100
AcDbText
 10
23.47013098707911
 20
6.43607648095609
 30
0.0
 40
0.1
  1
13.000
  7
SIMPLEX
 72
     1
 11
23.73917860612673
 21
6.48607648095609
 31
0.0
100
AcDbText
 73
     2
  0
POINT
  5
50C71
330
50D1E
100
AcDbEntity
  8
DEFPOINTS
  6
ByBlock
 62
     0
440
 16777216
100
AcDbPoint
 10
20.48867334030504
 20
6.743942194989582
 30
0.0
  0
POINT
  5
50C72
330
50D1E
100
AcDbEntity
  8
DEFPOINTS
  6
ByBlock
 62
     0
440
 16777216
100
AcDbPoint
 10
26.98968387194842
 20
6.743942194989554
 30
0.0
  0
POINT
  5
50C73
330
50D1E
100
AcDbEntity
  8
DEFPOINTS
  6
ByBlock
 62
     0
440
 16777216
100
AcDbPoint
 10
26.98968387194842
 20
6.48607648095609
 30
0.0
  0
ENDBLK
  5
50C74
330
50D1E
100
AcDbEntity
  8
0
100
AcDbBlockEnd
  0
BLOCK
  5
50C7A
330
50D1F
100
AcDbEntity
  8
0
100
AcDbBlockBegin
  2
*D3
 70
     1
 10
0.0
 20
0.0
 30
0.0
  3
*D3
  1

  0
LINE
  5
50C7B
330
50D1F
100
AcDbEntity
  8
0
  6
ByBlock
 62
     1
440
 16777216
100
AcDbLine
 10
19.33175977274518
 20
6.713942194989581
 30
0.0
 11
19.7485749823567
 21
6.713942194989581
 31
0.0
  0
LINE
  5
50C7C
330
50D1F
100
AcDbEntity
  8
0
  6
ByBlock
 62
     1
440
 16777216
100
AcDbLine
 10
19.33175977274518
 20
10.37019219498958
 30
0.0
 11
19.7485749823567
 21
10.37019219498958
 31
0.0
  0
LINE
  5
50C7D
330
50D1F
100
AcDbEntity
  8
0
  6
ByBlock
 62
     1
440
 16777216
100
AcDbLine
 10
19.5685749823567
 20
6.893942194989581
 30
0.0
 11
19.5685749823567
 21
8.39206719498958
 31
0.0
  0
LINE
  5
50C7E
330
50D1F
100
AcDbEntity
  8
0
  6
ByBlock
 62
     1
440
 16777216
100
AcDbLine
 10
19.5685749823567
 20
10.19019219498958
 30
0.0
 11
19.5685749823567
 21
8.692067194989582
 31
0.0
  0
SOLID
  5
50C7F
330
50D1F
100
AcDbEntity
  8
0
  6
ByBlock
 62
     1
440
 16777216
100
AcDbTrace
 10
19.5385749823567
 20
6.893942194989581
 30
0.0
 11
19.5985749823567
 21
6.893942194989581
 31
0.0
 12
19.5685749823567
 22
6.713942194989581
 32
0.0
 13
19.5685749823567
 23
6.713942194989581
 33
0.0
  0
SOLID
  5
50C80
330
50D1F
100
AcDbEntity
  8
0
  6
ByBlock
 62
     1
440
 16777216
100
AcDbTrace
 10
19.5385749823567
 20
10.19019219498958
 30
0.0
 11
19.5985749823567
 21
10.19019219498958
 31
0.0
 12
19.5685749823567
 22
10.37019219498958
 32
0.0
 13
19.5685749823567
 23
10.37019219498958
 33
0.0
  0
TEXT
  5
50C81
330
50D1F
100
AcDbEntity
  8
0
  6
ByBlock
 62
     1
440
 16777216
100
AcDbText
 10
19.35428926807099
 20
8.49206719498958
 30
0.0
 40
0.1
  1
3.656
  7
SIMPLEX
 72
     1
 11
19.5685749823567
 21
8.542067194989581
 31
0.0
100
AcDbText
 73
     2
  0
POINT
  5
50C82
330
50D1F
100
AcDbEntity
  8
DEFPOINTS
  6
ByBlock
 62
     0
440
 16777216
100
AcDbPoint
 10
19.26875977274518
 20
6.713942194989581
 30
0.0
  0
POINT
  5
50C83
330
50D1F
100
AcDbEntity
  8
DEFPOINTS
  6
ByBlock
 62
     0
440
 16777216
100
AcDbPoint
 10
19.26875977274518
 20
10.37019219498958
 30
0.0
  0
POINT
  5
50C84
330
50D1F
100
AcDbEntity
  8
DEFPOINTS
  6
ByBlock
 62
     0
440
 16777216
100
AcDbPoint
 10
19.5685749823567
 20
10.37019219498958
 30
0.0
  0
ENDBLK
  5
50C85
330
50D1F
100
AcDbEntity
  8
0
100
AcDbBlockEnd
  0
BLOCK
  5
50CE2
330
50D20
100
AcDbEntity
  8
0
100
AcDbBlockBegin
  2
P-TITLE
 70
     2
 10
0.0
 20
0.0
 30
0.0
  3
P-TITLE
  1

  0
ATTDEF
  5
50CE3
330
50D20
100
AcDbEntity
  8
OBJECT
100
AcDbText
 10
-0.5250000000000004
 20
-1.6875
 30
0.0
 40
0.1
  1
***
  7
ROMANS
100
AcDbAttributeDefinition
  3
WHAT SCALE ARE YOU USING?
  2
SCALE
 70
     0
280
     0
  0
ATTDEF
  5
50CE4
330
50D20
100
AcDbEntity
  8
OBJECT
100
AcDbText
 10
-0.5999999999999996
 20
-1.437980115077482
 30
0.0
 40
0.1
  1
****
  7
ROMANS
100
AcDbAttributeDefinition
  3
HOW MANY DO YOU NEED?
  2
#_REQUIRED
 70
     0
280
     0
  0
ATTDEF
  5
50CE5
330
50D20
100
AcDbEntity
  8
OBJECT
100
AcDbText
 10
-0.3250000000000002
 20
-1.1875
 30
0.0
 40
0.1
  1
***
  7
ROMANS
100
AcDbAttributeDefinition
  3
MATERIAL?
  2
MATERIAL
 70
     0
280
     0
  0
ATTDEF
  5
50CE6
330
50D20
100
AcDbEntity
  8
OBJECT
100
AcDbText
 10
-1.162500000000001
 20
-1.6875
 30
0.0
 40
0.1
  1
SCALE:
  7
ROMANS
100
AcDbAttributeDefinition
  3

  2
SCALE:
 70
     2
280
     0
  0
ATTDEF
  5
50CE7
330
50D20
100
AcDbEntity
  8
OBJECT
100
AcDbText
 10
-1.162500000000001
 20
-1.4375
 30
0.0
 40
0.1
  1
REQD:  
  7
ROMANS
100
AcDbAttributeDefinition
  3

  2
REQD:
 70
     2
280
     0
  0
ATTDEF
  5
50CE8
330
50D20
100
AcDbEntity
  8
OBJECT
100
AcDbText
 10
-1.162500000000001
 20
-1.1875
 30
0.0
 40
0.1
  1
MATERIAL:
  7
ROMANS
100
AcDbAttributeDefinition
  3

  2
MATERIAL:
 70
     2
280
     0
  0
ATTDEF
  5
50CE9
330
50D20
100
AcDbEntity
  8
OBJECT
100
AcDbText
 10
-1.466785714285715
 20
-0.5974999999999997
 30
0.0
 40
0.12
  1
1
  7
ROMANS
 72
     4
 11
-1.3125
 21
-0.5375000000000001
 31
0.0
100
AcDbAttributeDefinition
  3
PART NUMBER
  2
NO.
 70
     0
280
     0
  0
ATTDEF
  5
50CEA
330
50D20
100
AcDbEntity
  8
OBJECT
100
AcDbText
 10
-0.9875000000000007
 20
-0.7124999999999999
 30
0.0
 40
0.15
  1
***
  7
ROMANS
100
AcDbAttributeDefinition
  3
DESCRIPTION OF PART
  2
DESCRIPTION
 70
     0
280
     0
  0
LINE
  5
50CEB
330
50D20
100
AcDbEntity
  8
OBJECT
100
AcDbLine
 10
1.387499999999999
 20
-0.8624999999999998
 30
0.0
 11
-1.1875
 21
-0.8624999999999998
 31
0.0
  0
LINE
  5
50CEC
330
50D20
100
AcDbEntity
  8
OBJECT
100
AcDbLine
 10
-1.112500000000001
 20
-0.7999999999999998
 30
0.0
 11
1.387499999999999
 21
-0.7999999999999998
 31
0.0
  0
CIRCLE
  5
50CED
330
50D20
100
AcDbEntity
  8
OBJECT
100
AcDbCircle
 10
-1.3125
 20
-0.6375000000000002
 30
0.0
 40
0.25
  0
LINE
  5
50CEE
330
50D20
100
AcDbEntity
  8
OBJECT
100
AcDbLine
 10
-1.5625
 20
-0.6375000000000002
 30
0.0
 11
-1.0625
 21
-0.6375000000000002
 31
0.0
  0
ATTDEF
  5
50CEF
330
50D20
100
AcDbEntity
  8
OBJECT
100
AcDbText
 10
-1.543928571428571
 20
-0.7975000000000003
 30
0.0
 40
0.12
  1
.01
  7
ROMANS
 72
     4
 11
-1.3125
 21
-0.7375000000000003
 31
0.0
100
AcDbAttributeDefinition
  3
ASSY PAGE
  2
PAGE
 70
     0
280
     0
  0
ENDBLK
  5
50CF0
330
50D20
100
AcDbEntity
  8
0
100
AcDbBlockEnd
  0
ENDSEC
  0
SECTION
  2
ENTITIES
  0
INSERT
  5
50C0E
330
50D10
100
AcDbEntity
  8
TEXT
100
AcDbBlockReference
 66
     1
  2
T-BLK
 10
33.0
 20
0.0
 30
0.0
1001
AEC_XDATA_BOUND_SPACE
1070
   100
1070
     1
  0
ATTRIB
  5
50C0F
330
50C0E
100
AcDbEntity
  8
0
100
AcDbText
 10
26.85302854341887
 20
2.034111222572061
 30
0.0
 40
0.2
  1
ABC COMPUTER
  7
SIMPLEX
100
AcDbAttribute
  2
FLINE_TITLE
 70
     0
280
     0
  0
ATTRIB
  5
50C10
330
50C0E
100
AcDbEntity
  8
0
100
AcDbText
 10
26.85302854341887
 20
1.690467266152599
 30
0.0
 40
0.2
  1
RIGHT DRUM COVER
  7
SIMPLEX
100
AcDbAttribute
  2
SLINE_TITLE
 70
     0
280
     0
  0
ATTRIB
  5
50C11
330
50C0E
100
AcDbEntity
  8
0
100
AcDbText
 10
25.16448523303836
 20
2.017516067498459
 30
0.0
 40
0.13
  1
HALF SIZE
  7
SIMPLEX
100
AcDbAttribute
  2
DWG_:_ACT
 70
     0
280
     0
  0
ATTRIB
  5
50C12
330
50C0E
100
AcDbEntity
  8
0
100
AcDbText
 10
31.05970882072177
 20
0.5049608133436756
 30
0.0
 40
0.125
  1
10323-10.52
  7
SIMPLEX
100
AcDbAttribute
  2
CAD_NUMBER
 70
     0
280
     0
  0
ATTRIB
  5
50C13
330
50C0E
100
AcDbEntity
  8
0
100
AcDbText
 10
31.06040291638553
 20
0.083569348730844
 30
0.0
 40
0.125
  1
10323-10.52
  7
SIMPLEX
100
AcDbAttribute
  2
FILE_NUMBER
 70
     0
280
     0
  0
ATTRIB
  5
50C14
330
50C0E
100
AcDbEntity
  8
0
100
AcDbText
 10
27.8241121117407
 20
1.436348743349253
 30
0.0
 40
0.1
  1
ISU FOUNDATION
  7
SIMPLEX
100
AcDbAttribute
  2
REQUESTOR
 70
     0
280
     0
  0
ATTRIB
  5
50C15
330
50C0E
100
AcDbEntity
  8
0
100
AcDbText
 10
27.68613208196189
 20
1.173648743349258
 30
0.0
 40
0.125
  1
L00968
  7
SIMPLEX
100
AcDbAttribute
  2
J.O.N.
 70
     0
280
     0
  0
ATTRIB
  5
50C16
330
50C0E
100
AcDbEntity
  8
0
100
AcDbText
 10
31.29587330823523
 20
1.501142427424082
 30
0.0
 40
0.125
  1
28 AUG 96
  7
SIMPLEX
100
AcDbAttribute
  2
DATE
 70
     0
280
     0
  0
ATTRIB
  5
50C17
330
50C0E
100
AcDbEntity
  8
0
100
AcDbText
 10
31.28485512034126
 20
1.225167620959429
 30
0.0
 40
0.125
  1
DHB
  7
SIMPLEX
100
AcDbAttribute
  2
DESN
 70
     0
280
     0
  0
SEQEND
  5
50C18
330
50C0E
100
AcDbEntity
  8
TEXT
  0
LINE
  5
50C28
330
50D10
100
AcDbEntity
  8
BORDER
100
AcDbLine
 10
33.0
 20
0.0
 30
0.0
 11
33.0
 21
21.0
 31
0.0
  0
LINE
  5
50C29
330
50D10
100
AcDbEntity
  8
BORDER
100
AcDbLine
 10
0.0
 20
0.0
 30
0.0
 11
0.0
 21
21.0
 31
0.0
  0
LINE
  5
50C2A
330
50D10
100
AcDbEntity
  8
BORDER
100
AcDbLine
 10
0.0
 20
0.0
 30
0.0
 11
33.0
 21
0.0
 31
0.0
  0
TEXT
  5
50C2B
330
50D10
100
AcDbEntity
  8
DIM
 62
     1
100
AcDbText
 10
5.650339721219509
 20
5.873969881625299
 30
0.0
 40
0.1
  1
TURN UP INSIDE, FRONT ONLY
  7
SIMPLEX
 72
     2
 11
7.997958768838556
 21
5.923969881625299
 31
0.0
100
AcDbText
 73
     2
  0
LINE
  5
50C2D
330
50D10
100
AcDbEntity
  8
BORDER
100
AcDbLine
 10
0.0
 20
21.0
 30
0.0
 11
33.0
 21
21.0
 31
0.0
  0
LINE
  5
50C2E
330
50D10
100
AcDbEntity
  8
0
  6
ByBlock
 62
     1
100
AcDbLine
 10
19.22665917575844
 20
7.713942194989581
 30
0.0
 11
19.54955666788567
 21
7.713942194989581
 31
0.0
  0
LINE
  5
50C3C
330
50D10
100
AcDbEntity
  8
OBJECT
100
AcDbLine
 10
4.185611614744133
 20
11.61495859118433
 30
0.0
 11
19.09186161474412
 21
11.61495859118427
 31
0.0
  0
LINE
  5
50C3D
330
50D10
100
AcDbEntity
  8
OBJECT
100
AcDbLine
 10
19.09186161474412
 20
10.37019219498958
 30
0.0
 11
4.185611614744118
 21
10.37019219498958
 31
0.0
  0
LINE
  5
50C3E
330
50D10
100
AcDbEntity
  8
OBJECT
100
AcDbLine
 10
19.09186161474412
 20
6.713942194989581
 30
0.0
 11
4.185611614744118
 21
6.713942194989581
 31
0.0
  0
LINE
  5
50C3F
330
50D10
100
AcDbEntity
  8
OBJECT
100
AcDbLine
 10
19.09186161474412
 20
18.11596912282763
 30
0.0
 11
4.185611614744133
 21
18.11596912282763
 31
0.0
  0
DIMENSION
  5
50C4C
330
50D10
100
AcDbEntity
  8
DIM
100
AcDbDimension
280
     0
  2
*D1
 10
19.09186161474412
 20
18.49989563409379
 30
0.0
 11
11.63873661474412
 21
18.49989563409379
 31
0.0
 71
     5
 42
-1.0
 73
     0
 74
     0
 75
     0
100
AcDbAlignedDimension
 13
4.185611614744118
 23
18.11596912282763
 33
0.0
 14
19.09186161474412
 24
18.11596912282763
 34
0.0
100
AcDbRotatedDimension
  0
LINE
  5
50C4D
330
50D10
100
AcDbEntity
  8
OBJECT
100
AcDbLine
 10
4.185611614744118
 20
11.61495859118433
 30
0.0
 11
4.185611614744118
 21
18.11596912282763
 31
0.0
  0
LINE
  5
50C4E
330
50D10
100
AcDbEntity
  8
OBJECT
100
AcDbLine
 10
19.09186161474412
 20
7.713942194989577
 30
0.0
 11
4.185611614744118
 21
7.713942194989579
 31
0.0
  0
LINE
  5
50C4F
330
50D10
100
AcDbEntity
  8
OBJECT
100
AcDbLine
 10
4.185611614744118
 20
10.37019219498958
 30
0.0
 11
4.185611614744118
 21
6.713942194989581
 31
0.0
  0
LINE
  5
50C50
330
50D10
100
AcDbEntity
  8
OBJECT
100
AcDbLine
 10
4.508570195872508
 20
7.905068534157817
 30
0.0
 11
4.389740928683565
 21
8.045703693632486
 31
0.0
  0
LINE
  5
50C51
330
50D10
100
AcDbEntity
  8
OBJECT
100
AcDbLine
 10
4.487279452524589
 20
7.885714980804931
 30
0.0
 11
4.367105316264784
 21
8.027941800993528
 31
0.0
  0
CIRCLE
  5
50C52
330
50D10
100
AcDbEntity
  8
OBJECT
100
AcDbCircle
 10
4.435611614744118
 20
7.963942194989581
 30
0.0
 40
0.09375
  0
LINE
  5
50C53
330
50D10
100
AcDbEntity
  8
OBJECT
100
AcDbLine
 10
4.508570195872508
 20
9.155068534157817
 30
0.0
 11
4.389740928683565
 21
9.295703693632486
 31
0.0
  0
LINE
  5
50C54
330
50D10
100
AcDbEntity
  8
OBJECT
100
AcDbLine
 10
4.487279452524589
 20
9.13571498080493
 30
0.0
 11
4.367105316264784
 21
9.277941800993528
 31
0.0
  0
CIRCLE
  5
50C55
330
50D10
100
AcDbEntity
  8
OBJECT
100
AcDbCircle
 10
4.435611614744118
 20
9.213942194989581
 30
0.0
 40
0.09375
  0
POINT
  5
50C56
330
50D10
100
AcDbEntity
  8
OBJECT
100
AcDbPoint
 10
4.435611614744118
 20
9.213942194989581
 30
0.0
  0
LINE
  5
50C59
330
50D10
100
AcDbEntity
  8
OBJECT
100
AcDbLine
 10
4.508570195872508
 20
12.43159019617421
 30
0.0
 11
4.389740928683565
 21
12.57222535564888
 31
0.0
  0
LINE
  5
50C5A
330
50D10
100
AcDbEntity
  8
OBJECT
100
AcDbLine
 10
4.487279452524589
 20
12.41223664282132
 30
0.0
 11
4.367105316264784
 21
12.55446346300992
 31
0.0
  0
CIRCLE
  5
50C5B
330
50D10
100
AcDbEntity
  8
OBJECT
100
AcDbCircle
 10
4.435611614744118
 20
12.49046385700597
 30
0.0
 40
0.09375
  0
POINT
  5
50C5C
330
50D10
100
AcDbEntity
  8
OBJECT
100
AcDbPoint
 10
4.435611614744118
 20
14.0737971903393
 30
0.0
  0
LINE
  5
50C5D
330
50D10
100
AcDbEntity
  8
OBJECT
100
AcDbLine
 10
4.508570195872508
 20
14.01492352950754
 30
0.0
 11
4.389740928683565
 21
14.15555868898221
 31
0.0
  0
LINE
  5
50C5E
330
50D10
100
AcDbEntity
  8
OBJECT
100
AcDbLine
 10
4.487279452524589
 20
13.99556997615465
 30
0.0
 11
4.367105316264784
 21
14.13779679634325
 31
0.0
  0
CIRCLE
  5
50C5F
330
50D10
100
AcDbEntity
  8
OBJECT
100
AcDbCircle
 10
4.435611614744118
 20
14.0737971903393
 30
0.0
 40
0.09375
  0
LINE
  5
50C61
330
50D10
100
AcDbEntity
  8
OBJECT
100
AcDbLine
 10
4.487279452524589
 20
17.16223664282132
 30
0.0
 11
4.367105316264784
 21
17.30446346300992
 31
0.0
  0
LINE
  5
50C62
330
50D10
100
AcDbEntity
  8
OBJECT
100
AcDbLine
 10
4.508570195872508
 20
17.18159019617421
 30
0.0
 11
4.389740928683565
 21
17.32222535564888
 31
0.0
  0
CIRCLE
  5
50C63
330
50D10
100
AcDbEntity
  8
OBJECT
100
AcDbCircle
 10
4.435611614744118
 20
17.24046385700597
 30
0.0
 40
0.09375
  0
LINE
  5
50C64
330
50D10
100
AcDbEntity
  8
OBJECT
100
AcDbLine
 10
4.508570195872508
 20
15.59825686284088
 30
0.0
 11
4.389740928683565
 21
15.73889202231555
 31
0.0
  0
LINE
  5
50C65
330
50D10
100
AcDbEntity
  8
OBJECT
100
AcDbLine
 10
4.487279452524589
 20
15.57890330948799
 30
0.0
 11
4.367105316264784
 21
15.72113012967659
 31
0.0
  0
CIRCLE
  5
50C66
330
50D10
100
AcDbEntity
  8
OBJECT
100
AcDbCircle
 10
4.435611614744118
 20
15.65713052367265
 30
0.0
 40
0.09375
  0
POINT
  5
50C67
330
50D10
100
AcDbEntity
  8
OBJECT
100
AcDbPoint
 10
4.435611614744118
 20
15.65713052367265
 30
0.0
  0
LINE
  5
50C68
330
50D10
100
AcDbEntity
  8
OBJECT
100
AcDbLine
 10
19.09186161474412
 20
11.61495859118427
 30
0.0
 11
19.09186161474412
 21
18.11596912282763
 31
0.0
  0
DIMENSION
  5
50C75
330
50D10
100
AcDbEntity
  8
DIM
100
AcDbDimension
280
     0
  2
*D2
 10
26.98968387194842
 20
6.48607648095609
 30
0.0
 11
23.73917860612673
 21
6.48607648095609
 31
0.0
  1
13.000
 71
     5
 42
-1.0
 73
     0
 74
     0
 75
     0
100
AcDbAlignedDimension
 13
20.48867334030504
 23
6.743942194989582
 33
0.0
 14
26.98968387194842
 24
6.743942194989554
 34
0.0
100
AcDbRotatedDimension
  0
LINE
  5
50C76
330
50D10
100
AcDbEntity
  8
OBJECT
100
AcDbLine
 10
26.23968387194842
 20
9.840192194989552
 30
0.0
 11
21.23867334030504
 21
9.84019219498958
 31
0.0
  0
LINE
  5
50C77
330
50D10
100
AcDbEntity
  8
OBJECT
100
AcDbLine
 10
26.23968387194842
 20
10.34019219498955
 30
0.0
 11
21.23867334030504
 21
10.34019219498955
 31
0.0
  0
LINE
  5
50C78
330
50D10
100
AcDbEntity
  8
OBJECT
100
AcDbLine
 10
21.23867334030504
 20
10.37019219498958
 30
0.0
 11
26.23968387194842
 21
10.37019219498958
 31
0.0
  0
LINE
  5
50C79
330
50D10
100
AcDbEntity
  8
HIDDEN2
100
AcDbLine
 10
26.23968387194842
 20
10.31019219498955
 30
0.0
 11
21.23867334030504
 21
10.31019219498955
 31
0.0
  0
DIMENSION
  5
50C86
330
50D10
100
AcDbEntity
  8
DIM
100
AcDbDimension
280
     0
  2
*D3
 10
19.5685749823567
 20
10.37019219498958
 30
0.0
 11
19.5685749823567
 21
8.542067194989581
 31
0.0
 71
     5
 42
-1.0
 73
     0
 74
     0
 75
     0
100
AcDbAlignedDimension
 13
19.26875977274518
 23
6.713942194989581
 33
0.0
 14
19.26875977274518
 24
10.37019219498958
 34
0.0
 50
90.0
100
AcDbRotatedDimension
  0
LINE
  5
50C87
330
50D10
100
AcDbEntity
  8
OBJECT
100
AcDbLine
 10
19.09186161474412
 20
10.37019219498958
 30
0.0
 11
19.09186161474412
 21
6.713942194989581
 31
0.0
  0
LINE
  5
50C88
330
50D10
100
AcDbEntity
  8
OBJECT
100
AcDbLine
 10
21.23867334030504
 20
9.84019219498958
 30
0.0
 11
21.23867334030504
 21
10.34019219498958
 31
0.0
  0
ARC
  5
50C89
330
50D10
100
AcDbEntity
  8
OBJECT
100
AcDbCircle
 10
21.23867334030504
 20
9.620192194989581
 30
0.0
 40
0.75
100
AcDbArc
 50
90.0
 51
180.0
  0
ARC
  5
50C8A
330
50D10
100
AcDbEntity
  8
OBJECT
100
AcDbCircle
 10
21.23867334030504
 20
9.620192194989581
 30
0.0
 40
0.72
100
AcDbArc
 50
90.0
 51
180.0
  0
CIRCLE
  5
50C8B
330
50D10
100
AcDbEntity
  8
OBJECT
100
AcDbCircle
 10
18.84186161474412
 20
7.963942194989581
 30
0.0
 40
0.09375
  0
LINE
  5
50C8C
330
50D10
100
AcDbEntity
  8
OBJECT
100
AcDbLine
 10
18.79019377696366
 20
7.885714980804931
 30
0.0
 11
18.91036791322347
 21
8.027941800993528
 31
0.0
  0
LINE
  5
50C8D
330
50D10
100
AcDbEntity
  8
OBJECT
100
AcDbLine
 10
18.76890303361574
 20
7.905068534157817
 30
0.0
 11
18.88773230080469
 21
8.045703693632486
 31
0.0
  0
LINE
  5
50C8E
330
50D10
100
AcDbEntity
  8
OBJECT
100
AcDbLine
 10
18.76890303361574
 20
9.155068534157817
 30
0.0
 11
18.88773230080469
 21
9.295703693632486
 31
0.0
  0
LINE
  5
50C8F
330
50D10
100
AcDbEntity
  8
OBJECT
100
AcDbLine
 10
18.79019377696366
 20
9.13571498080493
 30
0.0
 11
18.91036791322347
 21
9.277941800993528
 31
0.0
  0
CIRCLE
  5
50C90
330
50D10
100
AcDbEntity
  8
OBJECT
100
AcDbCircle
 10
18.84186161474412
 20
9.213942194989581
 30
0.0
 40
0.09375
  0
POINT
  5
50C91
330
50D10
100
AcDbEntity
  8
OBJECT
100
AcDbPoint
 10
18.84186161474412
 20
9.213942194989581
 30
0.0
  0
LINE
  5
50C92
330
50D10
100
AcDbEntity
  8
0
  6
ByBlock
 62
     1
100
AcDbLine
 10
19.36955666788567
 20
6.533942194989582
 30
0.0
 11
19.36955666788567
 21
6.353942194989582
 31
0.0
  0
LINE
  5
50C93
330
50D10
100
AcDbEntity
  8
0
  6
ByBlock
 62
     1
100
AcDbLine
 10
19.36955666788567
 20
7.893942194989581
 30
0.0
 11
19.36955666788567
 21
8.07394219498958
 31
0.0
  0
SOLID
  5
50C94
330
50D10
100
AcDbEntity
  8
0
  6
ByBlock
 62
     1
100
AcDbTrace
 10
19.33955666788567
 20
7.893942194989581
 30
0.0
 11
19.39955666788568
 21
7.893942194989581
 31
0.0
 12
19.36955666788567
 22
7.713942194989581
 32
0.0
 13
19.36955666788567
 23
7.713942194989581
 33
0.0
  0
TEXT
  5
50C95
330
50D10
100
AcDbEntity
  8
0
  6
ByBlock
 62
     1
100
AcDbText
 10
19.41216176290146
 20
7.01060065269402
 30
0.0
 40
0.1
  1
2.000
 50
90.0
  7
SIMPLEX
 72
     1
 11
19.36216176290146
 21
7.210600652694023
 31
0.0
100
AcDbText
 73
     2
  0
SOLID
  5
50C96
330
50D10
100
AcDbEntity
  8
0
  6
ByBlock
 62
     1
100
AcDbTrace
 10
19.33955666788567
 20
6.533942194989582
 30
0.0
 11
19.39955666788568
 21
6.533942194989582
 31
0.0
 12
19.36955666788567
 22
6.713942194989581
 32
0.0
 13
19.36955666788567
 23
6.713942194989581
 33
0.0
  0
LINE
  5
50C97
330
50D10
100
AcDbEntity
  8
HIDDEN2
100
AcDbLine
 10
20.59785781985477
 20
9.450347543660055
 30
0.0
 11
20.81882868897554
 21
9.229376674539278
 31
0.0
  0
LINE
  5
50C98
330
50D10
100
AcDbEntity
  8
HIDDEN2
100
AcDbLine
 10
20.98867334030507
 20
9.399221325868776
 30
0.0
 11
20.81882868897557
 21
9.229376674539278
 31
0.0
  0
LINE
  5
50C99
330
50D10
100
AcDbEntity
  8
OBJECT
100
AcDbLine
 10
20.48867334030504
 20
9.620192194989581
 30
0.0
 11
20.48867334030504
 21
7.743942194989579
 31
0.0
  0
LINE
  5
50C9A
330
50D10
100
AcDbEntity
  8
HIDDEN2
100
AcDbLine
 10
20.54867334030504
 20
9.620192194989581
 30
0.0
 11
20.54867334030504
 21
6.743942194989582
 31
0.0
  0
LINE
  5
50C9B
330
50D10
100
AcDbEntity
  8
OBJECT
100
AcDbLine
 10
20.51867334030504
 20
9.620192194989581
 30
0.0
 11
20.51867334030504
 21
6.713942194989581
 31
0.0
  0
LINE
  5
50C9C
330
50D10
100
AcDbEntity
  8
OBJECT
100
AcDbLine
 10
21.01867334030507
 20
9.620192194989581
 30
0.0
 11
21.01867334030504
 21
6.713942194989581
 31
0.0
  0
LINE
  5
50C9D
330
50D10
100
AcDbEntity
  8
HIDDEN2
100
AcDbLine
 10
20.51867334030504
 20
6.743942194989582
 30
0.0
 11
20.98867334030504
 21
6.743942194989582
 31
0.0
  0
LINE
  5
50C9E
330
50D10
100
AcDbEntity
  8
OBJECT
100
AcDbLine
 10
20.51867334030504
 20
6.713942194989581
 30
0.0
 11
21.01867334030504
 21
6.713942194989581
 31
0.0
  0
LINE
  5
50CA0
330
50D10
100
AcDbEntity
  8
HIDDEN2
100
AcDbLine
 10
20.98867334030504
 20
6.743942194989582
 30
0.0
 11
20.98867334030504
 21
6.713942194989581
 31
0.0
  0
LINE
  5
50CA1
330
50D10
100
AcDbEntity
  8
HIDDEN2
100
AcDbLine
 10
21.62948886075534
 20
10.04003684631908
 30
0.0
 11
21.45964420942582
 21
9.870192194989553
 31
0.0
  0
LINE
  5
50CA2
330
50D10
100
AcDbEntity
  8
HIDDEN2
100
AcDbLine
 10
21.40851799163454
 20
10.26100771543986
 30
0.0
 11
21.62948886075534
 21
10.04003684631908
 31
0.0
  0
LINE
  5
50CA3
330
50D10
100
AcDbEntity
  8
OBJECT
100
AcDbLine
 10
21.23867334030504
 20
10.09116306411039
 30
0.0
 11
20.76770247118426
 21
9.620192194989581
 31
0.0
  0
LINE
  5
50CA4
330
50D10
100
AcDbEntity
  8
OBJECT
100
AcDbLine
 10
21.01867334030507
 20
9.620192194989581
 30
0.0
 11
20.51867334030504
 21
9.620192194989581
 31
0.0
  0
LINE
  5
50CA5
330
50D10
100
AcDbEntity
  8
HIDDEN2
100
AcDbLine
 10
20.76770247118426
 20
9.620192194989581
 30
0.0
 11
20.59785781985477
 21
9.450347543660083
 31
0.0
  0
LINE
  5
50CA6
330
50D10
100
AcDbEntity
  8
OBJECT
100
AcDbLine
 10
21.45964420942585
 20
9.870192194989581
 30
0.0
 11
20.98867334030507
 21
9.399221325868776
 31
0.0
  0
LINE
  5
50CA7
330
50D10
100
AcDbEntity
  8
HIDDEN2
100
AcDbLine
 10
21.40851799163454
 20
10.26100771543986
 30
0.0
 11
21.23867334030504
 21
10.09116306411036
 31
0.0
  0
LINE
  5
50CA8
330
50D10
100
AcDbEntity
  8
OBJECT
100
AcDbLine
 10
18.76890303361574
 20
12.43159019617421
 30
0.0
 11
18.88773230080469
 21
12.57222535564888
 31
0.0
  0
LINE
  5
50CA9
330
50D10
100
AcDbEntity
  8
OBJECT
100
AcDbLine
 10
18.79019377696366
 20
12.41223664282132
 30
0.0
 11
18.91036791322347
 21
12.55446346300992
 31
0.0
  0
CIRCLE
  5
50CAA
330
50D10
100
AcDbEntity
  8
OBJECT
100
AcDbCircle
 10
18.84186161474412
 20
12.49046385700597
 30
0.0
 40
0.09375
  0
LINE
  5
50CAB
330
50D10
100
AcDbEntity
  8
OBJECT
100
AcDbLine
 10
18.76890303361574
 20
14.01492352950754
 30
0.0
 11
18.88773230080469
 21
14.15555868898221
 31
0.0
  0
LINE
  5
50CAC
330
50D10
100
AcDbEntity
  8
OBJECT
100
AcDbLine
 10
18.79019377696366
 20
13.99556997615465
 30
0.0
 11
18.91036791322347
 21
14.13779679634325
 31
0.0
  0
CIRCLE
  5
50CAD
330
50D10
100
AcDbEntity
  8
OBJECT
100
AcDbCircle
 10
18.84186161474412
 20
14.0737971903393
 30
0.0
 40
0.09375
  0
POINT
  5
50CAE
330
50D10
100
AcDbEntity
  8
OBJECT
100
AcDbPoint
 10
18.84186161474412
 20
14.0737971903393
 30
0.0
  0
LINE
  5
50CAF
330
50D10
100
AcDbEntity
  8
OBJECT
100
AcDbLine
 10
26.23968387194842
 20
9.84019219498958
 30
0.0
 11
26.23968387194842
 21
10.34019219498958
 31
0.0
  0
ARC
  5
50CB0
330
50D10
100
AcDbEntity
  8
OBJECT
100
AcDbCircle
 10
26.23968387194842
 20
9.620192194989581
 30
0.0
 40
0.72
100
AcDbArc
 50
0.0
 51
90.0
  0
ARC
  5
50CB1
330
50D10
100
AcDbEntity
  8
OBJECT
100
AcDbCircle
 10
26.23968387194842
 20
9.620192194989581
 30
0.0
 40
0.75
100
AcDbArc
 50
0.0
 51
90.0
  0
LINE
  5
50CB2
330
50D10
100
AcDbEntity
  8
OBJECT
100
AcDbLine
 10
26.01871300282764
 20
9.870192194989581
 30
0.0
 11
26.48968387194842
 21
9.399221325868776
 31
0.0
  0
LINE
  5
50CB3
330
50D10
100
AcDbEntity
  8
OBJECT
100
AcDbLine
 10
26.23968387194842
 20
10.09116306411039
 30
0.0
 11
26.71065474106922
 21
9.620192194989581
 31
0.0
  0
LINE
  5
50CB4
330
50D10
100
AcDbEntity
  8
HIDDEN2
100
AcDbLine
 10
25.84886835149814
 20
10.04003684631908
 30
0.0
 11
26.01871300282764
 21
9.870192194989553
 31
0.0
  0
LINE
  5
50CB5
330
50D10
100
AcDbEntity
  8
HIDDEN2
100
AcDbLine
 10
26.06983922061892
 20
10.26100771543986
 30
0.0
 11
25.84886835149814
 21
10.04003684631908
 31
0.0
  0
LINE
  5
50CB6
330
50D10
100
AcDbEntity
  8
HIDDEN2
100
AcDbLine
 10
26.06983922061892
 20
10.26100771543986
 30
0.0
 11
26.23968387194844
 21
10.09116306411036
 31
0.0
  0
LINE
  5
50CB7
330
50D10
100
AcDbEntity
  8
HIDDEN2
100
AcDbLine
 10
26.88049939239872
 20
9.450347543660055
 30
0.0
 11
26.65952852327791
 21
9.229376674539278
 31
0.0
  0
LINE
  5
50CB8
330
50D10
100
AcDbEntity
  8
HIDDEN2
100
AcDbLine
 10
26.48968387194842
 20
9.399221325868776
 30
0.0
 11
26.65952852327791
 21
9.229376674539278
 31
0.0
  0
LINE
  5
50CB9
330
50D10
100
AcDbEntity
  8
OBJECT
100
AcDbLine
 10
26.98968387194842
 20
9.620192194989581
 30
0.0
 11
26.98968387194842
 21
6.743942194989554
 31
0.0
  0
LINE
  5
50CBA
330
50D10
100
AcDbEntity
  8
HIDDEN2
100
AcDbLine
 10
26.92968387194841
 20
9.620192194989581
 30
0.0
 11
26.92968387194841
 21
6.743942194989554
 31
0.0
  0
LINE
  5
50CBB
330
50D10
100
AcDbEntity
  8
OBJECT
100
AcDbLine
 10
26.95968387194841
 20
9.620192194989581
 30
0.0
 11
26.95968387194841
 21
6.713942194989553
 31
0.0
  0
LINE
  5
50CBC
330
50D10
100
AcDbEntity
  8
OBJECT
100
AcDbLine
 10
26.45968387194841
 20
9.620192194989581
 30
0.0
 11
26.45968387194841
 21
6.713942194989553
 31
0.0
  0
ARC
  5
50CBD
330
50D10
100
AcDbEntity
  8
OBJECT
100
AcDbCircle
 10
26.95968387194841
 20
6.743942194989554
 30
0.0
 40
0.03
100
AcDbArc
 50
270.0
 51
0.0
  0
LINE
  5
50CBE
330
50D10
100
AcDbEntity
  8
HIDDEN2
100
AcDbLine
 10
26.48968387194842
 20
6.743942194989554
 30
0.0
 11
26.48968387194842
 21
6.713942194989553
 31
0.0
  0
LINE
  5
50CBF
330
50D10
100
AcDbEntity
  8
HIDDEN2
100
AcDbLine
 10
26.95968387194841
 20
6.743942194989554
 30
0.0
 11
26.48968387194842
 21
6.743942194989554
 31
0.0
  0
LINE
  5
50CC0
330
50D10
100
AcDbEntity
  8
OBJECT
100
AcDbLine
 10
26.45968387194841
 20
6.713942194989553
 30
0.0
 11
26.95968387194841
 21
6.713942194989553
 31
0.0
  0
LINE
  5
50CC1
330
50D10
100
AcDbEntity
  8
HIDDEN2
100
AcDbLine
 10
26.71065474106919
 20
9.620192194989581
 30
0.0
 11
26.88049939239869
 21
9.450347543660083
 31
0.0
  0
LINE
  5
50CC2
330
50D10
100
AcDbEntity
  8
OBJECT
100
AcDbLine
 10
26.45968387194841
 20
9.620192194989581
 30
0.0
 11
26.95968387194841
 21
9.620192194989581
 31
0.0
  0
LINE
  5
50CC3
330
50D10
100
AcDbEntity
  8
OBJECT
100
AcDbLine
 10
18.79019377696366
 20
17.16223664282132
 30
0.0
 11
18.91036791322347
 21
17.30446346300992
 31
0.0
  0
LINE
  5
50CC4
330
50D10
100
AcDbEntity
  8
OBJECT
100
AcDbLine
 10
18.76890303361574
 20
17.18159019617421
 30
0.0
 11
18.88773230080469
 21
17.32222535564888
 31
0.0
  0
CIRCLE
  5
50CC5
330
50D10
100
AcDbEntity
  8
OBJECT
100
AcDbCircle
 10
18.84186161474412
 20
17.24046385700597
 30
0.0
 40
0.09375
  0
LINE
  5
50CC6
330
50D10
100
AcDbEntity
  8
OBJECT
100
AcDbLine
 10
18.76890303361574
 20
15.59825686284088
 30
0.0
 11
18.88773230080469
 21
15.73889202231555
 31
0.0
  0
LINE
  5
50CC7
330
50D10
100
AcDbEntity
  8
OBJECT
100
AcDbLine
 10
18.79019377696366
 20
15.57890330948799
 30
0.0
 11
18.91036791322347
 21
15.72113012967659
 31
0.0
  0
CIRCLE
  5
50CC8
330
50D10
100
AcDbEntity
  8
OBJECT
100
AcDbCircle
 10
18.84186161474412
 20
15.65713052367265
 30
0.0
 40
0.09375
  0
POINT
  5
50CC9
330
50D10
100
AcDbEntity
  8
OBJECT
100
AcDbPoint
 10
18.84186161474412
 20
15.65713052367265
 30
0.0
  0
ARC
  5
50CCD
330
50D10
100
AcDbEntity
  8
OBJECT
100
AcDbCircle
 10
20.51867334030504
 20
7.743942194989579
 30
0.0
 40
0.030000000000002
100
AcDbArc
 50
180.0
 51
270.0
  0
LINE
  5
50CCE
330
50D10
100
AcDbEntity
  8
OBJECT
100
AcDbLine
 10
18.59186161474412
 20
7.713942194989576
 30
0.0
 11
18.59186161474412
 21
6.713942194989581
 31
0.0
  0
LINE
  5
50CCF
330
50D10
100
AcDbEntity
  8
OBJECT
100
AcDbLine
 10
4.685611614744122
 20
7.713942194989576
 30
0.0
 11
4.685611614744122
 21
6.713942194989581
 31
0.0
  0
SOLID
  5
50CD0
330
50D10
100
AcDbEntity
  8
DIM
 62
     1
100
AcDbTrace
 10
8.92924045094007
 20
7.558911616406075
 30
0.0
 11
8.984723750458697
 21
7.536072976461317
 31
0.0
 12
9.025498020533655
 22
7.713942194989579
 32
0.0
 13
9.025498020533655
 23
7.713942194989579
 33
0.0
  0
LINE
  5
50CD1
330
50D10
100
AcDbEntity
  8
DIM
 62
     1
100
AcDbLine
 10
8.956982100699383
 20
7.547492296433696
 30
0.0
 11
8.293299471342893
 21
5.935167648426401
 31
0.0
  0
LINE
  5
50CD2
330
50D10
100
AcDbEntity
  8
DIM
 62
     1
100
AcDbLine
 10
8.293299471342891
 20
5.935167648426402
 30
0.0
 11
8.113299471342891
 21
5.935167648426402
 31
0.0
  0
INSERT
  5
50CF1
330
50D10
100
AcDbEntity
  8
DIM
100
AcDbBlockReference
 66
     1
  2
P-TITLE
 10
12.87444935272908
 20
4.639262576320814
 30
0.0
1001
AEC_XDATA_BOUND_SPACE
1070
   100
1070
     1
  0
ATTRIB
  5
50CF2
330
50CF1
100
AcDbEntity
  8
OBJECT
100
AcDbText
 10
12.34944935272908
 20
2.951762576320814
 30
0.0
 40
0.1
  1
HALF SIZE
  7
ROMANS
100
AcDbAttribute
  2
SCALE
 70
     0
280
     0
  0
ATTRIB
  5
50CF3
330
50CF1
100
AcDbEntity
  8
OBJECT
100
AcDbText
 10
12.27444935272908
 20
3.201282461243332
 30
0.0
 40
0.1
  1
ONE
  7
ROMANS
100
AcDbAttribute
  2
#_REQUIRED
 70
     0
280
     0
  0
ATTRIB
  5
50CF4
330
50CF1
100
AcDbEntity
  8
OBJECT
100
AcDbText
 10
12.54944935272908
 20
3.451762576320814
 30
0.0
 40
0.1
  1
20 GAGE PAINTCOTE
  7
ROMANS
100
AcDbAttribute
  2
MATERIAL
 70
     0
280
     0
  0
ATTRIB
  5
50CF5
330
50CF1
100
AcDbEntity
  8
OBJECT
100
AcDbText
 10
11.50194935272908
 20
4.041762576320814
 30
0.0
 40
0.12
  1
G
  7
ROMANS
 72
     4
 11
11.56194935272908
 21
4.101762576320814
 31
0.0
100
AcDbAttribute
  2
NO.
 70
     0
280
     0
  0
ATTRIB
  5
50CF6
330
50CF1
100
AcDbEntity
  8
OBJECT
100
AcDbText
 10
11.88694935272908
 20
3.926762576320814
 30
0.0
 40
0.15
  1
RIGHT DRUM COVER
  7
ROMANS
100
AcDbAttribute
  2
DESCRIPTION
 70
     0
280
     0
  0
ATTRIB
  5
50CF7
330
50CF1
100
AcDbEntity
  8
OBJECT
100
AcDbText
 10
11.46480649558623
 20
3.841762576320813
 30
0.0
 40
0.12
  1
01
  7
ROMANS
 72
     4
 11
11.56194935272908
 21
3.901762576320813
 31
0.0
100
AcDbAttribute
  2
PAGE
 70
     0
280
     0
  0
SEQEND
  5
50CF8
330
50CF1
100
AcDbEntity
  8
DIM
  0
VIEWPORT
  5
1
330
50D0D
100
AcDbEntity
 67
     1
  8
0
100
AcDbViewport
 10
18.34877859429337
 20
12.65844242856079
 30
0.0
 40
36.69755718858674
 41
25.31688485712159
 68
     1
 69
     1
 12
18.34877859429337
 22
12.65844242856079
 13
0.0
 23
0.0
 14
1.0
 24
1.0
 15
0.0
 25
0.0
 16
0.0
 26
0.0
 36
1.0
 17
0.0
 27
0.0
 37
0.0
 42
50.0
 43
0.0
 44
0.0
 45
25.31688485712159
 50
0.0
 51
0.0
 72
   100
 90
    33056
  1

281
     0
 71
     1
 74
     0
110
0.0
120
0.0
130
0.0
111
1.0
121
0.0
131
0.0
112
0.0
122
1.0
132
0.0
 79
     0
146
0.0
170
     0
 61
     5
348
50D83
292
     1
282
     1
141
0.0
142
0.0
 63
   250
421
  3355443
  0
ENDSEC
  0
SECTION
  2
OBJECTS
  0
DICTIONARY
  5
50D04
330
0
100
AcDbDictionary
281
     1
  3
ACAD_CIP_PREVIOUS_PRODUCT_INFO
350
50DB7
  3
ACAD_COLOR
350
50D96
  3
ACAD_DETAILVIEWSTYLE
350
50DAD
  3
ACAD_GROUP
350
50D05
  3
ACAD_IMAGE_VARS
350
50E23
  3
ACAD_LAYOUT
350
50DAF
  3
ACAD_MATERIAL
350
50D64
  3
ACAD_MLEADERSTYLE
350
50DA9
  3
ACAD_MLINESTYLE
350
50D06
  3
ACAD_PLOTSETTINGS
350
50DB0
  3
ACAD_PLOTSTYLENAME
350
50D62
  3
ACAD_SCALELIST
350
50D99
  3
ACAD_SECTIONVIEWSTYLE
350
50DAB
  3
ACAD_TABLESTYLE
350
50D97
  3
ACAD_VISUALSTYLE
350
50D7D
  3
ACDB_RECOMPOSE_DATA
350
50E26
  3
AcDbVariableDictionary
350
50DE5
  3
APPDATA
350
50E22
  0
DICTIONARY
  5
50DCA
330
50CFA
100
AcDbDictionary
280
     1
281
     1
  3
ACAD_LAYERSTATES
360
50DCB
  0
DICTIONARY
  5
50DBB
330
50D07
100
AcDbDictionary
280
     1
281
     1
  3
ADSK_XREC_LAYER_RECONCILED
360
50DBC
  0
DICTIONARY
  5
50DBD
330
50D49
100
AcDbDictionary
280
     1
281
     1
  3
ADSK_XREC_LAYER_RECONCILED
360
50DBE
  0
DICTIONARY
  5
50DBF
330
50D4A
100
AcDbDictionary
280
     1
281
     1
  3
ADSK_XREC_LAYER_RECONCILED
360
50DC0
  0
DICTIONARY
  5
50DC1
330
50D4D
100
AcDbDictionary
280
     1
281
     1
  3
ADSK_XREC_LAYER_RECONCILED
360
50DC2
  0
DICTIONARY
  5
50DC3
330
50D4F
100
AcDbDictionary
280
     1
281
     1
  3
ADSK_XREC_LAYER_RECONCILED
360
50DC4
  0
DICTIONARY
  5
50DC5
330
50D53
100
AcDbDictionary
280
     1
281
     1
  3
ADSK_XREC_LAYER_RECONCILED
360
50DC6
  0
XRECORD
  5
50DB7
102
{ACAD_REACTORS
330
50D04
102
}
330
50D04
100
AcDbXrecord
280
     1
300
ARCHDESK
300
2014
300
EMS_F_S
  0
DICTIONARY
  5
50D96
102
{ACAD_REACTORS
330
50D04
102
}
330
50D04
100
AcDbDictionary
281
     1
  0
DICTIONARY
  5
50DAD
102
{ACAD_REACTORS
330
50D04
102
}
330
50D04
100
AcDbDictionary
281
     1
  3
Imperial24
350
50DAE
  0
DICTIONARY
  5
50D05
102
{ACAD_REACTORS
330
50D04
102
}
330
50D04
100
AcDbDictionary
281
     1
  0
RASTERVARIABLES
  5
50E23
102
{ACAD_REACTORS
330
50D04
102
}
330
50D04
100
AcDbRasterVariables
 90
        0
 70
     1
 71
     1
 72
     0
  0
DICTIONARY
  5
50DAF
102
{ACAD_REACTORS
330
50D04
102
}
330
50D04
100
AcDbDictionary
281
     1
  3
Layout1
350
50DB2
  3
Model
350
50DB1
  0
DICTIONARY
  5
50D64
102
{ACAD_REACTORS
330
50D04
102
}
330
50D04
100
AcDbDictionary
281
     1
  3
ByBlock
350
50D6D
  3
ByLayer
350
50D65
  3
Global
350
50D75
  0
DICTIONARY
  5
50DA9
102
{ACAD_REACTORS
330
50D04
102
}
330
50D04
100
AcDbDictionary
281
     1
  3
Standard
350
50DAA
  0
DICTIONARY
  5
50D06
102
{ACAD_REACTORS
330
50D04
102
}
330
50D04
100
AcDbDictionary
281
     1
  3
STANDARD
350
50D13
  0
DICTIONARY
  5
50DB0
102
{ACAD_REACTORS
330
50D04
102
}
330
50D04
100
AcDbDictionary
281
     1
  0
ACDBDICTIONARYWDFLT
  5
50D62
102
{ACAD_REACTORS
330
50D04
102
}
330
50D04
100
AcDbDictionary
281
     1
  3
Normal
350
50D63
100
AcDbDictionaryWithDefault
340
50D63
  0
DICTIONARY
  5
50D99
102
{ACAD_REACTORS
330
50D04
102
}
330
50D04
100
AcDbDictionary
281
     1
  3
A0
350
50D9A
  3
A1
350
50D9B
  3
A2
350
50D9C
  3
A3
350
50D9D
  3
A4
350
50D9E
  3
A5
350
50D9F
  3
A6
350
50DA0
  3
A7
350
50DA1
  3
A8
350
50DA2
  3
A9
350
50DA3
  3
B0
350
50DA4
  3
B1
350
50DA5
  3
B2
350
50DA6
  3
B3
350
50DA7
  3
B4
350
50DA8
  0
DICTIONARY
  5
50DAB
102
{ACAD_REACTORS
330
50D04
102
}
330
50D04
100
AcDbDictionary
281
     1
  3
Imperial24
350
50DAC
  0
DICTIONARY
  5
50D97
102
{ACAD_REACTORS
330
50D04
102
}
330
50D04
100
AcDbDictionary
281
     1
  3
Standard
350
50D98
  0
DICTIONARY
  5
50D7D
102
{ACAD_REACTORS
330
50D04
102
}
330
50D04
100
AcDbDictionary
281
     1
  3
2dWireframe
350
50D83
  3
Basic
350
50D82
  3
Brighten
350
50D89
  3
ColorChange
350
50D8D
  3
Conceptual
350
50D86
  3
Dim
350
50D88
  3
EdgeColorOff
350
50D95
  3
Facepattern
350
50D8C
  3
Flat
350
50D7E
  3
FlatWithEdges
350
50D7F
  3
Gouraud
350
50D80
  3
GouraudWithEdges
350
50D81
  3
Hidden
350
50D85
  3
JitterOff
350
50D93
  3
Linepattern
350
50D8B
  3
OverhangOff
350
50D94
  3
Realistic
350
50D87
  3
Shaded
350
50D92
  3
Shaded with edges
350
50D91
  3
Shades of Gray
350
50D8E
  3
Sketchy
350
50D8F
  3
Thicken
350
50D8A
  3
Wireframe
350
50D84
  3
X-Ray
350
50D90
  0
XRECORD
  5
50E26
102
{ACAD_REACTORS
330
50D04
102
}
330
50D04
100
AcDbXrecord
280
     1
 90
        1
330
50D98
  0
DICTIONARY
  5
50DE5
102
{ACAD_REACTORS
330
50D04
102
}
330
50D04
100
AcDbDictionary
281
     1
  3
CANNOSCALE
350
50DEB
  3
CMLEADERSTYLE
350
50DE7
  3
CTABLESTYLE
350
50DE6
  3
CVIEWDETAILSTYLE
350
50DE8
  3
CVIEWSECTIONSTYLE
350
50DE9
  3
LAYEREVAL
350
50DED
  3
LAYERNOTIFY
350
50DEE
  3
LIGHTINGUNITS
350
50DEC
  3
MSLTSCALE
350
50DEA
  0
DICTIONARY
  5
50E22
102
{ACAD_REACTORS
330
50D04
102
}
330
50D04
100
AcDbDictionary
281
     1
  0
DICTIONARY
  5
50DCB
102
{ACAD_REACTORS
330
50DCA
102
}
330
50DCA
100
AcDbDictionary
281
     1
  0
XRECORD
  5
50DBC
102
{ACAD_REACTORS
330
50DBB
102
}
330
50DBB
100
AcDbXrecord
280
     1
290
     1
  0
XRECORD
  5
50DBE
102
{ACAD_REACTORS
330
50DBD
102
}
330
50DBD
100
AcDbXrecord
280
     1
290
     1
  0
XRECORD
  5
50DC0
102
{ACAD_REACTORS
330
50DBF
102
}
330
50DBF
100
AcDbXrecord
280
     1
290
     1
  0
XRECORD
  5
50DC2
102
{ACAD_REACTORS
330
50DC1
102
}
330
50DC1
100
AcDbXrecord
280
     1
290
     1
  0
XRECORD
  5
50DC4
102
{ACAD_REACTORS
330
50DC3
102
}
330
50DC3
100
AcDbXrecord
280
     1
290
     1
  0
XRECORD
  5
50DC6
102
{ACAD_REACTORS
330
50DC5
102
}
330
50DC5
100
AcDbXrecord
280
     1
290
     1
  0
ACAD_PROXY_OBJECT
  5
50DAE
102
{ACAD_REACTORS
330
50DAD
102
}
102
{ACAD_XDICTIONARY
360
50DE2
102
}
330
50DAD
100
AcDbProxyObject
 90
      499
 91
      507
 95
  3735583
 70
     0
162
              1622
311
4292401B401C0019401C801A4018401B000C800D0025689400F001700104018C0158018401C80080015801A4019401DC015001E401C0019400800170019800800088009401D0018C00C4008800F800940080009400F001700104018C0158018401C80080015801A4019401DC0110019401D0018401A401B00124019000F800
311
9401700140014C010C0104013001140080009400F001700104018C0158018401C80080015801A4019401DC014C018C018401B0019400800170019800800088009401CC01B8008800F8009400
161
               675
310
9207000000180005C0F42F5A8DC671F815AF46E07A15AE7E07000000180005C0F42F5A8DC671FA3300000018001000000180005C0F42F5A8DC671FA02000000000000741FA028CC000000600023300000018000000
340
50D08
340
0
340
50D0C
340
50D08
340
50D0C
340
50D0C
 94
        0
  0
LAYOUT
  5
50DB2
102
{ACAD_REACTORS
330
50DAF
102
}
330
50DAF
100
AcDbPlotSettings
  1

  2
HP LaserJet 1320 PCL 5
  4

  6

 40
0.0
 41
0.0
 42
0.0
 43
0.0
 44
0.0
 45
0.0
 46
0.0
 47
0.0
 48
0.0
 49
0.0
140
0.0
141
0.0
142
1.0
143
1.0
 70
   688
 72
     0
 73
     0
 74
     5
  7

 75
    16
 76
     0
 77
     2
 78
   300
147
1.0
148
0.0
149
0.0
100
AcDbLayout
  1
Layout1
 70
     1
 71
     1
 10
0.0
 20
0.0
 11
12.0
 21
9.0
 12
0.0
 22
0.0
 32
0.0
 14
14.0
 24
6.0
 34
0.0
 15
20.0
 25
10.0
 35
0.0
146
0.0
 13
0.0
 23
0.0
 33
0.0
 16
1.0
 26
0.0
 36
0.0
 17
0.0
 27
1.0
 37
0.0
 76
     0
330
50D0D
331
1
  0
LAYOUT
  5
50DB1
102
{ACAD_REACTORS
330
50DAF
102
}
330
50DAF
100
AcDbPlotSettings
  1

  2
HP LaserJet 1320 PCL 5
  4

  6

 40
0.0
 41
0.0
 42
0.0
 43
0.0
 44
0.0
 45
0.0
 46
0.0
 47
0.0
 48
0.0
 49
0.0
140
0.0
141
0.0
142
1.0
143
1.0
 70
  1712
 72
     0
 73
     0
 74
     0
  7

 75
     0
 76
     0
 77
     2
 78
   300
147
1.0
148
0.0
149
0.0
100
AcDbLayout
  1
Model
 70
     1
 71
     0
 10
0.0
 20
0.0
 11
12.0
 21
9.0
 12
0.0
 22
0.0
 32
0.0
 14
0.0
 24
0.0
 34
0.0
 15
0.0
 25
0.0
 35
0.0
146
0.0
 13
0.0
 23
0.0
 33
0.0
 16
1.0
 26
0.0
 36
0.0
 17
0.0
 27
1.0
 37
0.0
 76
     0
330
50D10
331
50D60
  0
MATERIAL
  5
50D6D
102
{ACAD_REACTORS
330
50D64
102
}
330
50D64
100
AcDbMaterial
  1
ByBlock
 72
     0
 73
     2
 43
0.0208333333333333
 43
0.0
 43
0.0
 43
0.0
 43
0.0
 43
0.0208333333333333
 43
0.0
 43
0.0
 43
0.0
 43
0.0
 43
1.0
 43
0.0
 43
0.0
 43
0.0
 43
0.0
 43
1.0
 77
     0
 78
     2
 47
0.0208333333333333
 47
0.0
 47
0.0
 47
0.0
 47
0.0
 47
0.0208333333333333
 47
0.0
 47
0.0
 47
0.0
 47
0.0
 47
1.0
 47
0.0
 47
0.0
 47
0.0
 47
0.0
 47
1.0
171
     0
172
     2
 49
0.0208333333333333
 49
0.0
 49
0.0
 49
0.0
 49
0.0
 49
0.0208333333333333
 49
0.0
 49
0.0
 49
0.0
 49
0.0
 49
1.0
 49
0.0
 49
0.0
 49
0.0
 49
0.0
 49
1.0
175
     0
176
     2
142
0.0208333333333333
142
0.0
142
0.0
142
0.0
142
0.0
142
0.0208333333333333
142
0.0
142
0.0
142
0.0
142
0.0
142
1.0
142
0.0
142
0.0
142
0.0
142
0.0
142
1.0
179
     0
270
     2
144
0.0208333333333333
144
0.0
144
0.0
144
0.0
144
0.0
144
0.0208333333333333
144
0.0
144
0.0
144
0.0
144
0.0
144
1.0
144
0.0
144
0.0
144
0.0
144
0.0
144
1.0
274
     2
147
0.0208333333333333
147
0.0
147
0.0
147
0.0
147
0.0
147
0.0208333333333333
147
0.0
147
0.0
147
0.0
147
0.0
147
1.0
147
0.0
147
0.0
147
0.0
147
0.0
147
1.0
 94
      127
  0
MATERIAL
  5
50D65
102
{ACAD_REACTORS
330
50D64
102
}
330
50D64
100
AcDbMaterial
  1
ByLayer
 72
     0
 73
     2
 43
0.0208333333333333
 43
0.0
 43
0.0
 43
0.0
 43
0.0
 43
0.0208333333333333
 43
0.0
 43
0.0
 43
0.0
 43
0.0
 43
1.0
 43
0.0
 43
0.0
 43
0.0
 43
0.0
 43
1.0
 77
     0
 78
     2
 47
0.0208333333333333
 47
0.0
 47
0.0
 47
0.0
 47
0.0
 47
0.0208333333333333
 47
0.0
 47
0.0
 47
0.0
 47
0.0
 47
1.0
 47
0.0
 47
0.0
 47
0.0
 47
0.0
 47
1.0
171
     0
172
     2
 49
0.0208333333333333
 49
0.0
 49
0.0
 49
0.0
 49
0.0
 49
0.0208333333333333
 49
0.0
 49
0.0
 49
0.0
 49
0.0
 49
1.0
 49
0.0
 49
0.0
 49
0.0
 49
0.0
 49
1.0
175
     0
176
     2
142
0.0208333333333333
142
0.0
142
0.0
142
0.0
142
0.0
142
0.0208333333333333
142
0.0
142
0.0
142
0.0
142
0.0
142
1.0
142
0.0
142
0.0
142
0.0
142
0.0
142
1.0
179
     0
270
     2
144
0.0208333333333333
144
0.0
144
0.0
144
0.0
144
0.0
144
0.0208333333333333
144
0.0
144
0.0
144
0.0
144
0.0
144
1.0
144
0.0
144
0.0
144
0.0
144
0.0
144
1.0
274
     2
147
0.0208333333333333
147
0.0
147
0.0
147
0.0
147
0.0
147
0.0208333333333333
147
0.0
147
0.0
147
0.0
147
0.0
147
1.0
147
0.0
147
0.0
147
0.0
147
0.0
147
1.0
 94
      127
  0
MATERIAL
  5
50D75
102
{ACAD_REACTORS
330
50D64
102
}
330
50D64
100
AcDbMaterial
  1
Global
 72
     0
 73
     2
 43
0.0208333333333333
 43
0.0
 43
0.0
 43
0.0
 43
0.0
 43
0.0208333333333333
 43
0.0
 43
0.0
 43
0.0
 43
0.0
 43
1.0
 43
0.0
 43
0.0
 43
0.0
 43
0.0
 43
1.0
 77
     0
 78
     2
 47
0.0208333333333333
 47
0.0
 47
0.0
 47
0.0
 47
0.0
 47
0.0208333333333333
 47
0.0
 47
0.0
 47
0.0
 47
0.0
 47
1.0
 47
0.0
 47
0.0
 47
0.0
 47
0.0
 47
1.0
171
     0
172
     2
 49
0.0208333333333333
 49
0.0
 49
0.0
 49
0.0
 49
0.0
 49
0.0208333333333333
 49
0.0
 49
0.0
 49
0.0
 49
0.0
 49
1.0
 49
0.0
 49
0.0
 49
0.0
 49
0.0
 49
1.0
175
     0
176
     2
142
0.0208333333333333
142
0.0
142
0.0
142
0.0
142
0.0
142
0.0208333333333333
142
0.0
142
0.0
142
0.0
142
0.0
142
1.0
142
0.0
142
0.0
142
0.0
142
0.0
142
1.0
179
     0
270
     2
144
0.0208333333333333
144
0.0
144
0.0
144
0.0
144
0.0
144
0.0208333333333333
144
0.0
144
0.0
144
0.0
144
0.0
144
1.0
144
0.0
144
0.0
144
0.0
144
0.0
144
1.0
274
     2
147
0.0208333333333333
147
0.0
147
0.0
147
0.0
147
0.0
147
0.0208333333333333
147
0.0
147
0.0
147
0.0
147
0.0
147
1.0
147
0.0
147
0.0
147
0.0
147
0.0
147
1.0
 94
      127
  0
MLEADERSTYLE
  5
50DAA
102
{ACAD_REACTORS
330
50DA9
102
}
330
50DA9
100
AcDbMLeaderStyle
179
     2
170
     2
171
     1
172
     0
 90
        2
 40
0.0
 41
0.0
173
     1
 91
-1056964608
340
50D0A
 92
       -2
290
     1
 42
0.09
291
     1
 43
0.36
  3
Standard
341
0
 44
0.18
300

342
50D08
174
     1
178
     6
175
     1
176
     0
 93
-1056964608
 45
0.18
292
     0
297
     0
 46
0.18
343
0
 94
-1056964608
 47
1.0
 49
1.0
140
1.0
293
     1
141
0.0
294
     1
177
     0
142
1.0
295
     0
296
     1
143
0.125
271
     0
272
     9
273
     9
1001
ACAD_MLEADERVER
1070
     2
  0
MLINESTYLE
  5
50D13
102
{ACAD_REACTORS
330
50D06
102
}
330
50D06
100
AcDbMlineStyle
  2
STANDARD
 70
     0
  3

 62
     0
 51
90.0
 52
90.0
 71
     2
 49
0.5
 62
   256
  6
BYLAYER
 49
-0.5
 62
   256
  6
BYLAYER
  0
ACDBPLACEHOLDER
  5
50D63
102
{ACAD_REACTORS
330
50D62
102
}
330
50D62
  0
SCALE
  5
50D9A
102
{ACAD_REACTORS
330
50D99
102
}
330
50D99
100
AcDbScale
 70
     0
300
1/64" = 1'-0"
140
0.015625
141
12.0
290
     0
  0
SCALE
  5
50D9B
102
{ACAD_REACTORS
330
50D99
102
}
330
50D99
100
AcDbScale
 70
     0
300
1/32" = 1'-0"
140
0.03125
141
12.0
290
     0
  0
SCALE
  5
50D9C
102
{ACAD_REACTORS
330
50D99
102
}
330
50D99
100
AcDbScale
 70
     0
300
1/16" = 1'-0"
140
0.0625
141
12.0
290
     0
  0
SCALE
  5
50D9D
102
{ACAD_REACTORS
330
50D99
102
}
330
50D99
100
AcDbScale
 70
     0
300
3/32" = 1'-0"
140
0.09375
141
12.0
290
     0
  0
SCALE
  5
50D9E
102
{ACAD_REACTORS
330
50D99
102
}
330
50D99
100
AcDbScale
 70
     0
300
1/8" = 1'-0"
140
0.125
141
12.0
290
     0
  0
SCALE
  5
50D9F
102
{ACAD_REACTORS
330
50D99
102
}
330
50D99
100
AcDbScale
 70
     0
300
3/16" = 1'-0"
140
0.1875
141
12.0
290
     0
  0
SCALE
  5
50DA0
102
{ACAD_REACTORS
330
50D99
102
}
330
50D99
100
AcDbScale
 70
     0
300
1/4" = 1'-0"
140
0.25
141
12.0
290
     0
  0
SCALE
  5
50DA1
102
{ACAD_REACTORS
330
50D99
102
}
330
50D99
100
AcDbScale
 70
     0
300
3/8" = 1'-0"
140
0.375
141
12.0
290
     0
  0
SCALE
  5
50DA2
102
{ACAD_REACTORS
330
50D99
102
}
330
50D99
100
AcDbScale
 70
     0
300
1/2" = 1'-0"
140
0.5
141
12.0
290
     0
  0
SCALE
  5
50DA3
102
{ACAD_REACTORS
330
50D99
102
}
330
50D99
100
AcDbScale
 70
     0
300
3/4" = 1'-0"
140
0.75
141
12.0
290
     0
  0
SCALE
  5
50DA4
102
{ACAD_REACTORS
330
50D99
102
}
330
50D99
100
AcDbScale
 70
     0
300
1" = 1'-0"
140
1.0
141
12.0
290
     0
  0
SCALE
  5
50DA5
102
{ACAD_REACTORS
330
50D99
102
}
330
50D99
100
AcDbScale
 70
     0
300
1 1/2" = 1'-0"
140
1.5
141
12.0
290
     0
  0
SCALE
  5
50DA6
102
{ACAD_REACTORS
330
50D99
102
}
330
50D99
100
AcDbScale
 70
     0
300
3" = 1'-0"
140
3.0
141
12.0
290
     0
  0
SCALE
  5
50DA7
102
{ACAD_REACTORS
330
50D99
102
}
330
50D99
100
AcDbScale
 70
     0
300
6" = 1'-0"
140
6.0
141
12.0
290
     0
  0
SCALE
  5
50DA8
102
{ACAD_REACTORS
330
50D99
102
}
330
50D99
100
AcDbScale
 70
     0
300
1'-0" = 1'-0"
140
12.0
141
12.0
290
     1
  0
ACAD_PROXY_OBJECT
  5
50DAC
102
{ACAD_REACTORS
330
50DAB
102
}
102
{ACAD_XDICTIONARY
360
50DE0
102
}
330
50DAB
100
AcDbProxyObject
 90
      499
 91
      506
 95
  3735583
 70
     0
162
              2536
311
4292401B401C0019401C801A4018401B000C800D0011049002C0020004F002C00200051002C00200053002C00200058002C0020005A005F09400F001700104018C0158018401C80080015801A4019401DC015001E401C0019400800170019800800088009401D0018C00C4008800F800940080009400F001700104018C0158
311
018401C80080015801A4019401DC014C0194018C01D001A401BC01B8014C01D0018401C801D00124019000F8009400B4009400F001700104018C0158018401C80080015801A4019401DC014C0194018C01D001A401BC01B8011401B801900124019000F8009401700140014C010C0104013001140080009400F00170010401
311
8C0158018401C80080015801A4019401DC014C018C018401B0019400800170019800800088009401CC01B8008800F80094010641004E005300490033003100
161
              1261
310
929D000000180005C0F42F5A8DC671FC00000060001703D0BD6A3719C7E5C0F42F5A8DC6F1FA330000001800099400000060001703D0BD6A3719C7E5C0F42F5A8DC671FC00000060001703D0BD6A3719C7E808000000000001D07E80C0000006000400000064003081815AF46E07A158E7E80C8340C16A22A7D90FC9F8CAE6
310
5A70A583A07E1FE81C635378FA1F8CAE65A70A583A17E7944A7F127A97E9F8
340
50D08
340
0
340
0
340
50D0C
340
50D0C
340
50D08
 94
        0
  0
TABLESTYLE
  5
50D98
102
{ACAD_REACTORS
330
50D97
102
}
102
{ACAD_XDICTIONARY
360
50E24
102
}
330
50D97
100
AcDbTableStyle
  3
Standard
 70
     0
 71
     0
 40
0.06
 41
0.06
280
     0
281
     0
  7
STANDARD
140
0.18
170
     2
 62
     0
 63
   257
283
     0
 90
      512
 91
        0
  1

274
    -2
284
     1
 64
     0
275
    -2
285
     1
 65
     0
276
    -2
286
     1
 66
     0
277
    -2
287
     1
 67
     0
278
    -2
288
     1
 68
     0
279
    -2
289
     1
 69
     0
  7
STANDARD
140
0.25
170
     5
 62
     0
 63
   257
283
     0
 90
      512
 91
        0
  1

274
    -2
284
     1
 64
     0
275
    -2
285
     1
 65
     0
276
    -2
286
     1
 66
     0
277
    -2
287
     1
 67
     0
278
    -2
288
     1
 68
     0
279
    -2
289
     1
 69
     0
  7
STANDARD
140
0.18
170
     5
 62
     0
 63
   257
283
     0
 90
      512
 91
        0
  1

274
    -2
284
     1
 64
     0
275
    -2
285
     1
 65
     0
276
    -2
286
     1
 66
     0
277
    -2
287
     1
 67
     0
278
    -2
288
     1
 68
     0
279
    -2
289
     1
 69
     0
  0
VISUALSTYLE
  5
50D83
102
{ACAD_REACTORS
330
50D7D
102
}
330
50D7D
100
AcDbVisualStyle
  2
2dWireframe
 70
     4
177
     2
291
     0
 71
     0
176
     1
 72
     2
176
     1
 73
     0
176
     1
 90
        0
176
     1
 40
0.6
176
     1
 41
30.0
176
     1
 62
     5
 63
     7
421
 16777215
176
     1
 74
     1
176
     1
 91
        4
176
     1
 64
     7
176
     1
 65
   257
176
     1
 75
     1
176
     1
175
     1
176
     1
 42
1.0
176
     1
 92
        0
176
     1
 66
   257
176
     1
 43
1.0
176
     1
 76
     1
176
     1
 77
     6
176
     1
 78
     2
176
     1
 67
     7
176
     1
 79
     5
176
     1
170
     0
176
     1
171
     0
176
     1
290
     0
176
     1
 93
        1
176
     1
 44
0.0
176
     1
173
     0
176
     1
  0
VISUALSTYLE
  5
50D82
102
{ACAD_REACTORS
330
50D7D
102
}
330
50D7D
100
AcDbVisualStyle
  2
Basic
 70
     7
177
     2
291
     1
 71
     1
176
     1
 72
     0
176
     1
 73
     1
176
     1
 90
        0
176
     1
 40
0.6
176
     1
 41
30.0
176
     1
 62
     5
 63
     7
421
 16777215
176
     1
 74
     0
176
     1
 91
        4
176
     1
 64
     7
176
     1
 65
   257
176
     1
 75
     1
176
     1
175
     1
176
     1
 42
1.0
176
     1
 92
        8
176
     1
 66
     7
176
     1
 43
1.0
176
     1
 76
     1
176
     1
 77
     6
176
     1
 78
     2
176
     1
 67
     7
176
     1
 79
     5
176
     1
170
     0
176
     1
171
     0
176
     1
290
     0
176
     1
 93
        1
176
     1
 44
0.0
176
     1
173
     0
176
     1
  0
VISUALSTYLE
  5
50D89
102
{ACAD_REACTORS
330
50D7D
102
}
330
50D7D
100
AcDbVisualStyle
  2
Brighten
 70
    12
177
     2
291
     1
 71
     2
176
     1
 72
     2
176
     1
 73
     0
176
     1
 90
        0
176
     1
 40
0.6
176
     1
 41
30.0
176
     1
 62
     5
 63
     7
421
 16777215
176
     1
 74
     1
176
     1
 91
        4
176
     1
 64
     7
176
     1
 65
   257
176
     1
 75
     1
176
     1
175
     1
176
     1
 42
1.0
176
     1
 92
        8
176
     1
 66
     7
176
     1
 43
1.0
176
     1
 76
     1
176
     1
 77
     6
176
     1
 78
     2
176
     1
 67
     7
176
     1
 79
     5
176
     1
170
     0
176
     1
171
     0
176
     1
290
     0
176
     1
 93
        1
176
     1
 44
50.0
176
     1
173
     0
176
     1
  0
VISUALSTYLE
  5
50D8D
102
{ACAD_REACTORS
330
50D7D
102
}
330
50D7D
100
AcDbVisualStyle
  2
ColorChange
 70
    16
177
     2
291
     1
 71
     2
176
     1
 72
     2
176
     1
 73
     3
176
     1
 90
        0
176
     1
 40
0.6
176
     1
 41
30.0
176
     1
 62
     5
 63
     8
421
  8421504
176
     1
 74
     1
176
     1
 91
        4
176
     1
 64
     7
176
     1
 65
   257
176
     1
 75
     1
176
     1
175
     1
176
     1
 42
1.0
176
     1
 92
        8
176
     1
 66
     8
424
  8421504
176
     1
 43
1.0
176
     1
 76
     1
176
     1
 77
     6
176
     1
 78
     2
176
     1
 67
     7
176
     1
 79
     5
176
     1
170
     0
176
     1
171
     0
176
     1
290
     0
176
     1
 93
        1
176
     1
 44
0.0
176
     1
173
     0
176
     1
  0
VISUALSTYLE
  5
50D86
102
{ACAD_REACTORS
330
50D7D
102
}
330
50D7D
100
AcDbVisualStyle
  2
Conceptual
 70
     9
177
     2
291
     0
 71
     3
176
     1
 72
     2
176
     1
 73
     0
176
     1
 90
        0
176
     1
 40
0.6
176
     1
 41
30.0
176
     1
 62
     5
 63
     7
421
 16777215
176
     1
 74
     2
176
     1
 91
        2
176
     1
 64
     7
176
     1
 65
   257
176
     1
 75
     1
176
     1
175
     1
176
     1
 42
179.0
176
     1
 92
        8
176
     1
 66
     7
176
     1
 43
1.0
176
     1
 76
     1
176
     1
 77
     6
176
     1
 78
     2
176
     1
 67
     7
176
     1
 79
     3
176
     1
170
     0
176
     1
171
     0
176
     1
290
     0
176
     1
 93
        1
176
     1
 44
0.0
176
     1
173
     0
176
     1
  0
VISUALSTYLE
  5
50D88
102
{ACAD_REACTORS
330
50D7D
102
}
330
50D7D
100
AcDbVisualStyle
  2
Dim
 70
    11
177
     2
291
     1
 71
     2
176
     1
 72
     2
176
     1
 73
     0
176
     1
 90
        0
176
     1
 40
0.6
176
     1
 41
30.0
176
     1
 62
     5
 63
     7
421
 16777215
176
     1
 74
     1
176
     1
 91
        4
176
     1
 64
     7
176
     1
 65
   257
176
     1
 75
     1
176
     1
175
     1
176
     1
 42
1.0
176
     1
 92
        8
176
     1
 66
     7
176
     1
 43
1.0
176
     1
 76
     1
176
     1
 77
     6
176
     1
 78
     2
176
     1
 67
     7
176
     1
 79
     5
176
     1
170
     0
176
     1
171
     0
176
     1
290
     0
176
     1
 93
        1
176
     1
 44
-50.0
176
     1
173
     0
176
     1
  0
VISUALSTYLE
  5
50D95
102
{ACAD_REACTORS
330
50D7D
102
}
330
50D7D
100
AcDbVisualStyle
  2
EdgeColorOff
 70
    22
177
     2
291
     1
 71
     2
176
     0
 72
     2
176
     0
 73
     0
176
     0
 90
        0
176
     0
 40
0.6
176
     0
 41
30.0
176
     0
 62
     5
 63
     7
421
 16777215
176
     0
 74
     1
176
     0
 91
        4
176
     0
 64
     7
176
     0
 65
   257
176
     0
 75
     1
176
     0
175
     1
176
     0
 42
1.0
176
     0
 92
        8
176
     2
 66
     7
176
     0
 43
1.0
176
     0
 76
     1
176
     0
 77
     6
176
     0
 78
     2
176
     0
 67
     7
176
     0
 79
     5
176
     0
170
     0
176
     0
171
     0
176
     0
290
     0
176
     0
 93
        1
176
     0
 44
0.0
176
     0
173
     0
176
     0
  0
VISUALSTYLE
  5
50D8C
102
{ACAD_REACTORS
330
50D7D
102
}
330
50D7D
100
AcDbVisualStyle
  2
Facepattern
 70
    15
177
     2
291
     1
 71
     2
176
     1
 72
     2
176
     1
 73
     0
176
     1
 90
        0
176
     1
 40
0.6
176
     1
 41
30.0
176
     1
 62
     5
 63
     7
421
 16777215
176
     1
 74
     1
176
     1
 91
        4
176
     1
 64
     7
176
     1
 65
   257
176
     1
 75
     1
176
     1
175
     1
176
     1
 42
1.0
176
     1
 92
        8
176
     1
 66
     7
176
     1
 43
1.0
176
     1
 76
     1
176
     1
 77
     6
176
     1
 78
     2
176
     1
 67
     7
176
     1
 79
     5
176
     1
170
     0
176
     1
171
     0
176
     1
290
     0
176
     1
 93
        1
176
     1
 44
0.0
176
     1
173
     0
176
     1
  0
VISUALSTYLE
  5
50D7E
102
{ACAD_REACTORS
330
50D7D
102
}
330
50D7D
100
AcDbVisualStyle
  2
Flat
 70
     0
177
     2
291
     1
 71
     2
176
     1
 72
     1
176
     1
 73
     1
176
     1
 90
        2
176
     1
 40
0.6
176
     1
 41
30.0
176
     1
 62
     5
 63
     7
421
 16777215
176
     1
 74
     0
176
     1
 91
        0
176
     1
 64
     7
176
     1
 65
   257
176
     1
 75
     1
176
     1
175
     1
176
     1
 42
1.0
176
     1
 92
        8
176
     1
 66
     7
176
     1
 43
1.0
176
     1
 76
     1
176
     1
 77
     6
176
     1
 78
     2
176
     1
 67
     7
176
     1
 79
     5
176
     1
170
     0
176
     1
171
     0
176
     1
290
     0
176
     1
 93
       13
176
     1
 44
0.0
176
     1
173
     0
176
     1
  0
VISUALSTYLE
  5
50D7F
102
{ACAD_REACTORS
330
50D7D
102
}
330
50D7D
100
AcDbVisualStyle
  2
FlatWithEdges
 70
     1
177
     2
291
     1
 71
     2
176
     1
 72
     1
176
     1
 73
     1
176
     1
 90
        2
176
     1
 40
0.6
176
     1
 41
30.0
176
     1
 62
     5
 63
     7
421
 16777215
176
     1
 74
     1
176
     1
 91
        0
176
     1
 64
     7
176
     1
 65
   257
176
     1
 75
     1
176
     1
175
     1
176
     1
 42
1.0
176
     1
 92
        0
176
     1
 66
   257
176
     1
 43
1.0
176
     1
 76
     1
176
     1
 77
     6
176
     1
 78
     2
176
     1
 67
     7
176
     1
 79
     5
176
     1
170
     0
176
     1
171
     0
176
     1
290
     0
176
     1
 93
       13
176
     1
 44
0.0
176
     1
173
     0
176
     1
  0
VISUALSTYLE
  5
50D80
102
{ACAD_REACTORS
330
50D7D
102
}
330
50D7D
100
AcDbVisualStyle
  2
Gouraud
 70
     2
177
     2
291
     1
 71
     2
176
     1
 72
     2
176
     1
 73
     1
176
     1
 90
        2
176
     1
 40
0.6
176
     1
 41
30.0
176
     1
 62
     5
 63
     7
421
 16777215
176
     1
 74
     0
176
     1
 91
        0
176
     1
 64
     7
176
     1
 65
   257
176
     1
 75
     1
176
     1
175
     1
176
     1
 42
1.0
176
     1
 92
        0
176
     1
 66
     7
176
     1
 43
1.0
176
     1
 76
     1
176
     1
 77
     6
176
     1
 78
     2
176
     1
 67
     7
176
     1
 79
     5
176
     1
170
     0
176
     1
171
     0
176
     1
290
     0
176
     1
 93
       13
176
     1
 44
0.0
176
     1
173
     0
176
     1
  0
VISUALSTYLE
  5
50D81
102
{ACAD_REACTORS
330
50D7D
102
}
330
50D7D
100
AcDbVisualStyle
  2
GouraudWithEdges
 70
     3
177
     2
291
     1
 71
     2
176
     1
 72
     2
176
     1
 73
     1
176
     1
 90
        2
176
     1
 40
0.6
176
     1
 41
30.0
176
     1
 62
     5
 63
     7
421
 16777215
176
     1
 74
     1
176
     1
 91
        0
176
     1
 64
     7
176
     1
 65
   257
176
     1
 75
     1
176
     1
175
     1
176
     1
 42
1.0
176
     1
 92
        0
176
     1
 66
   257
176
     1
 43
1.0
176
     1
 76
     1
176
     1
 77
     6
176
     1
 78
     2
176
     1
 67
     7
176
     1
 79
     5
176
     1
170
     0
176
     1
171
     0
176
     1
290
     0
176
     1
 93
       13
176
     1
 44
0.0
176
     1
173
     0
176
     1
  0
VISUALSTYLE
  5
50D85
102
{ACAD_REACTORS
330
50D7D
102
}
330
50D7D
100
AcDbVisualStyle
  2
Hidden
 70
     6
177
     2
291
     0
 71
     1
176
     1
 72
     2
176
     1
 73
     2
176
     1
 90
        0
176
     1
 40
0.6
176
     1
 41
30.0
176
     1
 62
     5
 63
     7
421
 16777215
176
     1
 74
     2
176
     1
 91
        2
176
     1
 64
     7
176
     1
 65
   257
176
     1
 75
     2
176
     1
175
     1
176
     1
 42
40.0
176
     1
 92
        0
176
     1
 66
   257
176
     1
 43
1.0
176
     1
 76
     1
176
     1
 77
     6
176
     1
 78
     2
176
     1
 67
     7
176
     1
 79
     3
176
     1
170
     0
176
     1
171
     0
176
     1
290
     0
176
     1
 93
        1
176
     1
 44
0.0
176
     1
173
     0
176
     1
  0
VISUALSTYLE
  5
50D93
102
{ACAD_REACTORS
330
50D7D
102
}
330
50D7D
100
AcDbVisualStyle
  2
JitterOff
 70
    20
177
     2
291
     1
 71
     2
176
     0
 72
     2
176
     0
 73
     0
176
     0
 90
        0
176
     0
 40
0.6
176
     0
 41
30.0
176
     0
 62
     5
 63
     7
421
 16777215
176
     0
 74
     1
176
     0
 91
        4
176
     0
 64
     7
176
     0
 65
   257
176
     0
 75
     1
176
     0
175
     1
176
     0
 42
1.0
176
     0
 92
       10
176
     2
 66
     7
176
     0
 43
1.0
176
     0
 76
     1
176
     0
 77
     6
176
     0
 78
     2
176
     0
 67
     7
176
     0
 79
     5
176
     0
170
     0
176
     0
171
     0
176
     0
290
     0
176
     0
 93
        1
176
     0
 44
0.0
176
     0
173
     0
176
     0
  0
VISUALSTYLE
  5
50D8B
102
{ACAD_REACTORS
330
50D7D
102
}
330
50D7D
100
AcDbVisualStyle
  2
Linepattern
 70
    14
177
     2
291
     1
 71
     2
176
     1
 72
     2
176
     1
 73
     0
176
     1
 90
        0
176
     1
 40
0.6
176
     1
 41
30.0
176
     1
 62
     5
 63
     7
421
 16777215
176
     1
 74
     1
176
     1
 91
        4
176
     1
 64
     7
176
     1
 65
   257
176
     1
 75
     7
176
     1
175
     7
176
     1
 42
1.0
176
     1
 92
        8
176
     1
 66
     7
176
     1
 43
1.0
176
     1
 76
     1
176
     1
 77
     6
176
     1
 78
     2
176
     1
 67
     7
176
     1
 79
     5
176
     1
170
     0
176
     1
171
     0
176
     1
290
     0
176
     1
 93
        1
176
     1
 44
0.0
176
     1
173
     0
176
     1
  0
VISUALSTYLE
  5
50D94
102
{ACAD_REACTORS
330
50D7D
102
}
330
50D7D
100
AcDbVisualStyle
  2
OverhangOff
 70
    21
177
     2
291
     1
 71
     2
176
     0
 72
     2
176
     0
 73
     0
176
     0
 90
        0
176
     0
 40
0.6
176
     0
 41
30.0
176
     0
 62
     5
 63
     7
421
 16777215
176
     0
 74
     1
176
     0
 91
        4
176
     0
 64
     7
176
     0
 65
   257
176
     0
 75
     1
176
     0
175
     1
176
     0
 42
1.0
176
     0
 92
        9
176
     2
 66
     7
176
     0
 43
1.0
176
     0
 76
     1
176
     0
 77
     6
176
     0
 78
     2
176
     0
 67
     7
176
     0
 79
     5
176
     0
170
     0
176
     0
171
     0
176
     0
290
     0
176
     0
 93
        1
176
     0
 44
0.0
176
     0
173
     0
176
     0
  0
VISUALSTYLE
  5
50D87
102
{ACAD_REACTORS
330
50D7D
102
}
330
50D7D
100
AcDbVisualStyle
  2
Realistic
 70
     8
177
     2
291
     0
 71
     2
176
     1
 72
     3
176
     1
 73
     0
176
     1
 90
        2
176
     1
 40
0.6
176
     1
 41
30.0
176
     1
 62
     5
 63
     7
421
 16777215
176
     1
 74
     0
176
     1
 91
        0
176
     1
 64
     7
176
     1
 65
   257
176
     1
 75
     1
176
     1
175
     1
176
     1
 42
1.0
176
     1
 92
        8
176
     1
 66
   257
176
     1
 43
1.0
176
     1
 76
     1
176
     1
 77
     6
176
     1
 78
     2
176
     1
 67
     7
176
     1
 79
     3
176
     1
170
     0
176
     1
171
     0
176
     1
290
     0
176
     1
 93
       13
176
     1
 44
0.0
176
     1
173
     0
176
     1
  0
VISUALSTYLE
  5
50D92
102
{ACAD_REACTORS
330
50D7D
102
}
330
50D7D
100
AcDbVisualStyle
  2
Shaded
 70
    27
177
     2
291
     0
 71
     2
176
     1
 72
     2
176
     1
 73
     1
176
     1
 90
        2
176
     1
 40
0.6
176
     1
 41
30.0
176
     1
 62
     5
 63
     7
421
 16777215
176
     1
 74
     0
176
     1
 91
        4
176
     1
 64
     7
176
     1
 65
   257
176
     1
 75
     1
176
     1
175
     1
176
     1
 42
1.0
176
     1
 92
        8
176
     1
 66
   257
176
     1
 43
1.0
176
     1
 76
     1
176
     1
 77
     6
176
     1
 78
     2
176
     1
 67
     8
425
  7895160
176
     1
 79
     3
176
     1
170
     0
176
     1
171
     0
176
     1
290
     0
176
     1
 93
        5
176
     1
 44
0.0
176
     1
173
     0
176
     1
  0
VISUALSTYLE
  5
50D91
102
{ACAD_REACTORS
330
50D7D
102
}
330
50D7D
100
AcDbVisualStyle
  2
Shaded with edges
 70
    26
177
     2
291
     0
 71
     2
176
     1
 72
     2
176
     1
 73
     1
176
     1
 90
        2
176
     1
 40
0.6
176
     1
 41
30.0
176
     1
 62
     5
 63
     7
421
 16777215
176
     1
 74
     1
176
     1
 91
       10
176
     1
 64
     7
176
     1
 65
   257
176
     1
 75
     2
176
     1
175
     1
176
     1
 42
1.0
176
     1
 92
        8
176
     1
 66
   257
176
     1
 43
1.0
176
     1
 76
     1
176
     1
 77
     6
176
     1
 78
     2
176
     1
 67
     7
176
     1
 79
     3
176
     1
170
     0
176
     1
171
     0
176
     1
290
     0
176
     1
 93
        5
176
     1
 44
0.0
176
     1
173
     0
176
     1
  0
VISUALSTYLE
  5
50D8E
102
{ACAD_REACTORS
330
50D7D
102
}
330
50D7D
100
AcDbVisualStyle
  2
Shades of Gray
 70
    23
177
     2
291
     0
 71
     2
176
     1
 72
     2
176
     1
 73
     3
176
     1
 90
        0
176
     1
 40
0.6
176
     1
 41
30.0
176
     1
 62
     5
 63
     7
421
 16777215
176
     1
 74
     2
176
     1
 91
        2
176
     1
 64
     7
176
     1
 65
     7
176
     1
 75
     1
176
     1
175
     1
176
     1
 42
40.0
176
     1
 92
        8
176
     1
 66
     7
176
     1
 43
1.0
176
     1
 76
     1
176
     1
 77
     6
176
     1
 78
     2
176
     1
 67
     7
176
     1
 79
     3
176
     1
170
     0
176
     1
171
     0
176
     1
290
     0
176
     1
 93
        1
176
     1
 44
0.0
176
     1
173
     0
176
     1
  0
VISUALSTYLE
  5
50D8F
102
{ACAD_REACTORS
330
50D7D
102
}
330
50D7D
100
AcDbVisualStyle
  2
Sketchy
 70
    24
177
     2
291
     0
 71
     1
176
     1
 72
     2
176
     1
 73
     2
176
     1
 90
        0
176
     1
 40
0.6
176
     1
 41
30.0
176
     1
 62
     5
 63
     7
421
 16777215
176
     1
 74
     2
176
     1
 91
        2
176
     1
 64
     7
176
     1
 65
     7
176
     1
 75
     1
176
     1
175
     1
176
     1
 42
40.0
176
     1
 92
       11
176
     1
 66
     7
176
     1
 43
1.0
176
     1
 76
     1
176
     1
 77
     6
176
     1
 78
     2
176
     1
 67
     7
176
     1
 79
     6
176
     1
170
     0
176
     1
171
     0
176
     1
290
     0
176
     1
 93
        1
176
     1
 44
0.0
176
     1
173
     0
176
     1
  0
VISUALSTYLE
  5
50D8A
102
{ACAD_REACTORS
330
50D7D
102
}
330
50D7D
100
AcDbVisualStyle
  2
Thicken
 70
    13
177
     2
291
     1
 71
     2
176
     1
 72
     2
176
     1
 73
     0
176
     1
 90
        0
176
     1
 40
0.6
176
     1
 41
30.0
176
     1
 62
     5
 63
     7
421
 16777215
176
     1
 74
     1
176
     1
 91
        4
176
     1
 64
     7
176
     1
 65
   257
176
     1
 75
     1
176
     1
175
     1
176
     1
 42
1.0
176
     1
 92
       12
176
     1
 66
     7
176
     1
 43
1.0
176
     1
 76
     1
176
     1
 77
     6
176
     1
 78
     2
176
     1
 67
     7
176
     1
 79
     5
176
     1
170
     0
176
     1
171
     0
176
     1
290
     0
176
     1
 93
        1
176
     1
 44
0.0
176
     1
173
     0
176
     1
  0
VISUALSTYLE
  5
50D84
102
{ACAD_REACTORS
330
50D7D
102
}
330
50D7D
100
AcDbVisualStyle
  2
Wireframe
 70
     5
177
     2
291
     0
 71
     0
176
     1
 72
     2
176
     1
 73
     0
176
     1
 90
        0
176
     1
 40
0.6
176
     1
 41
30.0
176
     1
 62
     5
 63
     7
421
 16777215
176
     1
 74
     1
176
     1
 91
        4
176
     1
 64
     7
176
     1
 65
   257
176
     1
 75
     1
176
     1
175
     1
176
     1
 42
1.0
176
     1
 92
        0
176
     1
 66
   257
176
     1
 43
1.0
176
     1
 76
     1
176
     1
 77
     6
176
     1
 78
     2
176
     1
 67
     7
176
     1
 79
     3
176
     1
170
     0
176
     1
171
     0
176
     1
290
     0
176
     1
 93
        1
176
     1
 44
0.0
176
     1
173
     0
176
     1
  0
VISUALSTYLE
  5
50D90
102
{ACAD_REACTORS
330
50D7D
102
}
330
50D7D
100
AcDbVisualStyle
  2
X-Ray
 70
    25
177
     2
291
     0
 71
     2
176
     1
 72
     2
176
     1
 73
     1
176
     1
 90
        1
176
     1
 40
0.5
176
     1
 41
30.0
176
     1
 62
     5
 63
     7
421
 16777215
176
     1
 74
     1
176
     1
 91
        0
176
     1
 64
     7
176
     1
 65
   257
176
     1
 75
     1
176
     1
175
     1
176
     1
 42
1.0
176
     1
 92
        8
176
     1
 66
     7
176
     1
 43
1.0
176
     1
 76
     1
176
     1
 77
     6
176
     1
 78
     2
176
     1
 67
     7
176
     1
 79
     3
176
     1
170
     0
176
     1
171
     0
176
     1
290
     0
176
     1
 93
       13
176
     1
 44
0.0
176
     1
173
     0
176
     1
  0
DICTIONARYVAR
  5
50DEB
102
{ACAD_REACTORS
330
50DE5
102
}
330
50DE5
100
DictionaryVariables
280
     0
  1
1'-0" = 1'-0"
  0
DICTIONARYVAR
  5
50DE7
102
{ACAD_REACTORS
330
50DE5
102
}
330
50DE5
100
DictionaryVariables
280
     0
  1
Standard
  0
DICTIONARYVAR
  5
50DE6
102
{ACAD_REACTORS
330
50DE5
102
}
330
50DE5
100
DictionaryVariables
280
     0
  1
Standard
  0
DICTIONARYVAR
  5
50DE8
102
{ACAD_REACTORS
330
50DE5
102
}
330
50DE5
100
DictionaryVariables
280
     0
  1
Imperial24
  0
DICTIONARYVAR
  5
50DE9
102
{ACAD_REACTORS
330
50DE5
102
}
330
50DE5
100
DictionaryVariables
280
     0
  1
Imperial24
  0
DICTIONARYVAR
  5
50DED
102
{ACAD_REACTORS
330
50DE5
102
}
330
50DE5
100
DictionaryVariables
280
     0
  1
1
  0
DICTIONARYVAR
  5
50DEE
102
{ACAD_REACTORS
330
50DE5
102
}
330
50DE5
100
DictionaryVariables
280
     0
  1
15
  0
DICTIONARYVAR
  5
50DEC
102
{ACAD_REACTORS
330
50DE5
102
}
330
50DE5
100
DictionaryVariables
280
     0
  1
0
  0
DICTIONARYVAR
  5
50DEA
102
{ACAD_REACTORS
330
50DE5
102
}
330
50DE5
100
DictionaryVariables
280
     0
  1
0
  0
DICTIONARY
  5
50DE2
330
50DAE
100
AcDbDictionary
280
     1
281
     1
  3
ACAD_XREC_ROUNDTRIP
360
50DE3
  0
DICTIONARY
  5
50DE0
330
50DAC
100
AcDbDictionary
280
     1
281
     1
  3
ACAD_XREC_ROUNDTRIP
360
50DE1
  0
DICTIONARY
  5
50E24
330
50D98
100
AcDbDictionary
280
     1
281
     1
  3
ACAD_ROUNDTRIP_2008_TABLESTYLE_CELLSTYLEMAP
360
50E25
  0
XRECORD
  5
50DE3
102
{ACAD_REACTORS
330
50DE2
102
}
330
50DE2
100
AcDbXrecord
280
     1
102
DISPLAYNAME
  1
Imperial24
102
FLAGS
 90
        0
  0
XRECORD
  5
50DE1
102
{ACAD_REACTORS
330
50DE0
102
}
330
50DE0
100
AcDbXrecord
280
     1
102
DISPLAYNAME
  1
Imperial24
102
FLAGS
 90
        0
  0
CELLSTYLEMAP
  5
50E25
102
{ACAD_REACTORS
330
50E24
102
}
330
50E24
100
AcDbCellStyleMap
 90
        3
300
CELLSTYLE
  1
TABLEFORMAT_BEGIN
 90
        5
170
     1
 91
        0
 92
    32768
 62
   257
 93
        1
300
CONTENTFORMAT
  1
CONTENTFORMAT_BEGIN
 90
        0
 91
        0
 92
      512
 93
        0
300

 40
0.0
140
1.0
 94
        5
 62
     0
340
50D08
144
0.25
309
CONTENTFORMAT_END
171
     0
 94
        0
309
TABLEFORMAT_END
  1
CELLSTYLE_BEGIN
 90
        1
 91
        1
300
_TITLE
309
CELLSTYLE_END
300
CELLSTYLE
  1
TABLEFORMAT_BEGIN
 90
        5
170
     1
 91
        0
 92
        0
 62
   257
 93
        1
300
CONTENTFORMAT
  1
CONTENTFORMAT_BEGIN
 90
        0
 91
        0
 92
      512
 93
        0
300

 40
0.0
140
1.0
 94
        5
 62
     0
340
50D08
144
0.18
309
CONTENTFORMAT_END
171
     0
 94
        0
309
TABLEFORMAT_END
  1
CELLSTYLE_BEGIN
 90
        2
 91
        1
300
_HEADER
309
CELLSTYLE_END
300
CELLSTYLE
  1
TABLEFORMAT_BEGIN
 90
        5
170
     1
 91
        0
 92
        0
 62
   257
 93
        1
300
CONTENTFORMAT
  1
CONTENTFORMAT_BEGIN
 90
        0
 91
        0
 92
      512
 93
        0
300

 40
0.0
140
1.0
 94
        2
 62
     0
340
50D08
144
0.18
309
CONTENTFORMAT_END
171
     0
 94
        0
309
TABLEFORMAT_END
  1
CELLSTYLE_BEGIN
 90
        3
 91
        2
300
_DATA
309
CELLSTYLE_END
  0
ENDSEC
  0
EOF
