  0
SECTION
  2
HEADER
  9
$ACADVER
  1
AC1024
  9
$ACADMAINTVER
 70
     6
  9
$DWGCODEPAGE
  3
ANSI_1252
  9
$LASTSAVEDBY
  1
sourada
  9
$INSBASE
 10
0.0
 20
0.0
 30
0.0
  9
$EXTMIN
 10
-0.0078289591486964
 20
-0.0055623063486223
 30
-0.0015258207003583
  9
$EXTMAX
 10
33.00680233872777
 20
23.6736766209853
 30
0.0000000349246037
  9
$LIMMIN
 10
-10.0
 20
-10.0
  9
$LIMMAX
 10
100.0
 20
100.0
  9
$ORTHOMODE
 70
     0
  9
$REGENMODE
 70
     1
  9
$FILLMODE
 70
     1
  9
$QTEXTMODE
 70
     0
  9
$MIRRTEXT
 70
     0
  9
$LTSCALE
 40
1.0
  9
$ATTMODE
 70
     1
  9
$TEXTSIZE
 40
0.2
  9
$TRACEWID
 40
0.05
  9
$TEXTSTYLE
  7
SIMPLEX
  9
$CLAYER
  8
OBJECT
  9
$CELTYPE
  6
BYLAYER
  9
$CECOLOR
 62
   256
  9
$CELTSCALE
 40
1.0
  9
$DISPSILH
 70
     0
  9
$DIMSCALE
 40
1.0
  9
$DIMASZ
 40
0.18
  9
$DIMEXO
 40
0.063
  9
$DIMDLI
 40
0.38
  9
$DIMRND
 40
0.0
  9
$DIMDLE
 40
0.0
  9
$DIMEXE
 40
0.18
  9
$DIMTP
 40
0.0
  9
$DIMTM
 40
0.0
  9
$DIMTXT
 40
0.1
  9
$DIMCEN
 40
0.1
  9
$DIMTSZ
 40
0.0
  9
$DIMTOL
 70
     0
  9
$DIMLIM
 70
     0
  9
$DIMTIH
 70
     1
  9
$DIMTOH
 70
     1
  9
$DIMSE1
 70
     0
  9
$DIMSE2
 70
     0
  9
$DIMTAD
 70
     0
  9
$DIMZIN
 70
     0
  9
$DIMBLK
  1

  9
$DIMASO
 70
     1
  9
$DIMSHO
 70
     1
  9
$DIMPOST
  1

  9
$DIMAPOST
  1

  9
$DIMALT
 70
     0
  9
$DIMALTD
 70
     2
  9
$DIMALTF
 40
25.4
  9
$DIMLFAC
 40
1.0
  9
$DIMTOFL
 70
     0
  9
$DIMTVP
 40
0.0
  9
$DIMTIX
 70
     0
  9
$DIMSOXD
 70
     0
  9
$DIMSAH
 70
     0
  9
$DIMBLK1
  1

  9
$DIMBLK2
  1

  9
$DIMSTYLE
  2
STANDARD
  9
$DIMCLRD
 70
     1
  9
$DIMCLRE
 70
     1
  9
$DIMCLRT
 70
     1
  9
$DIMTFAC
 40
0.7999999999999999
  9
$DIMGAP
 40
0.1
  9
$DIMJUST
 70
     0
  9
$DIMSD1
 70
     0
  9
$DIMSD2
 70
     0
  9
$DIMTOLJ
 70
     1
  9
$DIMTZIN
 70
     0
  9
$DIMALTZ
 70
     0
  9
$DIMALTTZ
 70
     0
  9
$DIMUPT
 70
     0
  9
$DIMDEC
 70
     4
  9
$DIMTDEC
 70
     4
  9
$DIMALTU
 70
     2
  9
$DIMALTTD
 70
     2
  9
$DIMTXSTY
  7
STANDARD
  9
$DIMAUNIT
 70
     0
  9
$DIMADEC
 70
     0
  9
$DIMALTRND
 40
0.0
  9
$DIMAZIN
 70
     0
  9
$DIMDSEP
 70
    46
  9
$DIMATFIT
 70
     3
  9
$DIMFRAC
 70
     0
  9
$DIMLDRBLK
  1

  9
$DIMLUNIT
 70
     2
  9
$DIMLWD
 70
    -2
  9
$DIMLWE
 70
    -2
  9
$DIMTMOVE
 70
     0
  9
$DIMFXL
 40
1.0
  9
$DIMFXLON
 70
     0
  9
$DIMJOGANG
 40
0.7853981633974483
  9
$DIMTFILL
 70
     0
  9
$DIMTFILLCLR
 70
     0
  9
$DIMARCSYM
 70
     0
  9
$DIMLTYPE
  6

  9
$DIMLTEX1
  6

  9
$DIMLTEX2
  6

  9
$DIMTXTDIRECTION
 70
     0
  9
$LUNITS
 70
     2
  9
$LUPREC
 70
     3
  9
$SKETCHINC
 40
0.1
  9
$FILLETRAD
 40
0.0
  9
$AUNITS
 70
     0
  9
$AUPREC
 70
     4
  9
$MENU
  1
ACAD
  9
$ELEVATION
 40
0.0
  9
$PELEVATION
 40
0.0
  9
$THICKNESS
 40
0.0
  9
$LIMCHECK
 70
     0
  9
$CHAMFERA
 40
0.0
  9
$CHAMFERB
 40
0.0
  9
$CHAMFERC
 40
0.0
  9
$CHAMFERD
 40
0.0
  9
$SKPOLY
 70
     0
  9
$TDCREATE
 40
2450217.568188889
  9
$TDUCREATE
 40
2450217.818188889
  9
$TDUPDATE
 40
2456641.54700831
  9
$TDUUPDATE
 40
2456641.79700831
  9
$TDINDWG
 40
0.789457581
  9
$TDUSRTIMER
 40
2456641.796931574
  9
$USRTIMER
 70
     1
  9
$ANGBASE
 50
0.0
  9
$ANGDIR
 70
     0
  9
$PDMODE
 70
     0
  9
$PDSIZE
 40
0.0
  9
$PLINEWID
 40
0.0
  9
$SPLFRAME
 70
     0
  9
$SPLINETYPE
 70
     6
  9
$SPLINESEGS
 70
     8
  9
$HANDSEED
  5
29D00
  9
$SURFTAB1
 70
     6
  9
$SURFTAB2
 70
     6
  9
$SURFTYPE
 70
     6
  9
$SURFU
 70
     6
  9
$SURFV
 70
     6
  9
$UCSBASE
  2

  9
$UCSNAME
  2

  9
$UCSORG
 10
0.0
 20
0.0
 30
0.0
  9
$UCSXDIR
 10
1.0
 20
0.0
 30
0.0
  9
$UCSYDIR
 10
0.0
 20
1.0
 30
0.0
  9
$UCSORTHOREF
  2

  9
$UCSORTHOVIEW
 70
     0
  9
$UCSORGTOP
 10
0.0
 20
0.0
 30
0.0
  9
$UCSORGBOTTOM
 10
0.0
 20
0.0
 30
0.0
  9
$UCSORGLEFT
 10
0.0
 20
0.0
 30
0.0
  9
$UCSORGRIGHT
 10
0.0
 20
0.0
 30
0.0
  9
$UCSORGFRONT
 10
0.0
 20
0.0
 30
0.0
  9
$UCSORGBACK
 10
0.0
 20
0.0
 30
0.0
  9
$PUCSBASE
  2

  9
$PUCSNAME
  2

  9
$PUCSORG
 10
0.0
 20
0.0
 30
0.0
  9
$PUCSXDIR
 10
1.0
 20
0.0
 30
0.0
  9
$PUCSYDIR
 10
0.0
 20
1.0
 30
0.0
  9
$PUCSORTHOREF
  2

  9
$PUCSORTHOVIEW
 70
     0
  9
$PUCSORGTOP
 10
0.0
 20
0.0
 30
0.0
  9
$PUCSORGBOTTOM
 10
0.0
 20
0.0
 30
0.0
  9
$PUCSORGLEFT
 10
0.0
 20
0.0
 30
0.0
  9
$PUCSORGRIGHT
 10
0.0
 20
0.0
 30
0.0
  9
$PUCSORGFRONT
 10
0.0
 20
0.0
 30
0.0
  9
$PUCSORGBACK
 10
0.0
 20
0.0
 30
0.0
  9
$USERI1
 70
     0
  9
$USERI2
 70
     0
  9
$USERI3
 70
     0
  9
$USERI4
 70
     0
  9
$USERI5
 70
     0
  9
$USERR1
 40
0.0
  9
$USERR2
 40
0.0
  9
$USERR3
 40
0.0
  9
$USERR4
 40
0.0
  9
$USERR5
 40
0.0
  9
$WORLDVIEW
 70
     1
  9
$SHADEDGE
 70
     3
  9
$SHADEDIF
 70
    70
  9
$TILEMODE
 70
     1
  9
$MAXACTVP
 70
    16
  9
$PINSBASE
 10
0.0
 20
0.0
 30
0.0
  9
$PLIMCHECK
 70
     0
  9
$PEXTMIN
 10
14.0
 20
6.0
 30
0.0
  9
$PEXTMAX
 10
20.0
 20
10.0
 30
0.0
  9
$PLIMMIN
 10
0.0
 20
0.0
  9
$PLIMMAX
 10
0.0
 20
0.0
  9
$UNITMODE
 70
     0
  9
$VISRETAIN
 70
     0
  9
$PLINEGEN
 70
     0
  9
$PSLTSCALE
 70
     1
  9
$TREEDEPTH
 70
  3020
  9
$CMLSTYLE
  2
STANDARD
  9
$CMLJUST
 70
     0
  9
$CMLSCALE
 40
1.0
  9
$PROXYGRAPHICS
 70
     1
  9
$MEASUREMENT
 70
     0
  9
$CELWEIGHT
370
    -1
  9
$ENDCAPS
280
     0
  9
$JOINSTYLE
280
     0
  9
$LWDISPLAY
290
     0
  9
$INSUNITS
 70
     0
  9
$HYPERLINKBASE
  1

  9
$STYLESHEET
  1

  9
$XEDIT
290
     1
  9
$CEPSNTYPE
380
     0
  9
$PSTYLEMODE
290
     1
  9
$FINGERPRINTGUID
  2
{4CE7EF4B-8783-4E07-83A2-9CD2C89733BB}
  9
$VERSIONGUID
  2
{B64CD59B-C3C2-4673-A758-D3253D8E5549}
  9
$EXTNAMES
290
     1
  9
$PSVPSCALE
 40
0.0
  9
$OLESTARTUP
290
     0
  9
$SORTENTS
280
   127
  9
$INDEXCTL
280
     0
  9
$HIDETEXT
280
     0
  9
$XCLIPFRAME
280
     2
  9
$HALOGAP
280
     0
  9
$OBSCOLOR
 70
   257
  9
$OBSLTYPE
280
     0
  9
$INTERSECTIONDISPLAY
280
     0
  9
$INTERSECTIONCOLOR
 70
   257
  9
$DIMASSOC
280
     1
  9
$PROJECTNAME
  1

  9
$CAMERADISPLAY
290
     0
  9
$LENSLENGTH
 40
50.0
  9
$CAMERAHEIGHT
 40
0.0
  9
$STEPSPERSEC
 40
2.0
  9
$STEPSIZE
 40
6.0
  9
$3DDWFPREC
 40
2.0
  9
$PSOLWIDTH
 40
0.25
  9
$PSOLHEIGHT
 40
4.0
  9
$LOFTANG1
 40
1.570796326794897
  9
$LOFTANG2
 40
1.570796326794897
  9
$LOFTMAG1
 40
0.0
  9
$LOFTMAG2
 40
0.0
  9
$LOFTPARAM
 70
     7
  9
$LOFTNORMALS
280
     1
  9
$LATITUDE
 40
37.795
  9
$LONGITUDE
 40
-122.394
  9
$NORTHDIRECTION
 40
0.0
  9
$TIMEZONE
 70
 -8000
  9
$LIGHTGLYPHDISPLAY
280
     1
  9
$TILEMODELIGHTSYNCH
280
     1
  9
$CMATERIAL
347
29C08
  9
$SOLIDHIST
280
     0
  9
$SHOWHIST
280
     1
  9
$DWFFRAME
280
     2
  9
$DGNFRAME
280
     0
  9
$REALWORLDSCALE
290
     1
  9
$INTERFERECOLOR
 62
     1
  9
$CSHADOW
280
     0
  9
$SHADOWPLANELOCATION
 40
0.0
  0
ENDSEC
  0
SECTION
  2
CLASSES
  0
CLASS
  1
ACDBDICTIONARYWDFLT
  2
AcDbDictionaryWithDefault
  3
ObjectDBX Classes
 90
        0
 91
        5
280
     0
281
     0
  0
CLASS
  1
MATERIAL
  2
AcDbMaterial
  3
ObjectDBX Classes
 90
     1153
 91
        5
280
     0
281
     0
  0
CLASS
  1
VISUALSTYLE
  2
AcDbVisualStyle
  3
ObjectDBX Classes
 90
     4095
 91
        5
280
     0
281
     0
  0
CLASS
  1
TABLESTYLE
  2
AcDbTableStyle
  3
ObjectDBX Classes
 90
     4095
 91
        5
280
     0
281
     0
  0
CLASS
  1
SCALE
  2
AcDbScale
  3
ObjectDBX Classes
 90
     1153
 91
        5
280
     0
281
     0
  0
CLASS
  1
MLEADERSTYLE
  2
AcDbMLeaderStyle
  3
ACDB_MLEADERSTYLE_CLASS
 90
     4095
 91
        4
280
     0
281
     0
  0
CLASS
  1
ACDBSECTIONVIEWSTYLE
  2
AcDbSectionViewStyle
  3
ObjectDBX Classes
 90
     1025
 91
        2
280
     1
281
     0
  0
CLASS
  1
ACDBDETAILVIEWSTYLE
  2
AcDbDetailViewStyle
  3
ObjectDBX Classes
 90
     1025
 91
        2
280
     1
281
     0
  0
CLASS
  1
DICTIONARYVAR
  2
AcDbDictionaryVar
  3
ObjectDBX Classes
 90
        0
 91
        5
280
     0
281
     0
  0
CLASS
  1
RASTERVARIABLES
  2
AcDbRasterVariables
  3
ISM
 90
        0
 91
        5
280
     0
281
     0
  0
CLASS
  1
CELLSTYLEMAP
  2
AcDbCellStyleMap
  3
ObjectDBX Classes
 90
     1152
 91
        5
280
     0
281
     0
  0
ENDSEC
  0
SECTION
  2
TABLES
  0
TABLE
  2
VPORT
  5
29B99
330
0
100
AcDbSymbolTable
 70
     1
  0
VPORT
  5
29C03
330
29B99
100
AcDbSymbolTableRecord
100
AcDbViewportTableRecord
  2
*ACTIVE
 70
     0
 10
0.0
 20
0.0
 11
1.0
 21
1.0
 12
16.49948668978954
 22
11.83405715731834
 13
0.0
 23
0.0
 14
1.0
 24
1.0
 15
0.0
 25
0.0
 16
0.0
 26
0.0
 36
1.0
 17
0.0
 27
0.0
 37
0.0
 40
23.87175306495453
 41
2.345997286295794
 42
50.0
 43
0.0
 44
0.0
 50
0.0
 51
0.0
 71
     0
 72
 20000
 73
     1
 74
     3
 75
     0
 76
     0
 77
     0
 78
     0
281
     0
 65
     1
110
0.0
120
0.0
130
0.0
111
1.0
121
0.0
131
0.0
112
0.0
122
1.0
132
0.0
 79
     0
146
0.0
348
29C26
 60
     3
 61
     5
292
     1
282
     1
141
0.0
142
0.0
 63
   250
421
  3355443
1001
ACAD_NAV_VCDISPLAY
1070
     3
  0
ENDTAB
  0
TABLE
  2
LTYPE
  5
29B96
330
0
100
AcDbSymbolTable
 70
     2
  0
LTYPE
  5
29BA3
330
29B96
100
AcDbSymbolTableRecord
100
AcDbLinetypeTableRecord
  2
BYBLOCK
 70
     0
  3

 72
    65
 73
     0
 40
0.0
  0
LTYPE
  5
29BA4
330
29B96
100
AcDbSymbolTableRecord
100
AcDbLinetypeTableRecord
  2
BYLAYER
 70
     0
  3

 72
    65
 73
     0
 40
0.0
  0
LTYPE
  5
29BA5
330
29B96
100
AcDbSymbolTableRecord
100
AcDbLinetypeTableRecord
  2
CONTINUOUS
 70
     0
  3
Solid line
 72
    65
 73
     0
 40
0.0
  0
LTYPE
  5
29BCC
330
29B96
100
AcDbSymbolTableRecord
100
AcDbLinetypeTableRecord
  2
HIDDEN2
 70
     0
  3
_ _ _ _ _ _ _ _ _ _ _ _ _ _ _ _ _ _ _ _ _ _ _ _
 72
    65
 73
     2
 40
0.1875
 49
0.125
 74
     0
 49
-0.0625
 74
     0
  0
ENDTAB
  0
TABLE
  2
LAYER
  5
29B93
102
{ACAD_XDICTIONARY
360
29CA3
102
}
330
0
100
AcDbSymbolTable
 70
     8
  0
LAYER
  5
29BA0
102
{ACAD_XDICTIONARY
360
29C90
102
}
330
29B93
100
AcDbSymbolTableRecord
100
AcDbLayerTableRecord
  2
0
 70
     0
 62
     7
  6
CONTINUOUS
370
    -3
390
29C06
347
29C18
  0
LAYER
  5
29BD5
102
{ACAD_XDICTIONARY
360
29C92
102
}
330
29B93
100
AcDbSymbolTableRecord
100
AcDbLayerTableRecord
  2
DIM
 70
     0
 62
     1
  6
CONTINUOUS
370
    -3
390
29C06
347
29C18
  0
LAYER
  5
29BD6
102
{ACAD_XDICTIONARY
360
29C94
102
}
330
29B93
100
AcDbSymbolTableRecord
100
AcDbLayerTableRecord
  2
TEXT
 70
     0
 62
     1
  6
CONTINUOUS
370
    -3
390
29C06
347
29C18
  0
LAYER
  5
29BD7
102
{ACAD_XDICTIONARY
360
29C96
102
}
330
29B93
100
AcDbSymbolTableRecord
100
AcDbLayerTableRecord
  2
OBJECT
 70
     0
 62
     3
  6
CONTINUOUS
370
    -3
390
29C06
347
29C18
  0
LAYER
  5
29BD8
102
{ACAD_XDICTIONARY
360
29C98
102
}
330
29B93
100
AcDbSymbolTableRecord
100
AcDbLayerTableRecord
  2
BORDER
 70
     0
 62
     5
  6
CONTINUOUS
370
    -3
390
29C06
347
29C18
  0
LAYER
  5
29BDA
102
{ACAD_XDICTIONARY
360
29C9A
102
}
330
29B93
100
AcDbSymbolTableRecord
100
AcDbLayerTableRecord
  2
DATUM
 70
     0
 62
     2
  6
CONTINUOUS
370
    -3
390
29C06
347
29C18
  0
LAYER
  5
29BDD
102
{ACAD_XDICTIONARY
360
29C9C
102
}
330
29B93
100
AcDbSymbolTableRecord
100
AcDbLayerTableRecord
  2
HATCH
 70
     0
 62
     2
  6
CONTINUOUS
370
    -3
390
29C06
347
29C18
  0
LAYER
  5
29BDF
102
{ACAD_XDICTIONARY
360
29C9E
102
}
330
29B93
100
AcDbSymbolTableRecord
100
AcDbLayerTableRecord
  2
HIDDEN2
 70
     0
 62
     6
  6
HIDDEN2
370
    -3
390
29C06
347
29C18
  0
ENDTAB
  0
TABLE
  2
STYLE
  5
29B94
330
0
100
AcDbSymbolTable
 70
     4
  0
STYLE
  5
29BA1
330
29B94
100
AcDbSymbolTableRecord
100
AcDbTextStyleTableRecord
  2
STANDARD
 70
     0
 40
0.0
 41
1.0
 50
0.0
 71
     0
 42
0.2
  3
txt
  4

  0
STYLE
  5
29BC6
330
29B94
100
AcDbSymbolTableRecord
100
AcDbTextStyleTableRecord
  2
SIMPLEX
 70
     0
 40
0.0
 41
1.0
 50
0.0
 71
     0
 42
0.2
  3
SIMPLEX
  4

  0
STYLE
  5
29BC7
330
29B94
100
AcDbSymbolTableRecord
100
AcDbTextStyleTableRecord
  2
ROMANS
 70
     0
 40
0.0
 41
1.0
 50
0.0
 71
     0
 42
0.2
  3
romans
  4

  0
STYLE
  5
29BC9
330
29B94
100
AcDbSymbolTableRecord
100
AcDbTextStyleTableRecord
  2
TITLE
 70
     0
 40
0.0
 41
1.0
 50
0.0
 71
     0
 42
0.125
  3
italic
  4

  0
ENDTAB
  0
TABLE
  2
VIEW
  5
29B97
330
0
100
AcDbSymbolTable
 70
     0
  0
ENDTAB
  0
TABLE
  2
UCS
  5
29B98
330
0
100
AcDbSymbolTable
 70
     0
  0
ENDTAB
  0
TABLE
  2
APPID
  5
29B9A
330
0
100
AcDbSymbolTable
 70
     5
  0
APPID
  5
29BA2
330
29B9A
100
AcDbSymbolTableRecord
100
AcDbRegAppTableRecord
  2
ACAD
 70
     0
  0
APPID
  5
29C8D
330
29B9A
100
AcDbSymbolTableRecord
100
AcDbRegAppTableRecord
  2
AEC_XDATA_BOUND_SPACE
 70
     0
  0
APPID
  5
29C8E
330
29B9A
100
AcDbSymbolTableRecord
100
AcDbRegAppTableRecord
  2
ACAD_EXEMPT_FROM_CAD_STANDARDS
 70
     0
  0
APPID
  5
29CA9
330
29B9A
100
AcDbSymbolTableRecord
100
AcDbRegAppTableRecord
  2
ACAD_NAV_VCDISPLAY
 70
     0
  0
APPID
  5
29CC8
330
29B9A
100
AcDbSymbolTableRecord
100
AcDbRegAppTableRecord
  2
ACAD_MLEADERVER
 70
     0
  0
ENDTAB
  0
TABLE
  2
DIMSTYLE
  5
29B9B
330
0
100
AcDbSymbolTable
 70
     1
100
AcDbDimStyleTable
  0
DIMSTYLE
105
29BD2
330
29B9B
100
AcDbSymbolTableRecord
100
AcDbDimStyleTableRecord
  2
STANDARD
 70
     0
 42
0.063
140
0.1
141
0.1
146
0.7999999999999999
147
0.1
176
     1
177
     1
271
     3
178
     1
271
     3
272
     3
279
     2
340
29BC6
  0
ENDTAB
  0
TABLE
  2
BLOCK_RECORD
  5
29B92
330
0
100
AcDbSymbolTable
 70
     2
  0
BLOCK_RECORD
  5
29BA9
330
29B92
100
AcDbSymbolTableRecord
100
AcDbBlockTableRecord
  2
*MODEL_SPACE
340
29C54
 70
     0
280
     1
281
     0
  0
BLOCK_RECORD
  5
29BA6
330
29B92
100
AcDbSymbolTableRecord
100
AcDbBlockTableRecord
  2
*PAPER_SPACE
340
29C55
 70
     0
280
     1
281
     0
  0
BLOCK_RECORD
  5
29BAD
330
29B92
100
AcDbSymbolTableRecord
100
AcDbBlockTableRecord
  2
P-TITLE
340
0
102
{BLKREFS
331
29BEC
102
}
 70
     0
280
     1
281
     0
  0
BLOCK_RECORD
  5
29BB0
330
29B92
100
AcDbSymbolTableRecord
100
AcDbBlockTableRecord
  2
T-BLK
340
0
102
{BLKREFS
331
7E81
102
}
 70
     0
280
     1
281
     0
  0
ENDTAB
  0
ENDSEC
  0
SECTION
  2
BLOCKS
  0
BLOCK
  5
29BE4
330
29BA9
100
AcDbEntity
  8
DATUM
100
AcDbBlockBegin
  2
*MODEL_SPACE
 70
     0
 10
0.0
 20
0.0
 30
0.0
  3
*MODEL_SPACE
  1

  0
ENDBLK
  5
29BE5
330
29BA9
100
AcDbEntity
  8
DATUM
100
AcDbBlockEnd
  0
BLOCK
  5
29BE2
330
29BA6
100
AcDbEntity
 67
     1
  8
DATUM
100
AcDbBlockBegin
  2
*PAPER_SPACE
 70
     0
 10
0.0
 20
0.0
 30
0.0
  3
*PAPER_SPACE
  1

  0
ENDBLK
  5
29BE3
330
29BA6
100
AcDbEntity
 67
     1
  8
DATUM
100
AcDbBlockEnd
  0
BLOCK
  5
603B
330
29BAD
100
AcDbEntity
  8
0
100
AcDbBlockBegin
  2
P-TITLE
 70
     2
 10
0.0
 20
0.0
 30
0.0
  3
P-TITLE
  1

  0
ATTDEF
  5
603C
330
29BAD
100
AcDbEntity
  8
OBJECT
100
AcDbText
 10
-0.5250000000000004
 20
-1.6875
 30
0.0
 40
0.1
  1
***
  7
ROMANS
100
AcDbAttributeDefinition
  3
WHAT SCALE ARE YOU USING?
  2
SCALE
 70
     0
280
     0
  0
ATTDEF
  5
603D
330
29BAD
100
AcDbEntity
  8
OBJECT
100
AcDbText
 10
-0.5999999999999996
 20
-1.437980115077482
 30
0.0
 40
0.1
  1
****
  7
ROMANS
100
AcDbAttributeDefinition
  3
HOW MANY DO YOU NEED?
  2
#_REQUIRED
 70
     0
280
     0
  0
ATTDEF
  5
603E
330
29BAD
100
AcDbEntity
  8
OBJECT
100
AcDbText
 10
-0.3250000000000002
 20
-1.1875
 30
0.0
 40
0.1
  1
***
  7
ROMANS
100
AcDbAttributeDefinition
  3
MATERIAL?
  2
MATERIAL
 70
     0
280
     0
  0
ATTDEF
  5
603F
330
29BAD
100
AcDbEntity
  8
OBJECT
100
AcDbText
 10
-1.162500000000001
 20
-1.6875
 30
0.0
 40
0.1
  1
SCALE:
  7
ROMANS
100
AcDbAttributeDefinition
  3

  2
SCALE:
 70
     2
280
     0
  0
ATTDEF
  5
6040
330
29BAD
100
AcDbEntity
  8
OBJECT
100
AcDbText
 10
-1.162500000000001
 20
-1.4375
 30
0.0
 40
0.1
  1
REQD:  
  7
ROMANS
100
AcDbAttributeDefinition
  3

  2
REQD:
 70
     2
280
     0
  0
ATTDEF
  5
6041
330
29BAD
100
AcDbEntity
  8
OBJECT
100
AcDbText
 10
-1.162500000000001
 20
-1.1875
 30
0.0
 40
0.1
  1
MATERIAL:
  7
ROMANS
100
AcDbAttributeDefinition
  3

  2
MATERIAL:
 70
     2
280
     0
  0
ATTDEF
  5
6042
330
29BAD
100
AcDbEntity
  8
OBJECT
100
AcDbText
 10
-1.466785714285715
 20
-0.5974999999999997
 30
0.0
 40
0.12
  1
1
  7
ROMANS
 72
     4
 11
-1.3125
 21
-0.5375000000000001
 31
0.0
100
AcDbAttributeDefinition
  3
PART NUMBER
  2
NO.
 70
     0
280
     0
  0
ATTDEF
  5
6043
330
29BAD
100
AcDbEntity
  8
OBJECT
100
AcDbText
 10
-0.9875000000000007
 20
-0.7124999999999999
 30
0.0
 40
0.15
  1
***
  7
ROMANS
100
AcDbAttributeDefinition
  3
DESCRIPTION OF PART
  2
DESCRIPTION
 70
     0
280
     0
  0
LINE
  5
6044
330
29BAD
100
AcDbEntity
  8
OBJECT
100
AcDbLine
 10
1.387499999999999
 20
-0.8624999999999998
 30
0.0
 11
-1.1875
 21
-0.8624999999999998
 31
0.0
  0
LINE
  5
6045
330
29BAD
100
AcDbEntity
  8
OBJECT
100
AcDbLine
 10
-1.112500000000001
 20
-0.7999999999999998
 30
0.0
 11
1.387499999999999
 21
-0.7999999999999998
 31
0.0
  0
CIRCLE
  5
6046
330
29BAD
100
AcDbEntity
  8
OBJECT
100
AcDbCircle
 10
-1.3125
 20
-0.6375000000000002
 30
0.0
 40
0.25
  0
LINE
  5
6047
330
29BAD
100
AcDbEntity
  8
OBJECT
100
AcDbLine
 10
-1.5625
 20
-0.6375000000000002
 30
0.0
 11
-1.0625
 21
-0.6375000000000002
 31
0.0
  0
ATTDEF
  5
6048
330
29BAD
100
AcDbEntity
  8
OBJECT
100
AcDbText
 10
-1.543928571428571
 20
-0.7975000000000003
 30
0.0
 40
0.12
  1
.01
  7
ROMANS
 72
     4
 11
-1.3125
 21
-0.7375000000000003
 31
0.0
100
AcDbAttributeDefinition
  3
ASSY PAGE
  2
PAGE
 70
     0
280
     0
  0
ENDBLK
  5
6049
330
29BAD
100
AcDbEntity
  8
0
100
AcDbBlockEnd
  0
BLOCK
  5
661E
330
29BB0
100
AcDbEntity
  8
0
100
AcDbBlockBegin
  2
T-BLK
 70
     2
 10
0.0
 20
0.0
 30
0.0
  3
T-BLK
  1

  0
LWPOLYLINE
  5
661F
330
29BB0
100
AcDbEntity
  8
BORDER
100
AcDbPolyline
 90
        2
 70
     0
 43
0.0
 10
-2.020730330510332
 20
2.48
 10
-6.230730330510333
 20
2.479999999999999
  0
LWPOLYLINE
  5
6623
330
29BB0
100
AcDbEntity
  8
BORDER
100
AcDbPolyline
 90
        3
 70
     0
 43
0.0
 10
-7.98
 20
1.091109248495146
 10
-7.98
 20
0.0199999999999996
 10
-2.020730330510332
 20
0.0199999999999996
  0
LINE
  5
6628
330
29BB0
100
AcDbEntity
  8
BORDER
100
AcDbLine
 10
-6.230730330510333
 20
1.381109248495145
 30
0.0
 11
-2.020730330510332
 21
1.381109248495145
 31
0.0
  0
LINE
  5
6629
330
29BB0
100
AcDbEntity
  8
BORDER
100
AcDbLine
 10
-2.020730330510332
 20
1.091109248495146
 30
0.0
 11
-7.98
 21
1.091109248495146
 31
0.0
  0
ATTDEF
  5
662A
330
29BB0
100
AcDbEntity
  8
0
 62
     7
100
AcDbText
 10
-6.698162780669641
 20
0.7669952529405766
 30
0.0
 40
0.17
  1
AMES LABORATORY
  7
TITLE
100
AcDbAttributeDefinition
  3

  2
TOP_LINE_LOGO
 70
     2
280
     0
  0
LINE
  5
662B
330
29BB0
100
AcDbEntity
  8
BORDER
100
AcDbLine
 10
-6.230730330510333
 20
1.361109248495145
 30
0.0
 11
-2.020730330510332
 21
1.361109248495145
 31
0.0
  0
LINE
  5
662C
330
29BB0
100
AcDbEntity
  8
BORDER
100
AcDbLine
 10
-2.020730330510332
 20
1.111109248495145
 30
0.0
 11
-6.230730330510333
 21
1.111109248495145
 31
0.0
  0
LWPOLYLINE
  5
662D
330
29BB0
100
AcDbEntity
  8
BORDER
100
AcDbPolyline
 90
        5
 70
     0
 43
0.0
 10
0.0
 20
0.0
 10
0.0
 20
2.5
 10
-8.0
 20
2.5
 10
-8.0
 20
0.0
 10
0.0
 20
0.0
  0
ATTDEF
  5
6634
330
29BB0
100
AcDbEntity
  8
0
100
AcDbText
 10
-6.691813131097959
 20
0.3842645999110657
 30
0.0
 40
0.085
  1
Iowa State University / Ames, Iowa 50011-3020
  7
SIMPLEX
100
AcDbAttributeDefinition
  3

  2
SECOND_LOGO_LINE
 70
     2
280
     0
  0
ATTDEF
  5
6635
330
29BB0
100
AcDbEntity
  8
0
 62
     7
100
AcDbText
 10
-6.693374734676866
 20
0.1467324103005243
 30
0.0
 40
0.125
  1
ENGINEERING SERVICES GROUP
  7
TITLE
100
AcDbAttributeDefinition
  3

  2
BOTTOM_LINE_LOGO
 70
     2
280
     0
  0
ATTDEF
  5
6636
330
29BB0
100
AcDbEntity
  8
0
100
AcDbText
 10
-6.690942941973226
 20
0.5415309283517562
 30
0.0
 40
0.1
  1
Institute for Physical Research and Technology
  7
SIMPLEX
100
AcDbAttributeDefinition
  3

  2
FIRST_LOGO_LINE
 70
     2
280
     0
  0
TEXT
  5
6637
330
29BB0
100
AcDbEntity
  8
TEXT
100
AcDbText
 10
-6.192293609917634
 20
1.253580182982754
 30
0.0
 40
0.06
  1
JO/WO NUMBER:
100
AcDbText
  0
ATTDEF
  5
6638
330
29BB0
100
AcDbEntity
  8
0
100
AcDbText
 10
-6.146971456581131
 20
2.03411122257206
 30
0.0
 40
0.2
  1
***
  7
SIMPLEX
100
AcDbAttributeDefinition
  3
FIRST LINE OF TITLE?
  2
FLINE_TITLE
 70
     0
280
     0
  0
ATTDEF
  5
6639
330
29BB0
100
AcDbEntity
  8
0
100
AcDbText
 10
-6.146971456581131
 20
1.690467266152602
 30
0.0
 40
0.2
  1
***
  7
SIMPLEX
100
AcDbAttributeDefinition
  3
SECOND LINE OF TITLE?
  2
SLINE_TITLE
 70
     0
280
     0
  0
TEXT
  5
663A
330
29BB0
100
AcDbEntity
  8
0
100
AcDbText
 10
-6.147887888259298
 20
1.436348743349257
 30
0.0
 40
0.1
  1
REQUESTOR:
  7
SIMPLEX
100
AcDbText
  0
LINE
  5
663B
330
29BB0
100
AcDbEntity
  8
0
100
AcDbLine
 10
-7.300000000000001
 20
0.8242692132698135
 30
0.0
 11
-7.800000000000001
 21
0.1062692132698144
 31
0.0
  0
LINE
  5
663C
330
29BB0
100
AcDbEntity
  8
0
100
AcDbLine
 10
-6.800000000000001
 20
0.1062692132698144
 30
0.0
 11
-7.300000000000001
 21
0.8242692132698135
 31
0.0
  0
LINE
  5
663D
330
29BB0
100
AcDbEntity
  8
0
100
AcDbLine
 10
-7.300000000000001
 20
0.9492692132698135
 30
0.0
 11
-6.800000000000001
 21
0.1062692132698144
 31
0.0
  0
LINE
  5
663E
330
29BB0
100
AcDbEntity
  8
0
100
AcDbLine
 10
-7.800000000000001
 20
0.1062692132698144
 30
0.0
 11
-7.300000000000001
 21
0.9492692132698135
 31
0.0
  0
CIRCLE
  5
663F
330
29BB0
100
AcDbEntity
  8
0
100
AcDbCircle
 10
-7.289561615363514
 20
0.3562692132698144
 30
0.0
 40
0.1166666666666667
  0
LWPOLYLINE
  5
6640
330
29BB0
100
AcDbEntity
  8
BORDER
100
AcDbPolyline
 90
        3
 70
     0
 43
0.0
 10
-6.250730330510329
 20
2.479999999999999
 10
-7.98
 20
2.479999999999999
 10
-7.98
 20
1.748105042785745
  0
LINE
  5
6645
330
29BB0
100
AcDbEntity
  8
BORDER
100
AcDbLine
 10
-6.230730330510333
 20
2.479999999999999
 30
0.0
 11
-6.230730330510333
 21
1.381109248495145
 31
0.0
  0
LINE
  5
6646
330
29BB0
100
AcDbEntity
  8
BORDER
100
AcDbLine
 10
-6.250730330510329
 20
2.479999999999999
 30
0.0
 11
-6.250730330510333
 21
1.748105042785745
 31
0.0
  0
TEXT
  5
6647
330
29BB0
100
AcDbEntity
  8
TEXT
100
AcDbText
 10
-7.918386835514642
 20
2.371537649751534
 30
0.0
 40
0.08
  1
SCALE:
100
AcDbText
  0
TEXT
  5
6648
330
29BB0
100
AcDbEntity
  8
TEXT
100
AcDbText
 10
-6.186165195932105
 20
2.370791380016078
 30
0.0
 40
0.06
  1
TITLE:
100
AcDbText
  0
LINE
  5
6649
330
29BB0
100
AcDbEntity
  8
BORDER
100
AcDbLine
 10
-6.250730330510329
 20
1.111109248495145
 30
0.0
 11
-7.98
 21
1.111109248495147
 31
0.0
  0
LINE
  5
664A
330
29BB0
100
AcDbEntity
  8
BORDER
100
AcDbLine
 10
-7.979999999999997
 20
1.748105042785747
 30
0.0
 11
-6.250730330510333
 21
1.748105042785744
 31
0.0
  0
LINE
  5
664B
330
29BB0
100
AcDbEntity
  8
BORDER
100
AcDbLine
 10
-7.979999999999997
 20
1.728105042785748
 30
0.0
 11
-6.250730330510333
 21
1.728105042785744
 31
0.0
  0
TEXT
  5
664C
330
29BB0
100
AcDbEntity
  8
0
100
AcDbText
 10
-7.841220418005243
 20
1.193768545403715
 30
0.0
 40
0.125
  1
.XX %%P .01
  7
SIMPLEX
100
AcDbText
  0
TEXT
  5
664D
330
29BB0
100
AcDbEntity
  8
0
100
AcDbText
 10
-7.841220418005243
 20
1.408054259689429
 30
0.0
 40
0.125
  1
.XXX %%P .005
  7
SIMPLEX
100
AcDbText
  0
ATTDEF
  5
664E
330
29BB0
100
AcDbEntity
  8
0
100
AcDbText
 10
-7.835514766961644
 20
2.017516067498457
 30
0.0
 40
0.13
  1
***
  7
SIMPLEX
100
AcDbAttributeDefinition
  3
ENTER SCALE
  2
DWG_:_ACT
 70
     0
280
     0
  0
LWPOLYLINE
  5
664F
330
29BB0
100
AcDbEntity
  8
BORDER
100
AcDbPolyline
 90
        2
 70
     0
 43
0.0
 10
-7.98
 20
1.728105042785746
 10
-7.98
 20
1.111109248495147
  0
TEXT
  5
6653
330
29BB0
100
AcDbEntity
  8
TEXT
100
AcDbText
 10
-7.919055782961202
 20
1.608704948758236
 30
0.0
 40
0.06
  1
TOLERANCES:
100
AcDbText
  0
LINE
  5
6654
330
29BB0
100
AcDbEntity
  8
BORDER
100
AcDbLine
 10
-6.250730330510333
 20
1.728105042785744
 30
0.0
 11
-6.250730330510333
 21
1.111109248495145
 31
0.0
  0
LINE
  5
6655
330
29BB0
100
AcDbEntity
  8
BORDER
100
AcDbLine
 10
-6.230730330510333
 20
1.361109248495145
 30
0.0
 11
-6.230730330510333
 21
1.111109248495145
 31
0.0
  0
LWPOLYLINE
  5
6656
330
29BB0
100
AcDbEntity
  8
BORDER
100
AcDbPolyline
 90
        3
 70
     0
 43
0.0
 10
-0.019999999999996
 20
1.748105042785745
 10
-0.019999999999996
 20
2.48
 10
-2.000730330510333
 20
2.48
  0
LINE
  5
665B
330
29BB0
100
AcDbEntity
  8
BORDER
100
AcDbLine
 10
-2.000730330510336
 20
1.728105042785748
 30
0.0
 11
-0.019999999999996
 21
1.728105042785744
 31
0.0
  0
LINE
  5
665C
330
29BB0
100
AcDbEntity
  8
BORDER
100
AcDbLine
 10
-2.000730330510336
 20
1.748105042785745
 30
0.0
 11
-0.019999999999996
 21
1.748105042785744
 31
0.0
  0
LWPOLYLINE
  5
665D
330
29BB0
100
AcDbEntity
  8
BORDER
100
AcDbPolyline
 90
        2
 70
     0
 43
0.0
 10
-2.000730330510333
 20
0.0199999999999996
 10
-0.019999999999996
 20
0.0199999999999996
  0
LINE
  5
6661
330
29BB0
100
AcDbEntity
  8
BORDER
100
AcDbLine
 10
-2.000730330510333
 20
0.8774998615443206
 30
0.0
 11
-0.019999999999996
 21
0.8774998615443206
 31
0.0
  0
LINE
  5
6662
330
29BB0
100
AcDbEntity
  8
BORDER
100
AcDbLine
 10
-2.000730330510333
 20
0.8974998615443202
 30
0.0
 11
-0.019999999999996
 21
0.8974998615443202
 31
0.0
  0
LINE
  5
6663
330
29BB0
100
AcDbEntity
  8
TEXT
 62
     2
100
AcDbLine
 10
-2.000730330510333
 20
1.19066379334865
 30
0.0
 11
-0.019999999999996
 21
1.19066379334865
 31
0.0
  0
LINE
  5
6664
330
29BB0
100
AcDbEntity
  8
TEXT
 62
     2
100
AcDbLine
 10
-0.019999999999996
 20
1.456080483091261
 30
0.0
 11
-2.000730330510333
 21
1.456080483091261
 31
0.0
  0
LINE
  5
6665
330
29BB0
100
AcDbEntity
  8
TEXT
 62
     2
100
AcDbLine
 10
-2.000730330510333
 20
0.4437499307721584
 30
0.0
 11
-0.0200000000000031
 21
0.4437499307721584
 31
0.0
  0
LINE
  5
6666
330
29BB0
100
AcDbEntity
  8
BORDER
100
AcDbLine
 10
-2.020730330510332
 20
1.091109248495146
 30
0.0
 11
-2.020730330510332
 21
0.0199999999999996
 31
0.0
  0
LINE
  5
6667
330
29BB0
100
AcDbEntity
  8
BORDER
100
AcDbLine
 10
-2.000730330510333
 20
0.8774998615443206
 30
0.0
 11
-2.000730330510333
 21
0.0199999999999996
 31
0.0
  0
ATTDEF
  5
6668
330
29BB0
100
AcDbEntity
  8
0
100
AcDbText
 10
-1.940291179278251
 20
0.5049608133436783
 30
0.0
 40
0.125
  1
***
  7
SIMPLEX
100
AcDbAttributeDefinition
  3
ACAD NUMBER (Example - filename.disk#)
  2
CAD_NUMBER
 70
     0
280
     0
  0
TEXT
  5
6669
330
29BB0
100
AcDbEntity
  8
TEXT
100
AcDbText
 10
-1.939845251415054
 20
0.312068574868297
 30
0.0
 40
0.06
  1
FILE NUMBER:
100
AcDbText
  0
ATTDEF
  5
666A
330
29BB0
100
AcDbEntity
  8
0
100
AcDbText
 10
-1.939597083614473
 20
0.0835693487308422
 30
0.0
 40
0.125
  1
***
  7
SIMPLEX
100
AcDbAttributeDefinition
  3
(Example: M99-99999-99.99)
  2
FILE_NUMBER
 70
     0
280
     0
  0
ARC
  5
666B
330
29BB0
100
AcDbEntity
  8
0
100
AcDbCircle
 10
-2.547338971330674
 20
0.262515735328674
 30
0.0
 40
0.0587143588478629
100
AcDbArc
 50
270.0
 51
51.38006886992486
  0
LINE
  5
666C
330
29BB0
100
AcDbEntity
  8
0
100
AcDbLine
 10
-2.602710164528251
 20
0.4202961415120177
 30
0.0
 11
-2.491967778133098
 21
0.3318285655238418
 31
0.0
  0
ARC
  5
666D
330
29BB0
100
AcDbEntity
  8
0
100
AcDbCircle
 10
-2.547338971330674
 20
0.262515735328674
 30
0.0
 40
0.0887143588478629
100
AcDbArc
 50
270.0
 51
51.38006886992486
  0
LINE
  5
666E
330
29BB0
100
AcDbEntity
  8
0
100
AcDbLine
 10
-2.547338971330674
 20
0.6083233305550468
 30
0.0
 11
-2.458624612482812
 21
0.6083233305550468
 31
0.0
  0
LINE
  5
666F
330
29BB0
100
AcDbEntity
  8
0
100
AcDbLine
 10
-2.547338971330674
 20
0.5783233305550493
 30
0.0
 11
-2.458624612482812
 21
0.5783233305550493
 31
0.0
  0
LINE
  5
6670
330
29BB0
100
AcDbEntity
  8
0
100
AcDbLine
 10
-2.837794065745545
 20
0.262515735328674
 30
0.0
 11
-2.822461696717102
 21
0.236729722453946
 31
0.0
  0
LINE
  5
6671
330
29BB0
100
AcDbEntity
  8
0
100
AcDbLine
 10
-2.688594056589714
 20
0.3163274512447911
 30
0.0
 11
-2.822461696717102
 21
0.236729722453946
 31
0.0
  0
ARC
  5
6672
330
29BB0
100
AcDbEntity
  8
0
100
AcDbCircle
 10
-2.837794065745545
 20
0.262515735328674
 30
0.0
 40
0.0587143588478612
100
AcDbArc
 50
90.0
 51
270.0
  0
ARC
  5
6673
330
29BB0
100
AcDbEntity
  8
0
100
AcDbCircle
 10
-2.837794065745545
 20
0.262515735328674
 30
0.0
 40
0.0887143588478612
100
AcDbArc
 50
90.0
 51
270.0
  0
LINE
  5
6674
330
29BB0
100
AcDbEntity
  8
0
100
AcDbLine
 10
-2.837794065745545
 20
0.2038013764808122
 30
0.0
 11
-2.547338971330674
 21
0.2038013764808122
 31
0.0
  0
LINE
  5
6675
330
29BB0
100
AcDbEntity
  8
0
100
AcDbLine
 10
-2.837794065745545
 20
0.173801376480812
 30
0.0
 11
-2.547338971330674
 21
0.173801376480812
 31
0.0
  0
LINE
  5
6676
330
29BB0
100
AcDbEntity
  8
0
100
AcDbLine
 10
-2.739048124373156
 20
0.3212300941765376
 30
0.0
 11
-2.837794065745545
 21
0.3212300941765358
 31
0.0
  0
LINE
  5
6677
330
29BB0
100
AcDbEntity
  8
0
100
AcDbLine
 10
-2.739048124373156
 20
0.3212300941765376
 30
0.0
 11
-2.837794065745545
 21
0.262515735328674
 31
0.0
  0
LINE
  5
6678
330
29BB0
100
AcDbEntity
  8
0
100
AcDbLine
 10
-2.688594056589714
 20
0.3512300941765352
 30
0.0
 11
-2.837794065745545
 21
0.3512300941765352
 31
0.0
  0
ARC
  5
6679
330
29BB0
100
AcDbEntity
  8
0
100
AcDbCircle
 10
-2.547338971330674
 20
0.4896089717071854
 30
0.0
 40
0.1187143588478629
100
AcDbArc
 50
90.0
 51
231.3800688699256
  0
LINE
  5
667A
330
29BB0
100
AcDbEntity
  8
0
100
AcDbLine
 10
-2.621434707178398
 20
0.396857039512521
 30
0.0
 11
-2.510692320783246
 21
0.3083894635243452
 31
0.0
  0
ARC
  5
667B
330
29BB0
100
AcDbEntity
  8
0
100
AcDbCircle
 10
-2.547338971330674
 20
0.4896089717071854
 30
0.0
 40
0.0887143588478629
100
AcDbArc
 50
90.0
 51
231.3800688699256
  0
LINE
  5
667C
330
29BB0
100
AcDbEntity
  8
0
100
AcDbLine
 10
-2.688594056589714
 20
0.3512300941765352
 30
0.0
 11
-2.688594056589714
 21
0.3163274512447911
 31
0.0
  0
LINE
  5
667D
330
29BB0
100
AcDbEntity
  8
0
100
AcDbLine
 10
-2.244498011936777
 20
0.2091882213449638
 30
0.0
 11
-2.244498011936773
 21
0.3212300941765358
 31
0.0
  0
ARC
  5
667E
330
29BB0
100
AcDbEntity
  8
0
100
AcDbCircle
 10
-2.325466698990429
 20
0.2652091577607498
 30
0.0
 40
0.0560209364157853
100
AcDbArc
 50
90.0
 51
270.0
  0
ARC
  5
667F
330
29BB0
100
AcDbEntity
  8
0
100
AcDbCircle
 10
-2.325466698990429
 20
0.2652091577607498
 30
0.0
 40
0.0860209364157853
100
AcDbArc
 50
90.0
 51
270.0
  0
LINE
  5
6680
330
29BB0
100
AcDbEntity
  8
0
100
AcDbLine
 10
-2.214498011936776
 20
0.1441951921742719
 30
0.0
 11
-2.214498011936772
 21
0.3512300941765352
 31
0.0
  0
LINE
  5
6681
330
29BB0
100
AcDbEntity
  8
0
100
AcDbLine
 10
-2.411487635406214
 20
0.1362692132698138
 30
0.0
 11
-2.411487635406214
 21
0.1062692132698153
 31
0.0
  0
LINE
  5
6682
330
29BB0
100
AcDbEntity
  8
0
100
AcDbLine
 10
-2.325466698990429
 20
0.2091882213449647
 30
0.0
 11
-2.244498011936777
 21
0.209188221344963
 31
0.0
  0
LINE
  5
6683
330
29BB0
100
AcDbEntity
  8
0
100
AcDbLine
 10
-2.244498011936777
 20
0.1441951921742728
 30
0.0
 11
-2.244498011936777
 21
0.1791882213449627
 31
0.0
  0
ARC
  5
6684
330
29BB0
100
AcDbEntity
  8
0
100
AcDbCircle
 10
-2.252423990841233
 20
0.1441951921742719
 30
0.0
 40
0.0079259789044571
100
AcDbArc
 50
270.0
 51
0.0
  0
LINE
  5
6685
330
29BB0
100
AcDbEntity
  8
0
100
AcDbLine
 10
-2.411487635406214
 20
0.1362692132698138
 30
0.0
 11
-2.252423990841233
 21
0.1362692132698147
 31
0.0
  0
ARC
  5
6686
330
29BB0
100
AcDbEntity
  8
0
100
AcDbCircle
 10
-2.252423990841233
 20
0.1441951921742719
 30
0.0
 40
0.0379259789044571
100
AcDbArc
 50
270.0
 51
0.0
  0
LINE
  5
6687
330
29BB0
100
AcDbEntity
  8
0
100
AcDbLine
 10
-2.325466698990429
 20
0.1791882213449636
 30
0.0
 11
-2.244498011936777
 21
0.1791882213449627
 31
0.0
  0
LINE
  5
6688
330
29BB0
100
AcDbEntity
  8
0
100
AcDbLine
 10
-2.411487635406214
 20
0.1062692132698153
 30
0.0
 11
-2.252423990841233
 21
0.1062692132698144
 31
0.0
  0
LINE
  5
6689
330
29BB0
100
AcDbEntity
  8
0
100
AcDbLine
 10
-2.458624612482812
 20
0.6083233305550468
 30
0.0
 11
-2.458624612482812
 21
0.5783233305550493
 31
0.0
  0
LINE
  5
668A
330
29BB0
100
AcDbEntity
  8
0
100
AcDbLine
 10
-2.244498011936773
 20
0.3212300941765358
 30
0.0
 11
-2.325466698990429
 21
0.3212300941765358
 31
0.0
  0
LINE
  5
668B
330
29BB0
100
AcDbEntity
  8
0
100
AcDbLine
 10
-2.214498011936772
 20
0.3512300941765352
 30
0.0
 11
-2.325466698990429
 21
0.3512300941765352
 31
0.0
  0
ATTDEF
  5
668C
330
29BB0
100
AcDbEntity
  8
0
100
AcDbText
 10
-5.175887888259297
 20
1.436348743349257
 30
0.0
 40
0.1
  1
***
  7
SIMPLEX
100
AcDbAttributeDefinition
  3
REQUESTOR?
  2
REQUESTOR
 70
     0
280
     0
  0
ATTDEF
  5
668D
330
29BB0
100
AcDbEntity
  8
0
100
AcDbText
 10
-5.313867918038127
 20
1.173648743349258
 30
0.0
 40
0.125
  1
***
  7
SIMPLEX
100
AcDbAttributeDefinition
  3
JOB, WORK OR DAY SHEET NUMBER?
  2
J.O.N.
 70
     0
280
     0
  0
LINE
  5
668E
330
29BB0
100
AcDbEntity
  8
BORDER
100
AcDbLine
 10
-2.020730330510332
 20
2.480000000000002
 30
0.0
 11
-2.020730330510336
 21
1.381109248495145
 31
0.0
  0
LINE
  5
668F
330
29BB0
100
AcDbEntity
  8
BORDER
100
AcDbLine
 10
-2.000730330510333
 20
2.480000000000002
 30
0.0
 11
-2.000730330510333
 21
1.748105042785747
 31
0.0
  0
TEXT
  5
6690
330
29BB0
100
AcDbEntity
  8
TEXT
100
AcDbText
 10
-1.927754661968038
 20
2.366171748061648
 30
0.0
 40
0.06
  1
REVISIONS:
100
AcDbText
  0
TEXT
  5
6691
330
29BB0
100
AcDbEntity
  8
TEXT
100
AcDbText
 10
-1.941127080659825
 20
0.7449832089821466
 30
0.0
 40
0.06
  1
CAD NUMBER:
100
AcDbText
  0
TEXT
  5
6692
330
29BB0
100
AcDbEntity
  8
TEXT
100
AcDbText
 10
-1.945216685738259
 20
1.648279667137581
 30
0.0
 40
0.05
  1
DATE:
100
AcDbText
  0
TEXT
  5
6693
330
29BB0
100
AcDbEntity
  8
TEXT
100
AcDbText
 10
-1.945216685738259
 20
1.386297541935566
 30
0.0
 40
0.05
  1
DESIGNED BY:
100
AcDbText
  0
TEXT
  5
6694
330
29BB0
100
AcDbEntity
  8
TEXT
100
AcDbText
 10
-1.950328692086302
 20
1.11950364488939
 30
0.0
 40
0.05
  1
APP. BY:
100
AcDbText
  0
LINE
  5
6695
330
29BB0
100
AcDbEntity
  8
BORDER
100
AcDbLine
 10
-2.000730330510333
 20
1.728105042785749
 30
0.0
 11
-2.000730330510333
 21
0.8974998615443202
 31
0.0
  0
LINE
  5
6696
330
29BB0
100
AcDbEntity
  8
BORDER
100
AcDbLine
 10
-2.020730330510336
 20
1.361109248495143
 30
0.0
 11
-2.020730330510332
 21
1.111109248495145
 31
0.0
  0
ATTDEF
  5
6697
330
29BB0
100
AcDbEntity
  8
0
100
AcDbText
 10
-1.704126691764781
 20
1.501142427424082
 30
0.0
 40
0.125
  1
***
  7
SIMPLEX
100
AcDbAttributeDefinition
  3
DATE: ? (Example - 29 Feb 2001)
  2
DATE
 70
     0
280
     0
  0
ATTDEF
  5
6698
330
29BB0
100
AcDbEntity
  8
0
100
AcDbText
 10
-1.715144879658755
 20
1.225167620959432
 30
0.0
 40
0.125
  1
***
  7
SIMPLEX
100
AcDbAttributeDefinition
  3
DESIGNED BY?
  2
DESN
 70
     0
280
     0
  0
LINE
  5
6699
330
29BB0
100
AcDbEntity
  8
TEXT
 62
     2
100
AcDbLine
 10
-1.000730330510333
 20
1.19066379334865
 30
0.0
 11
-1.000730330510333
 21
0.8974998615443202
 31
0.0
  0
TEXT
  5
669A
330
29BB0
100
AcDbEntity
  8
TEXT
100
AcDbText
 10
-0.9815436058020026
 20
1.110295807050656
 30
0.0
 40
0.05
  1
DATE:
100
AcDbText
  0
LWPOLYLINE
  5
669B
330
29BB0
100
AcDbEntity
  8
BORDER
100
AcDbPolyline
 90
        2
 70
     0
 43
0.0
 10
-0.019999999999996
 20
0.0199999999999996
 10
-0.019999999999996
 20
0.8774998615443206
  0
LWPOLYLINE
  5
669F
330
29BB0
100
AcDbEntity
  8
BORDER
100
AcDbPolyline
 90
        2
 70
     0
 43
0.0
 10
-0.019999999999996
 20
0.8974998615443202
 10
-0.019999999999996
 20
1.728105042785746
  0
ENDBLK
  5
66A3
330
29BB0
100
AcDbEntity
  8
0
100
AcDbBlockEnd
  0
ENDSEC
  0
SECTION
  2
ENTITIES
  0
INSERT
  5
7E81
330
29BA9
100
AcDbEntity
  8
TEXT
100
AcDbBlockReference
 66
     1
  2
T-BLK
 10
33.0
 20
-0.0000000000000007
 30
0.0
1001
AEC_XDATA_BOUND_SPACE
1070
   100
1070
     1
  0
ATTRIB
  5
7E82
330
7E81
100
AcDbEntity
  8
0
100
AcDbText
 10
26.85302854341887
 20
2.034111222572059
 30
0.0
 40
0.2
  1
ABC COMPUTER
  7
SIMPLEX
100
AcDbAttribute
  2
FLINE_TITLE
 70
     0
280
     0
  0
ATTRIB
  5
7E83
330
7E81
100
AcDbEntity
  8
0
100
AcDbText
 10
26.85302854341887
 20
1.690467266152601
 30
0.0
 40
0.2
  1
CONTROL PANEL FRAME
  7
SIMPLEX
100
AcDbAttribute
  2
SLINE_TITLE
 70
     0
280
     0
  0
ATTRIB
  5
7E84
330
7E81
100
AcDbEntity
  8
0
100
AcDbText
 10
25.16448523303835
 20
2.017516067498456
 30
0.0
 40
0.13
  1
FULL SIZE
  7
SIMPLEX
100
AcDbAttribute
  2
DWG_:_ACT
 70
     0
280
     0
  0
ATTRIB
  5
7E85
330
7E81
100
AcDbEntity
  8
0
100
AcDbText
 10
31.05970882072175
 20
0.5049608133436774
 30
0.0
 40
0.125
  1
103231051.DWG
  7
SIMPLEX
100
AcDbAttribute
  2
CAD_NUMBER
 70
     0
280
     0
  0
ATTRIB
  5
7E86
330
7E81
100
AcDbEntity
  8
0
100
AcDbText
 10
31.06040291638553
 20
0.0835693487308415
 30
0.0
 40
0.125
  1
10323-10.51
  7
SIMPLEX
100
AcDbAttribute
  2
FILE_NUMBER
 70
     0
280
     0
  0
ATTRIB
  5
7E87
330
7E81
100
AcDbEntity
  8
0
100
AcDbText
 10
27.8241121117407
 20
1.436348743349256
 30
0.0
 40
0.1
  1
ISU FOUNDATION
  7
SIMPLEX
100
AcDbAttribute
  2
REQUESTOR
 70
     0
280
     0
  0
ATTRIB
  5
7E88
330
7E81
100
AcDbEntity
  8
0
100
AcDbText
 10
27.68613208196187
 20
1.173648743349257
 30
0.0
 40
0.125
  1
L00968
  7
SIMPLEX
100
AcDbAttribute
  2
J.O.N.
 70
     0
280
     0
  0
ATTRIB
  5
7E89
330
7E81
100
AcDbEntity
  8
0
100
AcDbText
 10
31.29587330823522
 20
1.501142427424081
 30
0.0
 40
0.125
  1
*
  7
SIMPLEX
100
AcDbAttribute
  2
DATE
 70
     0
280
     0
  0
ATTRIB
  5
7E8A
330
7E81
100
AcDbEntity
  8
0
100
AcDbText
 10
31.28485512034125
 20
1.225167620959431
 30
0.0
 40
0.125
  1
DHB
  7
SIMPLEX
100
AcDbAttribute
  2
DESN
 70
     0
280
     0
  0
SEQEND
  5
7E8B
330
7E81
100
AcDbEntity
  8
TEXT
  0
LINE
  5
7EA6
330
29BA9
100
AcDbEntity
  8
BORDER
100
AcDbLine
 10
33.0
 20
-0.0000000000000007
 30
0.0
 11
33.0
 21
21.0
 31
0.0
  0
LINE
  5
7EA7
330
29BA9
100
AcDbEntity
  8
BORDER
100
AcDbLine
 10
0.0
 20
-0.0000000000000007
 30
0.0
 11
0.0
 21
21.0
 31
0.0
  0
LINE
  5
7EA8
330
29BA9
100
AcDbEntity
  8
BORDER
100
AcDbLine
 10
0.0
 20
-0.0000000000000007
 30
0.0
 11
33.0
 21
-0.0000000000000007
 31
0.0
  0
LINE
  5
7EDC
330
29BA9
100
AcDbEntity
  8
BORDER
100
AcDbLine
 10
0.0
 20
21.0
 30
0.0
 11
33.0
 21
21.0
 31
0.0
  0
LINE
  5
283A8
330
29BA9
100
AcDbEntity
  8
OBJECT
100
AcDbLine
 10
4.300415291827853
 20
21.45998922032549
 30
0.0
 11
4.300415291827846
 21
23.20438816716116
 31
0.0
  0
LINE
  5
283AA
330
29BA9
100
AcDbEntity
  8
OBJECT
100
AcDbLine
 10
3.126418540609379
 20
21.45998922032549
 30
0.0
 11
3.126418540609376
 21
23.20438816716116
 31
0.0
  0
CIRCLE
  5
286B1
330
29BA9
100
AcDbEntity
  8
HATCH
100
AcDbCircle
 10
3.063918540609379
 20
22.82941831279741
 30
0.0
 40
0.0095
  0
CIRCLE
  5
286B2
330
29BA9
100
AcDbEntity
  8
HATCH
100
AcDbCircle
 10
3.063918540609379
 20
22.22079365546697
 30
0.0
 40
0.0095
  0
CIRCLE
  5
286B3
330
29BA9
100
AcDbEntity
  8
HATCH
100
AcDbCircle
 10
3.063918540609379
 20
21.61216902208992
 30
0.0
 40
0.0095
  0
LINE
  5
286C8
330
29BA9
100
AcDbEntity
  8
OBJECT
100
AcDbLine
 10
3.02407619012015
 20
21.29964652475552
 30
0.0
 11
0.2537608910986023
 21
21.29964652475552
 31
0.0
  0
LINE
  5
286C9
330
29BA9
100
AcDbEntity
  8
OBJECT
100
AcDbLine
 10
0.1674185406093713
 20
21.20730417426629
 30
0.0
 11
3.110418540609379
 21
21.20730417426629
 31
0.0
  0
CIRCLE
  5
286CF
330
29BA9
100
AcDbEntity
  8
HATCH
100
AcDbCircle
 10
0.5701685406093759
 20
21.26014532058575
 30
0.0
 40
0.0095
  0
CIRCLE
  5
286D0
330
29BA9
100
AcDbEntity
  8
OBJECT
100
AcDbCircle
 10
0.7826685406093761
 20
21.2573041742663
 30
0.0
 40
0.012
  0
CIRCLE
  5
286D3
330
29BA9
100
AcDbEntity
  8
OBJECT
100
AcDbCircle
 10
0.9201685406093758
 20
21.2573041742663
 30
0.0
 40
0.012
  0
CIRCLE
  5
286DF
330
29BA9
100
AcDbEntity
  8
HATCH
100
AcDbCircle
 10
1.638918540609376
 20
21.26014532058575
 30
0.0
 40
0.0095
  0
CIRCLE
  5
286E2
330
29BA9
100
AcDbEntity
  8
OBJECT
100
AcDbCircle
 10
2.357668540609379
 20
21.2573041742663
 30
0.0
 40
0.012
  0
CIRCLE
  5
286E8
330
29BA9
100
AcDbEntity
  8
OBJECT
100
AcDbCircle
 10
2.495168540609379
 20
21.2573041742663
 30
0.0
 40
0.012
  0
CIRCLE
  5
286F3
330
29BA9
100
AcDbEntity
  8
HATCH
100
AcDbCircle
 10
2.707668540609376
 20
21.26014532058575
 30
0.0
 40
0.0095
  0
ARC
  5
286F8
330
29BA9
100
AcDbEntity
  8
OBJECT
100
AcDbCircle
 10
3.374315289327581
 20
21.2198041742663
 30
0.0
 40
0.0125
100
AcDbArc
 50
270.0
 51
0.0000000000000509
  0
LINE
  5
286FD
330
29BA9
100
AcDbEntity
  8
OBJECT
100
AcDbLine
 10
3.2324032486167
 20
21.30105086760531
 30
0.0
 11
3.228657800626249
 21
21.29964652475552
 31
0.0
  0
LINE
  5
286FF
330
29BA9
100
AcDbEntity
  8
OBJECT
100
AcDbLine
 10
3.271944186828077
 20
21.20730417426629
 30
0.0
 11
3.374315289327581
 21
21.20730417426629
 31
0.0
  0
ARC
  5
28701
330
29BA9
100
AcDbEntity
  8
OBJECT
100
AcDbCircle
 10
3.271944186828077
 20
21.21980417426629
 30
0.0
 40
0.0125
100
AcDbArc
 50
200.8191457365013
 51
270.0
  0
LINE
  5
28704
330
29BA9
100
AcDbEntity
  8
OBJECT
100
AcDbLine
 10
3.386815289327581
 20
21.3573041742663
 30
0.0
 11
3.382815289327581
 21
21.3573041742663
 31
0.0
  0
LINE
  5
28712
330
29BA9
100
AcDbEntity
  8
OBJECT
100
AcDbLine
 10
3.260260349790139
 20
21.21536143276235
 30
0.0
 11
3.228657800626249
 21
21.29964652475552
 31
0.0
  0
LINE
  5
28713
330
29BA9
100
AcDbEntity
  8
OBJECT
100
AcDbLine
 10
3.386815289327581
 20
21.2198041742663
 30
0.0
 11
3.386815289327581
 21
21.3573041742663
 31
0.0
  0
LINE
  5
28714
330
29BA9
100
AcDbEntity
  8
OBJECT
100
AcDbLine
 10
2.966418540609379
 20
21.3573041742663
 30
0.0
 11
0.3114185406093725
 21
21.3573041742663
 31
0.0
  0
LINE
  5
28715
330
29BA9
100
AcDbEntity
  8
OBJECT
100
AcDbLine
 10
3.12241854060938
 20
21.21930417426629
 30
0.0
 11
3.12241854060938
 21
21.3133041742663
 31
0.0
  0
ARC
  5
28719
330
29BA9
100
AcDbEntity
  8
OBJECT
100
AcDbCircle
 10
3.110418540609379
 20
21.21930417426629
 30
0.0
 40
0.0120000000000001
100
AcDbArc
 50
270.0
 51
0.0
  0
LINE
  5
2871A
330
29BA9
100
AcDbEntity
  8
OBJECT
100
AcDbLine
 10
3.112214372132914
 20
21.21150834274276
 30
0.0
 11
2.966418540609377
 21
21.3573041742663
 31
0.0
  0
LINE
  5
2871C
330
29BA9
100
AcDbEntity
  8
OBJECT
100
AcDbLine
 10
0.1656227090860227
 20
21.21150834274295
 30
0.0
 11
0.3114185406093725
 21
21.3573041742663
 31
0.0
  0
LINE
  5
2871D
330
29BA9
100
AcDbEntity
  8
OBJECT
100
AcDbLine
 10
0.1554185406093709
 20
21.21930417426629
 30
0.0
 11
0.1554185406093709
 21
21.3133041742663
 31
0.0
  0
ARC
  5
2871F
330
29BA9
100
AcDbEntity
  8
OBJECT
100
AcDbCircle
 10
0.1674185406093713
 20
21.21930417426629
 30
0.0
 40
0.0120000000000001
100
AcDbArc
 50
180.0
 51
270.0
  0
LINE
  5
28722
330
29BA9
100
AcDbEntity
  8
OBJECT
100
AcDbLine
 10
3.374315289327581
 20
21.20730417426629
 30
0.0
 11
3.374315289327581
 21
21.3133041742663
 31
0.0
  0
LINE
  5
28723
330
29BA9
100
AcDbEntity
  8
OBJECT
100
AcDbLine
 10
3.271944186828077
 20
21.20730417426629
 30
0.0
 11
3.271944186828077
 21
21.3133041742663
 31
0.0
  0
LINE
  5
28724
330
29BA9
100
AcDbEntity
  8
OBJECT
100
AcDbLine
 10
3.271944186828077
 20
21.3133041742663
 30
0.0
 11
3.374315289327581
 21
21.3133041742663
 31
0.0
  0
ARC
  5
2872D
330
29BA9
100
AcDbEntity
  8
OBJECT
100
AcDbCircle
 10
3.719165291827849
 20
23.52331617070964
 30
0.0
 40
0.15
100
AcDbArc
 50
90.0
 51
200.5533609143858
  0
LINE
  5
2872E
330
29BA9
100
AcDbEntity
  8
OBJECT
100
AcDbLine
 10
3.030418540609378
 20
23.36096073302308
 30
0.0
 11
0.2474185406093724
 21
23.36096073302308
 31
0.0
  0
LINE
  5
2872F
330
29BA9
100
AcDbEntity
  8
OBJECT
100
AcDbLine
 10
0.1674185406093727
 20
23.67331617070964
 30
0.0
 11
3.110418540609377
 21
23.67331617070964
 31
0.0
  0
CIRCLE
  5
28731
330
29BA9
100
AcDbEntity
  8
HATCH
100
AcDbCircle
 10
0.5701685406093759
 20
23.39168519934539
 30
0.0
 40
0.0095
  0
CIRCLE
  5
28732
330
29BA9
100
AcDbEntity
  8
HATCH
100
AcDbCircle
 10
1.638918540609376
 20
23.39168519934539
 30
0.0
 40
0.0095
  0
CIRCLE
  5
28733
330
29BA9
100
AcDbEntity
  8
HATCH
100
AcDbCircle
 10
2.707668540609376
 20
23.39168519934539
 30
0.0
 40
0.0095
  0
ARC
  5
28737
330
29BA9
100
AcDbEntity
  8
OBJECT
100
AcDbCircle
 10
3.56566224487558
 20
23.41573915375728
 30
0.0
 40
0.044
100
AcDbArc
 50
20.55336091438666
 51
50.43904469482283
  0
ARC
  5
28739
330
29BA9
100
AcDbEntity
  8
OBJECT
100
AcDbCircle
 10
3.625530729161651
 20
23.48820821328814
 30
0.0
 40
0.0500000000000003
100
AcDbArc
 50
200.5533609143858
 51
230.4390446948216
  0
LINE
  5
2873D
330
29BA9
100
AcDbEntity
  8
OBJECT
100
AcDbLine
 10
3.719165291827849
 20
23.67331617070964
 30
0.0
 11
4.287915291827846
 21
23.67331617070964
 31
0.0
  0
ARC
  5
2873F
330
29BA9
100
AcDbEntity
  8
OBJECT
100
AcDbCircle
 10
4.287915291827846
 20
23.66081617070964
 30
0.0
 40
0.0125
100
AcDbArc
 50
0.0000000000000509
 51
90.0000000000002
  0
LINE
  5
28740
330
29BA9
100
AcDbEntity
  8
HIDDEN2
100
AcDbLine
 10
4.296415291827848
 20
23.61081617070964
 30
0.0
 11
4.300415291827849
 21
23.61081617070964
 31
0.0
  0
LINE
  5
28742
330
29BA9
100
AcDbEntity
  8
OBJECT
100
AcDbLine
 10
3.633192420514831
 20
23.36096073302309
 30
0.0
 11
3.606861452448709
 21
23.43118665502274
 31
0.0
  0
LINE
  5
28743
330
29BA9
100
AcDbEntity
  8
OBJECT
100
AcDbLine
 10
4.300415291827849
 20
23.61081617070964
 30
0.0
 11
4.300415291827846
 21
23.66081617070964
 31
0.0
  0
LINE
  5
28744
330
29BA9
100
AcDbEntity
  8
OBJECT
100
AcDbLine
 10
3.719165291827849
 20
23.57331617070964
 30
0.0
 11
4.287915291827846
 21
23.57331617070964
 31
0.0
  0
LINE
  5
28745
330
29BA9
100
AcDbEntity
  8
OBJECT
100
AcDbLine
 10
4.287915291827846
 20
23.57331617070964
 30
0.0
 11
4.287915291827846
 21
23.67331617070964
 31
0.0
  0
LINE
  5
28746
330
29BA9
100
AcDbEntity
  8
OBJECT
100
AcDbLine
 10
3.719165291827849
 20
23.57331617070964
 30
0.0
 11
3.719165291827849
 21
23.66931617070964
 31
0.0
  0
ARC
  5
28747
330
29BA9
100
AcDbEntity
  8
OBJECT
100
AcDbCircle
 10
3.719165291827849
 20
23.52331617070964
 30
0.0
 40
0.125
100
AcDbArc
 50
92.3470943129727
 51
102.6529056870271
  0
ARC
  5
28792
330
29BA9
100
AcDbEntity
  8
OBJECT
100
AcDbCircle
 10
3.719165291827849
 20
23.52331617070964
 30
0.0
 40
0.125
100
AcDbArc
 50
107.3470943129727
 51
117.6529056870275
  0
ARC
  5
28793
330
29BA9
100
AcDbEntity
  8
OBJECT
100
AcDbCircle
 10
3.719165291827849
 20
23.52331617070964
 30
0.0
 40
0.125
100
AcDbArc
 50
122.3470943129728
 51
132.6529056870269
  0
ARC
  5
28794
330
29BA9
100
AcDbEntity
  8
OBJECT
100
AcDbCircle
 10
3.719165291827849
 20
23.52331617070964
 30
0.0
 40
0.125
100
AcDbArc
 50
137.3470943129733
 51
147.6529056870278
  0
ARC
  5
28795
330
29BA9
100
AcDbEntity
  8
OBJECT
100
AcDbCircle
 10
3.719165291827849
 20
23.52331617070964
 30
0.0
 40
0.125
100
AcDbArc
 50
152.3470943129723
 51
162.6529056870268
  0
ARC
  5
28796
330
29BA9
100
AcDbEntity
  8
OBJECT
100
AcDbCircle
 10
3.719165291827849
 20
23.52331617070964
 30
0.0
 40
0.125
100
AcDbArc
 50
167.3470943129725
 51
177.652905687027
  0
ARC
  5
28797
330
29BA9
100
AcDbEntity
  8
OBJECT
100
AcDbCircle
 10
3.719165291827849
 20
23.52331617070964
 30
0.0
 40
0.125
100
AcDbArc
 50
182.347094312973
 51
192.6529056870275
  0
ARC
  5
28798
330
29BA9
100
AcDbEntity
  8
OBJECT
100
AcDbCircle
 10
3.719165291827849
 20
23.52331617070964
 30
0.0
 40
0.125
100
AcDbArc
 50
197.3470943129725
 51
200.5533609143858
  0
ARC
  5
2879D
330
29BA9
100
AcDbEntity
  8
OBJECT
100
AcDbCircle
 10
3.625530729161651
 20
23.48820821328814
 30
0.0
 40
0.0250000000000003
100
AcDbArc
 50
200.5533609143858
 51
230.4390446948216
  0
LINE
  5
2879F
330
29BA9
100
AcDbEntity
  8
OBJECT
100
AcDbLine
 10
3.609608259936633
 20
23.4689345272427
 30
0.0
 11
3.593685790711612
 21
23.44966084119726
 31
0.0
  0
LINE
  5
287A1
330
29BA9
100
AcDbEntity
  8
OBJECT
100
AcDbLine
 10
3.633192420514831
 20
23.36096073302309
 30
0.0
 11
3.636937803021479
 21
23.36236505131995
 31
0.0
  0
LINE
  5
287A5
330
29BA9
100
AcDbEntity
  8
OBJECT
100
AcDbLine
 10
3.122418540609377
 20
23.44896073302308
 30
0.0
 11
3.122418540609377
 21
23.66131617070964
 31
0.0
  0
ARC
  5
287AA
330
29BA9
100
AcDbEntity
  8
OBJECT
100
AcDbCircle
 10
3.110418540609377
 20
23.66131617070964
 30
0.0
 40
0.0119999999999999
100
AcDbArc
 50
0.0
 51
90.0
  0
LINE
  5
287AB
330
29BA9
100
AcDbEntity
  8
HIDDEN2
100
AcDbLine
 10
3.122418540609377
 20
23.57331617070964
 30
0.0
 11
3.118418540609378
 21
23.57331617070964
 31
0.0
  0
LINE
  5
287B2
330
29BA9
100
AcDbEntity
  8
OBJECT
100
AcDbLine
 10
3.030418540609378
 20
23.36096073302308
 30
0.0
 11
3.118418540609375
 21
23.44896073302308
 31
0.0
  0
LINE
  5
287B3
330
29BA9
100
AcDbEntity
  8
OBJECT
100
AcDbLine
 10
3.118418540609378
 20
23.44896073302308
 30
0.0
 11
3.122418540609377
 21
23.44896073302308
 31
0.0
  0
LINE
  5
287B5
330
29BA9
100
AcDbEntity
  8
OBJECT
100
AcDbLine
 10
0.1554185406093737
 20
23.44896073302308
 30
0.0
 11
0.1554185406093737
 21
23.66131617070964
 31
0.0
  0
LINE
  5
287B6
330
29BA9
100
AcDbEntity
  8
OBJECT
100
AcDbLine
 10
0.247418540609371
 20
23.36096073302308
 30
0.0
 11
0.1594185406093714
 21
23.44896073302308
 31
0.0
  0
LINE
  5
287B7
330
29BA9
100
AcDbEntity
  8
OBJECT
100
AcDbLine
 10
0.1594185406093714
 20
23.44896073302308
 30
0.0
 11
0.1554185406093737
 21
23.44896073302308
 31
0.0
  0
LINE
  5
287B9
330
29BA9
100
AcDbEntity
  8
HIDDEN2
100
AcDbLine
 10
0.1554185406093737
 20
23.57331617070964
 30
0.0
 11
0.1594185406093743
 21
23.57331617070964
 31
0.0
  0
ARC
  5
287BA
330
29BA9
100
AcDbEntity
  8
OBJECT
100
AcDbCircle
 10
0.1674185406093727
 20
23.66131617070964
 30
0.0
 40
0.0119999999999999
100
AcDbArc
 50
90.0
 51
180.0
  0
LINE
  5
287BB
330
29BA9
100
AcDbEntity
  8
OBJECT
100
AcDbLine
 10
3.026418540609379
 20
22.89778272947461
 30
0.0
 11
3.096644462609027
 21
22.96800865147425
 31
0.0
  0
LINE
  5
287BD
330
29BA9
100
AcDbEntity
  8
OBJECT
100
AcDbLine
 10
3.098302112119785
 20
21.46985564881508
 30
0.0
 11
3.026418540609379
 21
21.54173922032549
 31
0.0
  0
LINE
  5
287BF
330
29BA9
100
AcDbEntity
  8
OBJECT
100
AcDbLine
 10
3.719165291827849
 20
23.20438816716116
 30
0.0
 11
4.300415291827846
 21
23.20438816716116
 31
0.0
  0
ARC
  5
287C0
330
29BA9
100
AcDbEntity
  8
OBJECT
100
AcDbCircle
 10
3.719165291827849
 20
23.06638816716116
 30
0.0
 40
0.138
100
AcDbArc
 50
90.0
 51
200.5533609143857
  0
ARC
  5
287C1
330
29BA9
100
AcDbEntity
  8
OBJECT
100
AcDbCircle
 10
3.625530729161651
 20
23.03128020973967
 30
0.0
 40
0.0380000000000003
100
AcDbArc
 50
200.5533609143858
 51
230.43904469482
  0
ARC
  5
287C2
330
29BA9
100
AcDbEntity
  8
OBJECT
100
AcDbCircle
 10
3.56566224487558
 20
22.9588111502088
 30
0.0
 40
0.056
100
AcDbArc
 50
20.55336091438666
 51
50.43904469482283
  0
LINE
  5
287C4
330
29BA9
100
AcDbEntity
  8
OBJECT
100
AcDbLine
 10
3.606861452448706
 20
22.97425865147425
 30
0.0
 11
3.618097599968653
 21
22.97847160636483
 31
0.0
  0
LINE
  5
287C5
330
29BA9
100
AcDbEntity
  8
OBJECT
100
AcDbLine
 10
4.168588771192677
 20
21.47610564881508
 30
0.0
 11
3.606861452448706
 21
22.97425865147425
 31
0.0
  0
LINE
  5
287C8
330
29BA9
100
AcDbEntity
  8
OBJECT
100
AcDbLine
 10
4.168588771192677
 20
21.47610564881508
 30
0.0
 11
4.172334219183094
 21
21.47750999166485
 31
0.0
  0
LINE
  5
287CA
330
29BA9
100
AcDbEntity
  8
OBJECT
100
AcDbLine
 10
3.126418540609376
 20
23.20438816716116
 30
0.0
 11
3.122418540609377
 21
23.20438816716116
 31
0.0
  0
LINE
  5
287CB
330
29BA9
100
AcDbEntity
  8
OBJECT
100
AcDbLine
 10
3.126418540609379
 20
21.45998922032549
 30
0.0
 11
3.12241854060938
 21
21.45998922032549
 31
0.0
  0
LINE
  5
287D2
330
29BA9
100
AcDbEntity
  8
OBJECT
100
AcDbLine
 10
3.026418540609379
 20
21.54173922032549
 30
0.0
 11
3.026418540609379
 21
22.89778272947461
 31
0.0
  0
LINE
  5
287D9
330
29BA9
100
AcDbEntity
  8
OBJECT
100
AcDbLine
 10
0.1594185406093714
 20
21.3133041742663
 30
0.0
 11
0.1554185406093709
 21
21.3133041742663
 31
0.0
  0
LINE
  5
287DA
330
29BA9
100
AcDbEntity
  8
OBJECT
100
AcDbLine
 10
3.12241854060938
 20
21.3133041742663
 30
0.0
 11
3.118418540609378
 21
21.3133041742663
 31
0.0
  0
LINE
  5
287DB
330
29BA9
100
AcDbEntity
  8
OBJECT
100
AcDbLine
 10
3.070418540609376
 20
22.9417827294746
 30
0.0
 11
3.070418540609376
 21
23.15438816716116
 31
0.0
  0
LINE
  5
287DC
330
29BA9
100
AcDbEntity
  8
HIDDEN2
100
AcDbLine
 10
3.070418540609379
 20
21.49773922032549
 30
0.0
 11
3.070418540609376
 21
22.9417827294746
 31
0.0
  0
LINE
  5
287DE
330
29BA9
100
AcDbEntity
  8
OBJECT
100
AcDbLine
 10
3.122418540609377
 20
23.15438816716116
 30
0.0
 11
3.070418540609376
 21
23.15438816716116
 31
0.0
  0
LINE
  5
287DF
330
29BA9
100
AcDbEntity
  8
HIDDEN2
100
AcDbLine
 10
4.296415291827848
 20
23.15438816716116
 30
0.0
 11
4.300415291827846
 21
23.15438816716116
 31
0.0
  0
LINE
  5
287E0
330
29BA9
100
AcDbEntity
  8
OBJECT
100
AcDbLine
 10
4.300415291827853
 20
21.45998922032549
 30
0.0
 11
4.178903572172618
 21
21.45998922032549
 31
0.0
  0
LINE
  5
287E2
330
29BA9
100
AcDbEntity
  8
HIDDEN2
100
AcDbLine
 10
4.296415291827848
 20
21.47610564881508
 30
0.0
 11
4.300415291827853
 21
21.47610564881508
 31
0.0
  0
LINE
  5
2884F
330
29BA9
100
AcDbEntity
  8
HIDDEN2
100
AcDbLine
 10
0.2074185406093705
 20
21.49773922032549
 30
0.0
 11
0.2074185406093733
 21
22.9417827294746
 31
0.0
  0
LINE
  5
28850
330
29BA9
100
AcDbEntity
  8
OBJECT
100
AcDbLine
 10
0.2514185406093731
 20
21.54173922032549
 30
0.0
 11
0.2514185406093731
 21
22.89778272947461
 31
0.0
  0
LINE
  5
28852
330
29BA9
100
AcDbEntity
  8
OBJECT
100
AcDbLine
 10
0.1514185406093702
 20
21.45998922032549
 30
0.0
 11
0.1514185406093731
 21
23.20438816716116
 31
0.0
  0
LINE
  5
28853
330
29BA9
100
AcDbEntity
  8
OBJECT
100
AcDbLine
 10
0.1795349690989638
 20
21.46985564881508
 30
0.0
 11
0.2514185406093731
 21
21.54173922032549
 31
0.0
  0
CIRCLE
  5
28854
330
29BA9
100
AcDbEntity
  8
HATCH
100
AcDbCircle
 10
0.2139185406093731
 20
21.61216902208992
 30
0.0
 40
0.0095
  0
LINE
  5
28857
330
29BA9
100
AcDbEntity
  8
OBJECT
100
AcDbLine
 10
0.1514185406093702
 20
21.45998922032549
 30
0.0
 11
0.1554185406093709
 21
21.45998922032549
 31
0.0
  0
CIRCLE
  5
28858
330
29BA9
100
AcDbEntity
  8
HATCH
100
AcDbCircle
 10
0.2139185406093731
 20
22.22079365546697
 30
0.0
 40
0.0095
  0
LINE
  5
28859
330
29BA9
100
AcDbEntity
  8
OBJECT
100
AcDbLine
 10
0.2514185406093731
 20
22.89778272947461
 30
0.0
 11
0.1811926186097225
 21
22.96800865147425
 31
0.0
  0
CIRCLE
  5
2885A
330
29BA9
100
AcDbEntity
  8
HATCH
100
AcDbCircle
 10
0.2139185406093731
 20
22.82941831279741
 30
0.0
 40
0.0095
  0
LINE
  5
2885B
330
29BA9
100
AcDbEntity
  8
OBJECT
100
AcDbLine
 10
0.1554185406093737
 20
23.15438816716116
 30
0.0
 11
0.2074185406093733
 21
23.15438816716116
 31
0.0
  0
LINE
  5
2885C
330
29BA9
100
AcDbEntity
  8
OBJECT
100
AcDbLine
 10
0.2074185406093733
 20
22.9417827294746
 30
0.0
 11
0.2074185406093733
 21
23.15438816716116
 31
0.0
  0
LINE
  5
2885F
330
29BA9
100
AcDbEntity
  8
OBJECT
100
AcDbLine
 10
0.1514185406093731
 20
23.20438816716116
 30
0.0
 11
0.1554185406093737
 21
23.20438816716116
 31
0.0
  0
LINE
  5
28886
330
29BA9
100
AcDbEntity
  8
OBJECT
100
AcDbLine
 10
3.126418540609379
 20
21.46985564881508
 30
0.0
 11
3.098302112119785
 21
21.46985564881508
 31
0.0
  0
LINE
  5
28887
330
29BA9
100
AcDbEntity
  8
OBJECT
100
AcDbLine
 10
3.126418540609376
 20
22.96800865147425
 30
0.0
 11
3.096644462609027
 21
22.96800865147425
 31
0.0
  0
LINE
  5
28888
330
29BA9
100
AcDbEntity
  8
OBJECT
100
AcDbLine
 10
0.1514185406093731
 20
22.96800865147425
 30
0.0
 11
0.1811926186097225
 21
22.96800865147425
 31
0.0
  0
LINE
  5
28889
330
29BA9
100
AcDbEntity
  8
OBJECT
100
AcDbLine
 10
0.1514185406093702
 20
21.46985564881508
 30
0.0
 11
0.1795349690989638
 21
21.46985564881508
 31
0.0
  0
LINE
  5
2889E
330
29BA9
100
AcDbEntity
  8
HIDDEN2
100
AcDbLine
 10
3.118418540609375
 20
23.44896073302308
 30
0.0
 11
3.118418540609375
 21
23.66131617070964
 31
0.0
  0
LINE
  5
2889F
330
29BA9
100
AcDbEntity
  8
HIDDEN2
100
AcDbLine
 10
0.1674185406093727
 20
23.66931617070964
 30
0.0
 11
3.110418540609377
 21
23.66931617070964
 31
0.0
  0
ARC
  5
288A0
330
29BA9
100
AcDbEntity
  8
HIDDEN2
100
AcDbCircle
 10
3.110418540609377
 20
23.66131617070964
 30
0.0
 40
0.008
100
AcDbArc
 50
0.0000000000001018
 51
90.0
  0
ARC
  5
288A1
330
29BA9
100
AcDbEntity
  8
HIDDEN2
100
AcDbCircle
 10
0.1674185406093727
 20
23.66131617070964
 30
0.0
 40
0.008
100
AcDbArc
 50
90.0
 51
179.9999999999999
  0
LINE
  5
288A2
330
29BA9
100
AcDbEntity
  8
HIDDEN2
100
AcDbLine
 10
0.1594185406093714
 20
23.44896073302308
 30
0.0
 11
0.1594185406093743
 21
23.66131617070964
 31
0.0
  0
LINE
  5
288A5
330
29BA9
100
AcDbEntity
  8
OBJECT
100
AcDbLine
 10
3.122418540609377
 20
22.96800865147425
 30
0.0
 11
3.122418540609377
 21
23.20438816716116
 31
0.0
  0
LINE
  5
288A6
330
29BA9
100
AcDbEntity
  8
HIDDEN2
100
AcDbLine
 10
3.12241854060938
 20
21.46985564881508
 30
0.0
 11
3.122418540609377
 21
22.96800865147425
 31
0.0
  0
LINE
  5
288A7
330
29BA9
100
AcDbEntity
  8
OBJECT
100
AcDbLine
 10
3.12241854060938
 20
21.45998922032549
 30
0.0
 11
3.12241854060938
 21
21.46985564881508
 31
0.0
  0
LINE
  5
288A8
330
29BA9
100
AcDbEntity
  8
OBJECT
100
AcDbLine
 10
0.1554185406093737
 20
22.96800865147425
 30
0.0
 11
0.1554185406093737
 21
23.20438816716116
 31
0.0
  0
LINE
  5
288A9
330
29BA9
100
AcDbEntity
  8
HIDDEN2
100
AcDbLine
 10
0.1554185406093709
 20
21.46985564881508
 30
0.0
 11
0.1554185406093722
 21
22.96800865147425
 31
0.0
  0
LINE
  5
288AA
330
29BA9
100
AcDbEntity
  8
OBJECT
100
AcDbLine
 10
0.1554185406093709
 20
21.45998922032549
 30
0.0
 11
0.1554185406093709
 21
21.46985564881508
 31
0.0
  0
LINE
  5
288AB
330
29BA9
100
AcDbEntity
  8
OBJECT
100
AcDbLine
 10
3.118418540609378
 20
21.21930417426629
 30
0.0
 11
3.118418540609378
 21
21.3133041742663
 31
0.0
  0
LINE
  5
288AD
330
29BA9
100
AcDbEntity
  8
HIDDEN2
100
AcDbLine
 10
0.1674185406093713
 20
21.2113041742663
 30
0.0
 11
3.110418540609379
 21
21.2113041742663
 31
0.0
  0
LINE
  5
288AE
330
29BA9
100
AcDbEntity
  8
HIDDEN2
100
AcDbLine
 10
3.271944186828077
 20
21.2113041742663
 30
0.0
 11
3.374315289327581
 21
21.2113041742663
 31
0.0
  0
LINE
  5
288AF
330
29BA9
100
AcDbEntity
  8
OBJECT
100
AcDbLine
 10
3.263995900315027
 20
21.21679178953581
 30
0.0
 11
3.2324032486167
 21
21.30105086760531
 31
0.0
  0
ARC
  5
288B0
330
29BA9
100
AcDbEntity
  8
OBJECT
100
AcDbCircle
 10
3.271944186828077
 20
21.21980417426629
 30
0.0
 40
0.0085
100
AcDbArc
 50
200.8191457365013
 51
270.0
  0
ARC
  5
288B1
330
29BA9
100
AcDbEntity
  8
OBJECT
100
AcDbCircle
 10
3.374315289327581
 20
21.2198041742663
 30
0.0
 40
0.0085
100
AcDbArc
 50
270.0
 51
0.0000000000000509
  0
LINE
  5
288B2
330
29BA9
100
AcDbEntity
  8
OBJECT
100
AcDbLine
 10
3.382815289327581
 20
21.2198041742663
 30
0.0
 11
3.382815289327581
 21
21.3573041742663
 31
0.0
  0
ARC
  5
288B3
330
29BA9
100
AcDbEntity
  8
OBJECT
100
AcDbCircle
 10
3.110418540609379
 20
21.21930417426629
 30
0.0
 40
0.008
100
AcDbArc
 50
270.0
 51
0.0
  0
ARC
  5
288B4
330
29BA9
100
AcDbEntity
  8
OBJECT
100
AcDbCircle
 10
0.1674185406093713
 20
21.21930417426629
 30
0.0
 40
0.008
100
AcDbArc
 50
180.0
 51
270.0
  0
LINE
  5
288B5
330
29BA9
100
AcDbEntity
  8
OBJECT
100
AcDbLine
 10
0.1594185406093714
 20
21.21930417426629
 30
0.0
 11
0.1594185406093714
 21
21.3133041742663
 31
0.0
  0
LINE
  5
288BB
330
29BA9
100
AcDbEntity
  8
HIDDEN2
100
AcDbLine
 10
4.296415291827848
 20
23.66081617070964
 30
0.0
 11
4.296415291827848
 21
23.61081617070964
 31
0.0
  0
ARC
  5
288BC
330
29BA9
100
AcDbEntity
  8
HIDDEN2
100
AcDbCircle
 10
4.287915291827846
 20
23.66081617070964
 30
0.0
 40
0.0085
100
AcDbArc
 50
0.0000000000000509
 51
90.0000000000002
  0
LINE
  5
288BD
330
29BA9
100
AcDbEntity
  8
HIDDEN2
100
AcDbLine
 10
3.719165291827849
 20
23.66931617070964
 30
0.0
 11
4.287915291827846
 21
23.66931617070964
 31
0.0
  0
ARC
  5
288BE
330
29BA9
100
AcDbEntity
  8
HIDDEN2
100
AcDbCircle
 10
3.719165291827849
 20
23.52331617070964
 30
0.0
 40
0.146
100
AcDbArc
 50
90.0
 51
200.5533609143857
  0
ARC
  5
288BF
330
29BA9
100
AcDbEntity
  8
OBJECT
100
AcDbCircle
 10
3.56566224487558
 20
23.41573915375728
 30
0.0
 40
0.048
100
AcDbArc
 50
20.55336091438666
 51
50.43904469482283
  0
ARC
  5
288C1
330
29BA9
100
AcDbEntity
  8
HIDDEN2
100
AcDbCircle
 10
3.625530729161651
 20
23.48820821328814
 30
0.0
 40
0.0460000000000003
100
AcDbArc
 50
200.5533609143858
 51
230.43904469482
  0
LINE
  5
288C2
330
29BA9
100
AcDbEntity
  8
OBJECT
100
AcDbLine
 10
3.636937803021479
 20
23.36236505131995
 30
0.0
 11
3.610606834955357
 21
23.43259097331959
 31
0.0
  0
LINE
  5
288C4
330
29BA9
100
AcDbEntity
  8
OBJECT
100
AcDbLine
 10
3.681377711242883
 20
23.66434134134785
 30
0.0
 11
3.691784755732844
 21
23.6452805353542
 31
0.0
  0
LINE
  5
288C5
330
29BA9
100
AcDbEntity
  8
OBJECT
100
AcDbLine
 10
3.681377711242883
 20
23.66434134134785
 30
0.0
 11
3.681895349333087
 21
23.64263067689576
 31
0.0
  0
LINE
  5
289E9
330
29BA9
100
AcDbEntity
  8
OBJECT
100
AcDbLine
 10
3.714046158385818
 20
23.64821130461326
 30
0.0
 11
3.719165291827849
 21
23.66931617070964
 31
0.0
  0
LINE
  5
289F6
330
29BA9
100
AcDbEntity
  8
OBJECT
100
AcDbLine
 10
3.646165291827851
 20
23.64975587966217
 30
0.0
 11
3.652284425269881
 21
23.62891896275822
 31
0.0
  0
LINE
  5
289F7
330
29BA9
100
AcDbEntity
  8
OBJECT
100
AcDbLine
 10
3.646165291827851
 20
23.64975587966217
 30
0.0
 11
3.661151024482203
 21
23.63403809620025
 31
0.0
  0
LINE
  5
289F8
330
29BA9
100
AcDbEntity
  8
OBJECT
100
AcDbLine
 10
3.615927701774615
 20
23.62655376076288
 30
0.0
 11
3.627231321736741
 21
23.60801059285943
 31
0.0
  0
LINE
  5
289F9
330
29BA9
100
AcDbEntity
  8
OBJECT
100
AcDbLine
 10
3.615927701774615
 20
23.62655376076288
 30
0.0
 11
3.634470869678058
 21
23.61525014080075
 31
0.0
  0
LINE
  5
289FA
330
29BA9
100
AcDbEntity
  8
OBJECT
100
AcDbLine
 10
3.592725582875323
 20
23.59631617070964
 30
0.0
 11
3.608443366337244
 21
23.58133043805529
 31
0.0
  0
LINE
  5
289FB
330
29BA9
100
AcDbEntity
  8
OBJECT
100
AcDbLine
 10
3.592725582875323
 20
23.59631617070964
 30
0.0
 11
3.613562499779272
 21
23.59019703726761
 31
0.0
  0
LINE
  5
289FC
330
29BA9
100
AcDbEntity
  8
OBJECT
100
AcDbLine
 10
3.578140121189645
 20
23.56110375129461
 30
0.0
 11
3.597200927183295
 21
23.55069670680465
 31
0.0
  0
LINE
  5
289FD
330
29BA9
100
AcDbEntity
  8
OBJECT
100
AcDbLine
 10
3.578140121189645
 20
23.56110375129461
 30
0.0
 11
3.599850785641732
 21
23.5605861132044
 31
0.0
  0
LINE
  5
289FE
330
29BA9
100
AcDbEntity
  8
OBJECT
100
AcDbLine
 10
3.573165291827852
 20
23.52331617070964
 30
0.0
 11
3.594270157924232
 21
23.51819703726761
 31
0.0
  0
LINE
  5
289FF
330
29BA9
100
AcDbEntity
  8
OBJECT
100
AcDbLine
 10
3.573165291827852
 20
23.52331617070964
 30
0.0
 11
3.594270157924234
 21
23.52843530415167
 31
0.0
  0
LINE
  5
28A00
330
29BA9
100
AcDbEntity
  8
OBJECT
100
AcDbLine
 10
3.578140121189645
 20
23.48552859012467
 30
0.0
 11
3.599850785641732
 21
23.48604622821488
 31
0.0
  0
LINE
  5
28A01
330
29BA9
100
AcDbEntity
  8
OBJECT
100
AcDbLine
 10
3.578140121189645
 20
23.48552859012467
 30
0.0
 11
3.597200927183295
 21
23.49593563461463
 31
0.0
  0
LINE
  5
28A02
330
29BA9
100
AcDbEntity
  8
HIDDEN2
100
AcDbLine
 10
4.172334219183094
 20
21.47750999166485
 30
0.0
 11
3.610606909645225
 21
22.97566296977111
 31
0.0
  0
LINE
  5
28A03
330
29BA9
100
AcDbEntity
  8
HIDDEN2
100
AcDbLine
 10
4.296415291827848
 20
23.15438816716116
 30
0.0
 11
4.296415291827848
 21
21.47610564881508
 31
0.0
  0
LINE
  5
28A04
330
29BA9
100
AcDbEntity
  8
OBJECT
100
AcDbLine
 10
4.172334219183094
 20
21.47750999166485
 30
0.0
 11
4.178903572172618
 21
21.45998922032549
 31
0.0
  0
LINE
  5
28A32
330
29BA9
100
AcDbEntity
  8
HIDDEN2
100
AcDbLine
 10
1.337356310147079
 20
3.021541637711131
 30
0.0
 11
30.76735631014715
 21
3.021541637711131
 31
0.0
  0
LINE
  5
28A33
330
29BA9
100
AcDbEntity
  8
HIDDEN2
100
AcDbLine
 10
1.337356310147086
 20
20.56654163771113
 30
0.0
 11
30.76735631014711
 21
20.56654163771114
 31
0.0
  0
LINE
  5
28A34
330
29BA9
100
AcDbEntity
  8
OBJECT
100
AcDbLine
 10
1.177356310147076
 20
3.170711188428676
 30
0.0
 11
1.458520595043012
 21
3.170711188428676
 31
0.0
  0
LINE
  5
28A35
330
29BA9
100
AcDbEntity
  8
OBJECT
100
AcDbLine
 10
1.177356310147104
 20
18.15224121502043
 30
0.0
 11
1.475097090150598
 21
18.15224121502043
 31
0.0
  0
LINE
  5
28A36
330
29BA9
100
AcDbEntity
  8
OBJECT
100
AcDbLine
 10
1.217356310147103
 20
20.01603637188949
 30
0.0
 11
1.737356310147106
 21
20.01603637188949
 31
0.0
  0
LINE
  5
28A37
330
29BA9
100
AcDbEntity
  8
OBJECT
100
AcDbLine
 10
2.137356310147076
 20
17.48298726084557
 30
0.0
 11
1.257356310147081
 21
18.36298726084555
 31
0.0
  0
LINE
  5
28A38
330
29BA9
100
AcDbEntity
  8
OBJECT
100
AcDbLine
 10
1.337356310147086
 20
20.60654163771112
 30
0.0
 11
30.76735631014711
 21
20.60654163771113
 31
0.0
  0
LINE
  5
28A39
330
29BA9
100
AcDbEntity
  8
OBJECT
100
AcDbLine
 10
1.319397994913587
 20
3.023583322477641
 30
0.0
 11
2.777356310147091
 21
4.481541637711143
 31
0.0
  0
LINE
  5
28A3A
330
29BA9
100
AcDbEntity
  8
OBJECT
100
AcDbLine
 10
1.337356310147079
 20
2.981541637711135
 30
0.0
 11
30.76735631014715
 21
2.981541637711128
 31
0.0
  0
LINE
  5
28A3B
330
29BA9
100
AcDbEntity
  8
HIDDEN2
100
AcDbLine
 10
1.217356310147075
 20
3.170711188428669
 30
0.0
 11
1.217356310147089
 21
18.15224121502043
 31
0.0
  0
LINE
  5
28A3C
330
29BA9
100
AcDbEntity
  8
OBJECT
100
AcDbLine
 10
1.177356310147076
 20
3.072046903532765
 30
0.0
 11
1.177356310147104
 21
20.51603637188949
 31
0.0
  0
LINE
  5
28A3D
330
29BA9
100
AcDbEntity
  8
OBJECT
100
AcDbLine
 10
1.257356310147074
 20
3.101541637711133
 30
0.0
 11
1.257356310147074
 21
4.041541637711152
 31
0.0
  0
ARC
  5
28A3E
330
29BA9
100
AcDbEntity
  8
OBJECT
100
AcDbCircle
 10
1.337356310147079
 20
3.101541637711133
 30
0.0
 40
0.08
100
AcDbArc
 50
180.0
 51
270.0
  0
LINE
  5
28A3F
330
29BA9
100
AcDbEntity
  8
OBJECT
100
AcDbLine
 10
1.217356310147075
 20
3.072046903532765
 30
0.0
 11
1.217356310147075
 21
3.170711188428669
 31
0.0
  0
LINE
  5
28A40
330
29BA9
100
AcDbEntity
  8
OBJECT
100
AcDbLine
 10
1.177356310147076
 20
3.072046903532765
 30
0.0
 11
1.217356310147075
 21
3.072046903532765
 31
0.0
  0
LINE
  5
28A41
330
29BA9
100
AcDbEntity
  8
OBJECT
100
AcDbLine
 10
1.257356310147074
 20
4.041541637711152
 30
0.0
 11
1.217356310147075
 21
4.041541637711152
 31
0.0
  0
ARC
  5
28A42
330
29BA9
100
AcDbEntity
  8
OBJECT
100
AcDbCircle
 10
1.337356310147079
 20
3.101541637711133
 30
0.0
 40
0.1200000000000011
100
AcDbArc
 50
180.0
 51
270.0
  0
LINE
  5
28A43
330
29BA9
100
AcDbEntity
  8
OBJECT
100
AcDbLine
 10
1.217356310147075
 20
3.101541637711133
 30
0.0
 11
1.217356310147075
 21
4.041541637711152
 31
0.0
  0
LINE
  5
28A44
330
29BA9
100
AcDbEntity
  8
OBJECT
100
AcDbLine
 10
1.217356310147103
 20
18.15224121502043
 30
0.0
 11
1.217356310147103
 21
20.51603637188949
 31
0.0
  0
LINE
  5
28A45
330
29BA9
100
AcDbEntity
  8
OBJECT
100
AcDbLine
 10
1.177356310147104
 20
20.51603637188949
 30
0.0
 11
1.217356310147103
 21
20.51603637188949
 31
0.0
  0
LINE
  5
28A46
330
29BA9
100
AcDbEntity
  8
HIDDEN2
100
AcDbLine
 10
1.257356310147081
 20
18.36298726084555
 30
0.0
 11
1.257356310147095
 21
20.48654163771113
 31
0.0
  0
LINE
  5
28A47
330
29BA9
100
AcDbEntity
  8
OBJECT
100
AcDbLine
 10
1.217356310147096
 20
18.36298726084555
 30
0.0
 11
1.217356310147096
 21
20.48654163771113
 31
0.0
  0
LINE
  5
28A48
330
29BA9
100
AcDbEntity
  8
HIDDEN2
100
AcDbLine
 10
1.217356310147096
 20
19.60654163771111
 30
0.0
 11
1.257356310147095
 21
19.60654163771111
 31
0.0
  0
LINE
  5
28A49
330
29BA9
100
AcDbEntity
  8
OBJECT
100
AcDbLine
 10
1.257356310147081
 20
18.36298726084555
 30
0.0
 11
1.217356310147096
 21
18.36298726084555
 31
0.0
  0
ARC
  5
28A4A
330
29BA9
100
AcDbEntity
  8
HIDDEN2
100
AcDbCircle
 10
1.337356310147086
 20
20.48654163771113
 30
0.0
 40
0.08
100
AcDbArc
 50
90.0
 51
179.9999999999999
  0
ARC
  5
28A4B
330
29BA9
100
AcDbEntity
  8
OBJECT
100
AcDbCircle
 10
1.337356310147086
 20
20.48654163771113
 30
0.0
 40
0.1199999999999992
100
AcDbArc
 50
90.0
 51
180.0
  0
LINE
  5
28A4C
330
29BA9
100
AcDbEntity
  8
OBJECT
100
AcDbLine
 10
29.32735631014715
 20
4.481541637711135
 30
0.0
 11
2.777356310147091
 21
4.481541637711146
 31
0.0
  0
LINE
  5
28A4D
330
29BA9
100
AcDbEntity
  8
OBJECT
100
AcDbLine
 10
29.90393280525487
 20
3.90496514260342
 30
0.0
 11
2.200779815039382
 21
3.904965142603434
 31
0.0
  0
LINE
  5
28A4E
330
29BA9
100
AcDbEntity
  8
OBJECT
100
AcDbLine
 10
2.17735631014709
 20
3.889546903532761
 30
0.0
 11
2.17735631014709
 21
17.44998199502397
 31
0.0
  0
LINE
  5
28A4F
330
29BA9
100
AcDbEntity
  8
HIDDEN2
100
AcDbLine
 10
1.737356310147078
 20
3.449546903532742
 30
0.0
 11
1.737356310147106
 21
17.88998199502394
 31
0.0
  0
LINE
  5
28A50
330
29BA9
100
AcDbEntity
  8
OBJECT
100
AcDbLine
 10
1.458520595043012
 20
3.170711188428676
 30
0.0
 11
2.17735631014709
 21
3.889546903532754
 31
0.0
  0
CIRCLE
  5
28A51
330
29BA9
100
AcDbEntity
  8
HATCH
100
AcDbCircle
 10
5.364856310147118
 20
3.509953100905687
 30
0.0
 40
0.095
  0
CIRCLE
  5
28A52
330
29BA9
100
AcDbEntity
  8
OBJECT
100
AcDbCircle
 10
7.489856310147132
 20
3.481541637711128
 30
0.0
 40
0.12
  0
CIRCLE
  5
28A53
330
29BA9
100
AcDbEntity
  8
OBJECT
100
AcDbCircle
 10
8.864856310147132
 20
3.481541637711128
 30
0.0
 40
0.12
  0
CIRCLE
  5
28A54
330
29BA9
100
AcDbEntity
  8
HATCH
100
AcDbCircle
 10
1.80235631014709
 20
4.593844921177116
 30
0.0
 40
0.095
  0
CIRCLE
  5
28A55
330
29BA9
100
AcDbEntity
  8
HATCH
100
AcDbCircle
 10
16.05235631014712
 20
3.509953100905687
 30
0.0
 40
0.095
  0
CIRCLE
  5
28A56
330
29BA9
100
AcDbEntity
  8
HATCH
100
AcDbCircle
 10
1.80235631014709
 20
10.68009125494762
 30
0.0
 40
0.095
  0
LINE
  5
28A57
330
29BA9
100
AcDbEntity
  8
OBJECT
100
AcDbLine
 10
1.737356310147106
 20
17.88998199502394
 30
0.0
 11
1.737356310147106
 21
20.01603637188949
 31
0.0
  0
CIRCLE
  5
28A58
330
29BA9
100
AcDbEntity
  8
HATCH
100
AcDbCircle
 10
1.80235631014709
 20
16.766337828252
 30
0.0
 40
0.095
  0
LINE
  5
28A59
330
29BA9
100
AcDbEntity
  8
OBJECT
100
AcDbLine
 10
2.17735631014709
 20
17.44998199502395
 30
0.0
 11
1.475097090150598
 21
18.15224121502043
 31
0.0
  0
LINE
  5
28A5A
330
29BA9
100
AcDbEntity
  8
HIDDEN2
100
AcDbLine
 10
30.88735631014715
 20
3.170711188428669
 30
0.0
 11
30.88735631014713
 21
18.15224121502043
 31
0.0
  0
LINE
  5
28A5B
330
29BA9
100
AcDbEntity
  8
HIDDEN2
100
AcDbLine
 10
30.36735631014716
 20
3.449546903532742
 30
0.0
 11
30.36735631014713
 21
17.88998199502392
 31
0.0
  0
LINE
  5
28A5C
330
29BA9
100
AcDbEntity
  8
OBJECT
100
AcDbLine
 10
29.92735631014715
 20
3.889546903532754
 30
0.0
 11
29.92735631014715
 21
17.44998199502395
 31
0.0
  0
LINE
  5
28A5D
330
29BA9
100
AcDbEntity
  8
OBJECT
100
AcDbLine
 10
30.92735631014716
 20
3.072046903532765
 30
0.0
 11
30.92735631014713
 21
20.51603637188949
 31
0.0
  0
CIRCLE
  5
28A5E
330
29BA9
100
AcDbEntity
  8
OBJECT
100
AcDbCircle
 10
23.23985631014716
 20
3.481541637711157
 30
0.0
 40
0.12
  0
CIRCLE
  5
28A5F
330
29BA9
100
AcDbEntity
  8
OBJECT
100
AcDbCircle
 10
24.61485631014716
 20
3.481541637711157
 30
0.0
 40
0.12
  0
LINE
  5
28A60
330
29BA9
100
AcDbEntity
  8
OBJECT
100
AcDbLine
 10
30.64619202525122
 20
3.170711188428676
 30
0.0
 11
29.92735631014715
 21
3.889546903532754
 31
0.0
  0
LINE
  5
28A61
330
29BA9
100
AcDbEntity
  8
OBJECT
100
AcDbLine
 10
30.78531462538251
 20
3.023583322475769
 30
0.0
 11
29.32735631014714
 21
4.481541637711143
 31
0.0
  0
CIRCLE
  5
28A62
330
29BA9
100
AcDbEntity
  8
HATCH
100
AcDbCircle
 10
26.73985631014712
 20
3.509953100905694
 30
0.0
 40
0.095
  0
ARC
  5
28A65
330
29BA9
100
AcDbEntity
  8
OBJECT
100
AcDbCircle
 10
30.76735631014715
 20
3.101541637711133
 30
0.0
 40
0.08
100
AcDbArc
 50
270.0
 51
0.0
  0
LINE
  5
28A66
330
29BA9
100
AcDbEntity
  8
OBJECT
100
AcDbLine
 10
30.84735631014715
 20
3.101541637711133
 30
0.0
 11
30.84735631014715
 21
4.041541637711152
 31
0.0
  0
LINE
  5
28A67
330
29BA9
100
AcDbEntity
  8
OBJECT
100
AcDbLine
 10
30.88735631014715
 20
3.072046903532765
 30
0.0
 11
30.88735631014715
 21
3.170711188428669
 31
0.0
  0
LINE
  5
28A68
330
29BA9
100
AcDbEntity
  8
OBJECT
100
AcDbLine
 10
30.92735631014716
 20
3.170711188428676
 30
0.0
 11
30.64619202525122
 21
3.170711188428676
 31
0.0
  0
LINE
  5
28A69
330
29BA9
100
AcDbEntity
  8
OBJECT
100
AcDbLine
 10
30.88735631014715
 20
4.041541637711152
 30
0.0
 11
30.84735631014715
 21
4.041541637711152
 31
0.0
  0
LINE
  5
28A6A
330
29BA9
100
AcDbEntity
  8
OBJECT
100
AcDbLine
 10
30.92735631014716
 20
3.072046903532765
 30
0.0
 11
30.88735631014715
 21
3.072046903532765
 31
0.0
  0
ARC
  5
28A6B
330
29BA9
100
AcDbEntity
  8
OBJECT
100
AcDbCircle
 10
30.76735631014715
 20
3.101541637711133
 30
0.0
 40
0.1200000000000011
100
AcDbArc
 50
270.0
 51
0.0
  0
LINE
  5
28A6C
330
29BA9
100
AcDbEntity
  8
OBJECT
100
AcDbLine
 10
30.88735631014715
 20
3.101541637711133
 30
0.0
 11
30.88735631014715
 21
4.041541637711152
 31
0.0
  0
CIRCLE
  5
28A7A
330
29BA9
100
AcDbEntity
  8
HATCH
100
AcDbCircle
 10
30.30235631014716
 20
4.593844921177116
 30
0.0
 40
0.095
  0
CIRCLE
  5
28A7B
330
29BA9
100
AcDbEntity
  8
HATCH
100
AcDbCircle
 10
30.30235631014716
 20
10.68009125494762
 30
0.0
 40
0.095
  0
LINE
  5
28A7C
330
29BA9
100
AcDbEntity
  8
OBJECT
100
AcDbLine
 10
29.92735631014715
 20
17.44998199502395
 30
0.0
 11
30.62961553014364
 21
18.15224121502043
 31
0.0
  0
LINE
  5
28A7D
330
29BA9
100
AcDbEntity
  8
OBJECT
100
AcDbLine
 10
30.88735631014713
 20
18.15224121502043
 30
0.0
 11
30.88735631014713
 21
20.51603637188949
 31
0.0
  0
LINE
  5
28A7E
330
29BA9
100
AcDbEntity
  8
OBJECT
100
AcDbLine
 10
30.36735631014713
 20
17.88998199502394
 30
0.0
 11
30.36735631014713
 21
20.01603637188949
 31
0.0
  0
LINE
  5
28A7F
330
29BA9
100
AcDbEntity
  8
OBJECT
100
AcDbLine
 10
30.92735631014713
 20
18.15224121502043
 30
0.0
 11
30.62961553014364
 21
18.15224121502043
 31
0.0
  0
CIRCLE
  5
28A80
330
29BA9
100
AcDbEntity
  8
HATCH
100
AcDbCircle
 10
30.30235631014716
 20
16.766337828252
 30
0.0
 40
0.095
  0
LINE
  5
28A81
330
29BA9
100
AcDbEntity
  8
OBJECT
100
AcDbLine
 10
30.88735631014713
 20
20.01603637188949
 30
0.0
 11
30.36735631014713
 21
20.01603637188949
 31
0.0
  0
LINE
  5
28A82
330
29BA9
100
AcDbEntity
  8
OBJECT
100
AcDbLine
 10
30.92735631014713
 20
20.51603637188949
 30
0.0
 11
30.88735631014713
 21
20.51603637188949
 31
0.0
  0
LINE
  5
28A83
330
29BA9
100
AcDbEntity
  8
OBJECT
100
AcDbLine
 10
29.96735631014713
 20
17.48298726084557
 30
0.0
 11
2.137356310147084
 21
17.48298726084556
 31
0.0
  0
CIRCLE
  5
28A84
330
29BA9
100
AcDbEntity
  8
HATCH
100
AcDbCircle
 10
5.364856310147111
 20
17.7902319240686
 30
0.0
 40
0.095
  0
CIRCLE
  5
28A85
330
29BA9
100
AcDbEntity
  8
HATCH
100
AcDbCircle
 10
16.05235631014711
 20
17.7902319240686
 30
0.0
 40
0.095
  0
LINE
  5
28A86
330
29BA9
100
AcDbEntity
  8
OBJECT
100
AcDbLine
 10
29.96735631014713
 20
17.48298726084557
 30
0.0
 11
30.84735631014711
 21
18.36298726084555
 31
0.0
  0
CIRCLE
  5
28A87
330
29BA9
100
AcDbEntity
  8
HATCH
100
AcDbCircle
 10
26.73985631014711
 20
17.7902319240686
 30
0.0
 40
0.095
  0
LINE
  5
28A88
330
29BA9
100
AcDbEntity
  8
HIDDEN2
100
AcDbLine
 10
30.84735631014711
 20
18.36298726084555
 30
0.0
 11
30.84735631014711
 21
20.48654163771113
 31
0.0
  0
LINE
  5
28A89
330
29BA9
100
AcDbEntity
  8
OBJECT
100
AcDbLine
 10
30.88735631014712
 20
18.36298726084555
 30
0.0
 11
30.88735631014712
 21
20.48654163771113
 31
0.0
  0
LINE
  5
28A8A
330
29BA9
100
AcDbEntity
  8
OBJECT
100
AcDbLine
 10
30.84735631014713
 20
18.36298726084555
 30
0.0
 11
30.88735631014712
 21
18.36298726084555
 31
0.0
  0
LINE
  5
28A8B
330
29BA9
100
AcDbEntity
  8
HIDDEN2
100
AcDbLine
 10
30.88735631014712
 20
19.60654163771111
 30
0.0
 11
30.84735631014713
 21
19.60654163771111
 31
0.0
  0
ARC
  5
28A8C
330
29BA9
100
AcDbEntity
  8
HIDDEN2
100
AcDbCircle
 10
30.76735631014711
 20
20.48654163771113
 30
0.0
 40
0.08
100
AcDbArc
 50
0.0000000000001018
 51
90.0
  0
ARC
  5
28A8D
330
29BA9
100
AcDbEntity
  8
OBJECT
100
AcDbCircle
 10
30.76735631014711
 20
20.48654163771113
 30
0.0
 40
0.1199999999999992
100
AcDbArc
 50
0.0
 51
90.0
  0
INSERT
  5
29BEC
330
29BA9
100
AcDbEntity
  8
DATUM
100
AcDbBlockReference
 66
     1
  2
P-TITLE
 10
20.01413626975841
 20
2.496761339530565
 30
0.0
1001
AEC_XDATA_BOUND_SPACE
1070
   100
1070
     1
  0
ATTRIB
  5
29BED
330
29BEC
100
AcDbEntity
  8
OBJECT
100
AcDbText
 10
19.48913626975841
 20
0.8092613395305648
 30
0.0
 40
0.1
  1
HALF SIZE
  7
ROMANS
100
AcDbAttribute
  2
SCALE
 70
     0
280
     0
  0
ATTRIB
  5
29BEE
330
29BEC
100
AcDbEntity
  8
OBJECT
100
AcDbText
 10
19.41413626975841
 20
1.058781224453083
 30
0.0
 40
0.1
  1
ONE
  7
ROMANS
100
AcDbAttribute
  2
#_REQUIRED
 70
     0
280
     0
  0
ATTRIB
  5
29BEF
330
29BEC
100
AcDbEntity
  8
OBJECT
100
AcDbText
 10
19.68913626975841
 20
1.309261339530565
 30
0.0
 40
0.1
  1
PAINTCOTE
  7
ROMANS
100
AcDbAttribute
  2
MATERIAL
 70
     0
280
     0
  0
ATTRIB
  5
29BF0
330
29BEC
100
AcDbEntity
  8
OBJECT
100
AcDbText
 10
18.66163626975841
 20
1.899261339530565
 30
0.0
 40
0.12
  1
J
  7
ROMANS
 72
     4
 11
18.70163626975841
 21
1.959261339530565
 31
0.0
100
AcDbAttribute
  2
NO.
 70
     0
280
     0
  0
ATTRIB
  5
29BF1
330
29BEC
100
AcDbEntity
  8
OBJECT
100
AcDbText
 10
19.02663626975841
 20
1.784261339530565
 30
0.0
 40
0.15
  1
CONTROL PANEL FRAME
  7
ROMANS
100
AcDbAttribute
  2
DESCRIPTION
 70
     0
280
     0
  0
ATTRIB
  5
29BF2
330
29BEC
100
AcDbEntity
  8
OBJECT
100
AcDbText
 10
18.60449341261555
 20
1.699261339530564
 30
0.0
 40
0.12
  1
01
  7
ROMANS
 72
     4
 11
18.70163626975841
 21
1.759261339530565
 31
0.0
100
AcDbAttribute
  2
PAGE
 70
     0
280
     0
  0
SEQEND
  5
29BF3
330
29BEC
100
AcDbEntity
  8
DATUM
  0
TEXT
  5
29BFC
330
29BA9
100
AcDbEntity
  8
OBJECT
100
AcDbText
 10
5.734615539017568
 20
21.18615374015911
 30
0.0
 40
0.2
  1
ONE TENTH SIZE
  7
SIMPLEX
100
AcDbText
  0
VIEWPORT
  5
1
330
29BA6
100
AcDbEntity
 67
     1
  8
0
100
AcDbViewport
 10
18.34877859429337
 20
12.65844242856079
 30
0.0
 40
36.69755718858674
 41
25.31688485712159
 68
     1
 69
     1
 12
18.34877859429337
 22
12.65844242856079
 13
0.0
 23
0.0
 14
1.0
 24
1.0
 15
0.0
 25
0.0
 16
0.0
 26
0.0
 36
1.0
 17
0.0
 27
0.0
 37
0.0
 42
50.0
 43
0.0
 44
0.0
 45
25.31688485712159
 50
0.0
 51
0.0
 72
   100
 90
    33056
  1

281
     0
 71
     1
 74
     0
110
0.0
120
0.0
130
0.0
111
1.0
121
0.0
131
0.0
112
0.0
122
1.0
132
0.0
 79
     0
146
0.0
170
     0
 61
     5
348
29C26
292
     1
282
     1
141
0.0
142
0.0
 63
   250
421
  3355443
  0
ENDSEC
  0
SECTION
  2
OBJECTS
  0
DICTIONARY
  5
29B9D
330
0
100
AcDbDictionary
281
     1
  3
ACAD_CIP_PREVIOUS_PRODUCT_INFO
350
29C8C
  3
ACAD_COLOR
350
29C39
  3
ACAD_DETAILVIEWSTYLE
350
29C50
  3
ACAD_GROUP
350
29B9E
  3
ACAD_IMAGE_VARS
350
29CFC
  3
ACAD_LAYOUT
350
29C52
  3
ACAD_MATERIAL
350
29C07
  3
ACAD_MLEADERSTYLE
350
29C4C
  3
ACAD_MLINESTYLE
350
29B9F
  3
ACAD_PLOTSETTINGS
350
29C53
  3
ACAD_PLOTSTYLENAME
350
29C05
  3
ACAD_SCALELIST
350
29C3C
  3
ACAD_SECTIONVIEWSTYLE
350
29C4E
  3
ACAD_TABLESTYLE
350
29C3A
  3
ACAD_VISUALSTYLE
350
29C20
  3
ACDB_RECOMPOSE_DATA
350
29CFF
  3
AcDbVariableDictionary
350
29CBE
  3
APPDATA
350
29CFB
  0
DICTIONARY
  5
29CA3
330
29B93
100
AcDbDictionary
280
     1
281
     1
  3
ACAD_LAYERSTATES
360
29CA4
  0
DICTIONARY
  5
29C90
330
29BA0
100
AcDbDictionary
280
     1
281
     1
  3
ADSK_XREC_LAYER_RECONCILED
360
29C91
  0
DICTIONARY
  5
29C92
330
29BD5
100
AcDbDictionary
280
     1
281
     1
  3
ADSK_XREC_LAYER_RECONCILED
360
29C93
  0
DICTIONARY
  5
29C94
330
29BD6
100
AcDbDictionary
280
     1
281
     1
  3
ADSK_XREC_LAYER_RECONCILED
360
29C95
  0
DICTIONARY
  5
29C96
330
29BD7
100
AcDbDictionary
280
     1
281
     1
  3
ADSK_XREC_LAYER_RECONCILED
360
29C97
  0
DICTIONARY
  5
29C98
330
29BD8
100
AcDbDictionary
280
     1
281
     1
  3
ADSK_XREC_LAYER_RECONCILED
360
29C99
  0
DICTIONARY
  5
29C9A
330
29BDA
100
AcDbDictionary
280
     1
281
     1
  3
ADSK_XREC_LAYER_RECONCILED
360
29C9B
  0
DICTIONARY
  5
29C9C
330
29BDD
100
AcDbDictionary
280
     1
281
     1
  3
ADSK_XREC_LAYER_RECONCILED
360
29C9D
  0
DICTIONARY
  5
29C9E
330
29BDF
100
AcDbDictionary
280
     1
281
     1
  3
ADSK_XREC_LAYER_RECONCILED
360
29C9F
  0
XRECORD
  5
29C8C
102
{ACAD_REACTORS
330
29B9D
102
}
330
29B9D
100
AcDbXrecord
280
     1
300
ARCHDESK
300
2014
300
EMS_F_S
  0
DICTIONARY
  5
29C39
102
{ACAD_REACTORS
330
29B9D
102
}
330
29B9D
100
AcDbDictionary
281
     1
  0
DICTIONARY
  5
29C50
102
{ACAD_REACTORS
330
29B9D
102
}
330
29B9D
100
AcDbDictionary
281
     1
  3
Imperial24
350
29C51
  0
DICTIONARY
  5
29B9E
102
{ACAD_REACTORS
330
29B9D
102
}
330
29B9D
100
AcDbDictionary
281
     1
  0
RASTERVARIABLES
  5
29CFC
102
{ACAD_REACTORS
330
29B9D
102
}
330
29B9D
100
AcDbRasterVariables
 90
        0
 70
     1
 71
     1
 72
     0
  0
DICTIONARY
  5
29C52
102
{ACAD_REACTORS
330
29B9D
102
}
330
29B9D
100
AcDbDictionary
281
     1
  3
Layout1
350
29C55
  3
Model
350
29C54
  0
DICTIONARY
  5
29C07
102
{ACAD_REACTORS
330
29B9D
102
}
330
29B9D
100
AcDbDictionary
281
     1
  3
ByBlock
350
29C10
  3
ByLayer
350
29C08
  3
Global
350
29C18
  0
DICTIONARY
  5
29C4C
102
{ACAD_REACTORS
330
29B9D
102
}
330
29B9D
100
AcDbDictionary
281
     1
  3
Standard
350
29C4D
  0
DICTIONARY
  5
29B9F
102
{ACAD_REACTORS
330
29B9D
102
}
330
29B9D
100
AcDbDictionary
281
     1
  3
STANDARD
350
29BAC
  0
DICTIONARY
  5
29C53
102
{ACAD_REACTORS
330
29B9D
102
}
330
29B9D
100
AcDbDictionary
281
     1
  0
ACDBDICTIONARYWDFLT
  5
29C05
102
{ACAD_REACTORS
330
29B9D
102
}
330
29B9D
100
AcDbDictionary
281
     1
  3
Normal
350
29C06
100
AcDbDictionaryWithDefault
340
29C06
  0
DICTIONARY
  5
29C3C
102
{ACAD_REACTORS
330
29B9D
102
}
330
29B9D
100
AcDbDictionary
281
     1
  3
A0
350
29C3D
  3
A1
350
29C3E
  3
A2
350
29C3F
  3
A3
350
29C40
  3
A4
350
29C41
  3
A5
350
29C42
  3
A6
350
29C43
  3
A7
350
29C44
  3
A8
350
29C45
  3
A9
350
29C46
  3
B0
350
29C47
  3
B1
350
29C48
  3
B2
350
29C49
  3
B3
350
29C4A
  3
B4
350
29C4B
  0
DICTIONARY
  5
29C4E
102
{ACAD_REACTORS
330
29B9D
102
}
330
29B9D
100
AcDbDictionary
281
     1
  3
Imperial24
350
29C4F
  0
DICTIONARY
  5
29C3A
102
{ACAD_REACTORS
330
29B9D
102
}
330
29B9D
100
AcDbDictionary
281
     1
  3
Standard
350
29C3B
  0
DICTIONARY
  5
29C20
102
{ACAD_REACTORS
330
29B9D
102
}
330
29B9D
100
AcDbDictionary
281
     1
  3
2dWireframe
350
29C26
  3
Basic
350
29C25
  3
Brighten
350
29C2C
  3
ColorChange
350
29C30
  3
Conceptual
350
29C29
  3
Dim
350
29C2B
  3
EdgeColorOff
350
29C38
  3
Facepattern
350
29C2F
  3
Flat
350
29C21
  3
FlatWithEdges
350
29C22
  3
Gouraud
350
29C23
  3
GouraudWithEdges
350
29C24
  3
Hidden
350
29C28
  3
JitterOff
350
29C36
  3
Linepattern
350
29C2E
  3
OverhangOff
350
29C37
  3
Realistic
350
29C2A
  3
Shaded
350
29C35
  3
Shaded with edges
350
29C34
  3
Shades of Gray
350
29C31
  3
Sketchy
350
29C32
  3
Thicken
350
29C2D
  3
Wireframe
350
29C27
  3
X-Ray
350
29C33
  0
XRECORD
  5
29CFF
102
{ACAD_REACTORS
330
29B9D
102
}
330
29B9D
100
AcDbXrecord
280
     1
 90
        1
330
29C3B
  0
DICTIONARY
  5
29CBE
102
{ACAD_REACTORS
330
29B9D
102
}
330
29B9D
100
AcDbDictionary
281
     1
  3
CANNOSCALE
350
29CC4
  3
CMLEADERSTYLE
350
29CC0
  3
CTABLESTYLE
350
29CBF
  3
CVIEWDETAILSTYLE
350
29CC1
  3
CVIEWSECTIONSTYLE
350
29CC2
  3
LAYEREVAL
350
29CC6
  3
LAYERNOTIFY
350
29CC7
  3
LIGHTINGUNITS
350
29CC5
  3
MSLTSCALE
350
29CC3
  0
DICTIONARY
  5
29CFB
102
{ACAD_REACTORS
330
29B9D
102
}
330
29B9D
100
AcDbDictionary
281
     1
  0
DICTIONARY
  5
29CA4
102
{ACAD_REACTORS
330
29CA3
102
}
330
29CA3
100
AcDbDictionary
281
     1
  0
XRECORD
  5
29C91
102
{ACAD_REACTORS
330
29C90
102
}
330
29C90
100
AcDbXrecord
280
     1
290
     1
  0
XRECORD
  5
29C93
102
{ACAD_REACTORS
330
29C92
102
}
330
29C92
100
AcDbXrecord
280
     1
290
     1
  0
XRECORD
  5
29C95
102
{ACAD_REACTORS
330
29C94
102
}
330
29C94
100
AcDbXrecord
280
     1
290
     1
  0
XRECORD
  5
29C97
102
{ACAD_REACTORS
330
29C96
102
}
330
29C96
100
AcDbXrecord
280
     1
290
     1
  0
XRECORD
  5
29C99
102
{ACAD_REACTORS
330
29C98
102
}
330
29C98
100
AcDbXrecord
280
     1
290
     1
  0
XRECORD
  5
29C9B
102
{ACAD_REACTORS
330
29C9A
102
}
330
29C9A
100
AcDbXrecord
280
     1
290
     1
  0
XRECORD
  5
29C9D
102
{ACAD_REACTORS
330
29C9C
102
}
330
29C9C
100
AcDbXrecord
280
     1
290
     1
  0
XRECORD
  5
29C9F
102
{ACAD_REACTORS
330
29C9E
102
}
330
29C9E
100
AcDbXrecord
280
     1
290
     1
  0
ACAD_PROXY_OBJECT
  5
29C51
102
{ACAD_REACTORS
330
29C50
102
}
102
{ACAD_XDICTIONARY
360
29CBB
102
}
330
29C50
100
AcDbProxyObject
 90
      499
 91
      507
 95
  3735583
 70
     0
162
              1622
311
4292401B401C0019401C801A4018401B000C800D0025689400F001700104018C0158018401C80080015801A4019401DC015001E401C0019400800170019800800088009401D0018C00C4008800F800940080009400F001700104018C0158018401C80080015801A4019401DC0110019401D0018401A401B00124019000F800
311
9401700140014C010C0104013001140080009400F001700104018C0158018401C80080015801A4019401DC014C018C018401B0019400800170019800800088009401CC01B8008800F8009400
161
               675
310
9207000000180005C0F42F5A8DC671F815AF46E07A15AE7E07000000180005C0F42F5A8DC671FA3300000018001000000180005C0F42F5A8DC671FA02000000000000741FA028CC000000600023300000018000000
340
29BA1
340
0
340
29BA5
340
29BA1
340
29BA5
340
29BA5
 94
        0
  0
LAYOUT
  5
29C55
102
{ACAD_REACTORS
330
29C52
102
}
330
29C52
100
AcDbPlotSettings
  1

  2
HP LaserJet 1320 PCL 5
  4

  6

 40
0.0
 41
0.0
 42
0.0
 43
0.0
 44
0.0
 45
0.0
 46
0.0
 47
0.0
 48
0.0
 49
0.0
140
0.0
141
0.0
142
1.0
143
1.0
 70
   688
 72
     0
 73
     0
 74
     5
  7

 75
    16
 76
     0
 77
     2
 78
   300
147
1.0
148
0.0
149
0.0
100
AcDbLayout
  1
Layout1
 70
     1
 71
     1
 10
0.0
 20
0.0
 11
12.0
 21
9.0
 12
0.0
 22
0.0
 32
0.0
 14
14.0
 24
6.0
 34
0.0
 15
20.0
 25
10.0
 35
0.0
146
0.0
 13
0.0
 23
0.0
 33
0.0
 16
1.0
 26
0.0
 36
0.0
 17
0.0
 27
1.0
 37
0.0
 76
     0
330
29BA6
331
1
  0
LAYOUT
  5
29C54
102
{ACAD_REACTORS
330
29C52
102
}
330
29C52
100
AcDbPlotSettings
  1

  2
HP LaserJet 1320 PCL 5
  4

  6

 40
0.0
 41
0.0
 42
0.0
 43
0.0
 44
0.0
 45
0.0
 46
0.0
 47
0.0
 48
0.0
 49
0.0
140
0.0
141
0.0
142
1.0
143
1.0
 70
  1712
 72
     0
 73
     0
 74
     0
  7

 75
     0
 76
     0
 77
     2
 78
   300
147
1.0
148
0.0
149
0.0
100
AcDbLayout
  1
Model
 70
     1
 71
     0
 10
0.0
 20
0.0
 11
12.0
 21
9.0
 12
0.0
 22
0.0
 32
0.0
 14
0.0
 24
0.0
 34
0.0
 15
0.0
 25
0.0
 35
0.0
146
0.0
 13
0.0
 23
0.0
 33
0.0
 16
1.0
 26
0.0
 36
0.0
 17
0.0
 27
1.0
 37
0.0
 76
     0
330
29BA9
331
29C03
  0
MATERIAL
  5
29C10
102
{ACAD_REACTORS
330
29C07
102
}
330
29C07
100
AcDbMaterial
  1
ByBlock
 72
     0
 73
     2
 43
0.0208333333333333
 43
0.0
 43
0.0
 43
0.0
 43
0.0
 43
0.0208333333333333
 43
0.0
 43
0.0
 43
0.0
 43
0.0
 43
1.0
 43
0.0
 43
0.0
 43
0.0
 43
0.0
 43
1.0
 77
     0
 78
     2
 47
0.0208333333333333
 47
0.0
 47
0.0
 47
0.0
 47
0.0
 47
0.0208333333333333
 47
0.0
 47
0.0
 47
0.0
 47
0.0
 47
1.0
 47
0.0
 47
0.0
 47
0.0
 47
0.0
 47
1.0
171
     0
172
     2
 49
0.0208333333333333
 49
0.0
 49
0.0
 49
0.0
 49
0.0
 49
0.0208333333333333
 49
0.0
 49
0.0
 49
0.0
 49
0.0
 49
1.0
 49
0.0
 49
0.0
 49
0.0
 49
0.0
 49
1.0
175
     0
176
     2
142
0.0208333333333333
142
0.0
142
0.0
142
0.0
142
0.0
142
0.0208333333333333
142
0.0
142
0.0
142
0.0
142
0.0
142
1.0
142
0.0
142
0.0
142
0.0
142
0.0
142
1.0
179
     0
270
     2
144
0.0208333333333333
144
0.0
144
0.0
144
0.0
144
0.0
144
0.0208333333333333
144
0.0
144
0.0
144
0.0
144
0.0
144
1.0
144
0.0
144
0.0
144
0.0
144
0.0
144
1.0
274
     2
147
0.0208333333333333
147
0.0
147
0.0
147
0.0
147
0.0
147
0.0208333333333333
147
0.0
147
0.0
147
0.0
147
0.0
147
1.0
147
0.0
147
0.0
147
0.0
147
0.0
147
1.0
 94
      127
  0
MATERIAL
  5
29C08
102
{ACAD_REACTORS
330
29C07
102
}
330
29C07
100
AcDbMaterial
  1
ByLayer
 72
     0
 73
     2
 43
0.0208333333333333
 43
0.0
 43
0.0
 43
0.0
 43
0.0
 43
0.0208333333333333
 43
0.0
 43
0.0
 43
0.0
 43
0.0
 43
1.0
 43
0.0
 43
0.0
 43
0.0
 43
0.0
 43
1.0
 77
     0
 78
     2
 47
0.0208333333333333
 47
0.0
 47
0.0
 47
0.0
 47
0.0
 47
0.0208333333333333
 47
0.0
 47
0.0
 47
0.0
 47
0.0
 47
1.0
 47
0.0
 47
0.0
 47
0.0
 47
0.0
 47
1.0
171
     0
172
     2
 49
0.0208333333333333
 49
0.0
 49
0.0
 49
0.0
 49
0.0
 49
0.0208333333333333
 49
0.0
 49
0.0
 49
0.0
 49
0.0
 49
1.0
 49
0.0
 49
0.0
 49
0.0
 49
0.0
 49
1.0
175
     0
176
     2
142
0.0208333333333333
142
0.0
142
0.0
142
0.0
142
0.0
142
0.0208333333333333
142
0.0
142
0.0
142
0.0
142
0.0
142
1.0
142
0.0
142
0.0
142
0.0
142
0.0
142
1.0
179
     0
270
     2
144
0.0208333333333333
144
0.0
144
0.0
144
0.0
144
0.0
144
0.0208333333333333
144
0.0
144
0.0
144
0.0
144
0.0
144
1.0
144
0.0
144
0.0
144
0.0
144
0.0
144
1.0
274
     2
147
0.0208333333333333
147
0.0
147
0.0
147
0.0
147
0.0
147
0.0208333333333333
147
0.0
147
0.0
147
0.0
147
0.0
147
1.0
147
0.0
147
0.0
147
0.0
147
0.0
147
1.0
 94
      127
  0
MATERIAL
  5
29C18
102
{ACAD_REACTORS
330
29C07
102
}
330
29C07
100
AcDbMaterial
  1
Global
 72
     0
 73
     2
 43
0.0208333333333333
 43
0.0
 43
0.0
 43
0.0
 43
0.0
 43
0.0208333333333333
 43
0.0
 43
0.0
 43
0.0
 43
0.0
 43
1.0
 43
0.0
 43
0.0
 43
0.0
 43
0.0
 43
1.0
 77
     0
 78
     2
 47
0.0208333333333333
 47
0.0
 47
0.0
 47
0.0
 47
0.0
 47
0.0208333333333333
 47
0.0
 47
0.0
 47
0.0
 47
0.0
 47
1.0
 47
0.0
 47
0.0
 47
0.0
 47
0.0
 47
1.0
171
     0
172
     2
 49
0.0208333333333333
 49
0.0
 49
0.0
 49
0.0
 49
0.0
 49
0.0208333333333333
 49
0.0
 49
0.0
 49
0.0
 49
0.0
 49
1.0
 49
0.0
 49
0.0
 49
0.0
 49
0.0
 49
1.0
175
     0
176
     2
142
0.0208333333333333
142
0.0
142
0.0
142
0.0
142
0.0
142
0.0208333333333333
142
0.0
142
0.0
142
0.0
142
0.0
142
1.0
142
0.0
142
0.0
142
0.0
142
0.0
142
1.0
179
     0
270
     2
144
0.0208333333333333
144
0.0
144
0.0
144
0.0
144
0.0
144
0.0208333333333333
144
0.0
144
0.0
144
0.0
144
0.0
144
1.0
144
0.0
144
0.0
144
0.0
144
0.0
144
1.0
274
     2
147
0.0208333333333333
147
0.0
147
0.0
147
0.0
147
0.0
147
0.0208333333333333
147
0.0
147
0.0
147
0.0
147
0.0
147
1.0
147
0.0
147
0.0
147
0.0
147
0.0
147
1.0
 94
      127
  0
MLEADERSTYLE
  5
29C4D
102
{ACAD_REACTORS
330
29C4C
102
}
330
29C4C
100
AcDbMLeaderStyle
179
     2
170
     2
171
     1
172
     0
 90
        2
 40
0.0
 41
0.0
173
     1
 91
-1056964608
340
29BA3
 92
       -2
290
     1
 42
0.09
291
     1
 43
0.36
  3
Standard
341
0
 44
0.18
300

342
29BA1
174
     1
178
     6
175
     1
176
     0
 93
-1056964608
 45
0.18
292
     0
297
     0
 46
0.18
343
0
 94
-1056964608
 47
1.0
 49
1.0
140
1.0
293
     1
141
0.0
294
     1
177
     0
142
1.0
295
     0
296
     1
143
0.125
271
     0
272
     9
273
     9
1001
ACAD_MLEADERVER
1070
     2
  0
MLINESTYLE
  5
29BAC
102
{ACAD_REACTORS
330
29B9F
102
}
330
29B9F
100
AcDbMlineStyle
  2
STANDARD
 70
     0
  3

 62
     0
 51
90.0
 52
90.0
 71
     2
 49
0.5
 62
   256
  6
BYLAYER
 49
-0.5
 62
   256
  6
BYLAYER
  0
ACDBPLACEHOLDER
  5
29C06
102
{ACAD_REACTORS
330
29C05
102
}
330
29C05
  0
SCALE
  5
29C3D
102
{ACAD_REACTORS
330
29C3C
102
}
330
29C3C
100
AcDbScale
 70
     0
300
1/64" = 1'-0"
140
0.015625
141
12.0
290
     0
  0
SCALE
  5
29C3E
102
{ACAD_REACTORS
330
29C3C
102
}
330
29C3C
100
AcDbScale
 70
     0
300
1/32" = 1'-0"
140
0.03125
141
12.0
290
     0
  0
SCALE
  5
29C3F
102
{ACAD_REACTORS
330
29C3C
102
}
330
29C3C
100
AcDbScale
 70
     0
300
1/16" = 1'-0"
140
0.0625
141
12.0
290
     0
  0
SCALE
  5
29C40
102
{ACAD_REACTORS
330
29C3C
102
}
330
29C3C
100
AcDbScale
 70
     0
300
3/32" = 1'-0"
140
0.09375
141
12.0
290
     0
  0
SCALE
  5
29C41
102
{ACAD_REACTORS
330
29C3C
102
}
330
29C3C
100
AcDbScale
 70
     0
300
1/8" = 1'-0"
140
0.125
141
12.0
290
     0
  0
SCALE
  5
29C42
102
{ACAD_REACTORS
330
29C3C
102
}
330
29C3C
100
AcDbScale
 70
     0
300
3/16" = 1'-0"
140
0.1875
141
12.0
290
     0
  0
SCALE
  5
29C43
102
{ACAD_REACTORS
330
29C3C
102
}
330
29C3C
100
AcDbScale
 70
     0
300
1/4" = 1'-0"
140
0.25
141
12.0
290
     0
  0
SCALE
  5
29C44
102
{ACAD_REACTORS
330
29C3C
102
}
330
29C3C
100
AcDbScale
 70
     0
300
3/8" = 1'-0"
140
0.375
141
12.0
290
     0
  0
SCALE
  5
29C45
102
{ACAD_REACTORS
330
29C3C
102
}
330
29C3C
100
AcDbScale
 70
     0
300
1/2" = 1'-0"
140
0.5
141
12.0
290
     0
  0
SCALE
  5
29C46
102
{ACAD_REACTORS
330
29C3C
102
}
330
29C3C
100
AcDbScale
 70
     0
300
3/4" = 1'-0"
140
0.75
141
12.0
290
     0
  0
SCALE
  5
29C47
102
{ACAD_REACTORS
330
29C3C
102
}
330
29C3C
100
AcDbScale
 70
     0
300
1" = 1'-0"
140
1.0
141
12.0
290
     0
  0
SCALE
  5
29C48
102
{ACAD_REACTORS
330
29C3C
102
}
330
29C3C
100
AcDbScale
 70
     0
300
1 1/2" = 1'-0"
140
1.5
141
12.0
290
     0
  0
SCALE
  5
29C49
102
{ACAD_REACTORS
330
29C3C
102
}
330
29C3C
100
AcDbScale
 70
     0
300
3" = 1'-0"
140
3.0
141
12.0
290
     0
  0
SCALE
  5
29C4A
102
{ACAD_REACTORS
330
29C3C
102
}
330
29C3C
100
AcDbScale
 70
     0
300
6" = 1'-0"
140
6.0
141
12.0
290
     0
  0
SCALE
  5
29C4B
102
{ACAD_REACTORS
330
29C3C
102
}
330
29C3C
100
AcDbScale
 70
     0
300
1'-0" = 1'-0"
140
12.0
141
12.0
290
     1
  0
ACAD_PROXY_OBJECT
  5
29C4F
102
{ACAD_REACTORS
330
29C4E
102
}
102
{ACAD_XDICTIONARY
360
29CB9
102
}
330
29C4E
100
AcDbProxyObject
 90
      499
 91
      506
 95
  3735583
 70
     0
162
              2536
311
4292401B401C0019401C801A4018401B000C800D0011049002C0020004F002C00200051002C00200053002C00200058002C0020005A005F09400F001700104018C0158018401C80080015801A4019401DC015001E401C0019400800170019800800088009401D0018C00C4008800F800940080009400F001700104018C0158
311
018401C80080015801A4019401DC014C0194018C01D001A401BC01B8014C01D0018401C801D00124019000F8009400B4009400F001700104018C0158018401C80080015801A4019401DC014C0194018C01D001A401BC01B8011401B801900124019000F8009401700140014C010C0104013001140080009400F00170010401
311
8C0158018401C80080015801A4019401DC014C018C018401B0019400800170019800800088009401CC01B8008800F80094010641004E005300490033003100
161
              1261
310
929D000000180005C0F42F5A8DC671FC00000060001703D0BD6A3719C7E5C0F42F5A8DC6F1FA330000001800099400000060001703D0BD6A3719C7E5C0F42F5A8DC671FC00000060001703D0BD6A3719C7E808000000000001D07E80C0000006000400000064003081815AF46E07A158E7E80C8340C16A22A7D90FC9F8CAE6
310
5A70A583A07E1FE81C635378FA1F8CAE65A70A583A17E7944A7F127A97E9F8
340
29BA1
340
0
340
0
340
29BA5
340
29BA5
340
29BA1
 94
        0
  0
TABLESTYLE
  5
29C3B
102
{ACAD_REACTORS
330
29C3A
102
}
102
{ACAD_XDICTIONARY
360
29CFD
102
}
330
29C3A
100
AcDbTableStyle
  3
Standard
 70
     0
 71
     0
 40
0.06
 41
0.06
280
     0
281
     0
  7
STANDARD
140
0.18
170
     2
 62
     0
 63
   257
283
     0
 90
      512
 91
        0
  1

274
    -2
284
     1
 64
     0
275
    -2
285
     1
 65
     0
276
    -2
286
     1
 66
     0
277
    -2
287
     1
 67
     0
278
    -2
288
     1
 68
     0
279
    -2
289
     1
 69
     0
  7
STANDARD
140
0.25
170
     5
 62
     0
 63
   257
283
     0
 90
      512
 91
        0
  1

274
    -2
284
     1
 64
     0
275
    -2
285
     1
 65
     0
276
    -2
286
     1
 66
     0
277
    -2
287
     1
 67
     0
278
    -2
288
     1
 68
     0
279
    -2
289
     1
 69
     0
  7
STANDARD
140
0.18
170
     5
 62
     0
 63
   257
283
     0
 90
      512
 91
        0
  1

274
    -2
284
     1
 64
     0
275
    -2
285
     1
 65
     0
276
    -2
286
     1
 66
     0
277
    -2
287
     1
 67
     0
278
    -2
288
     1
 68
     0
279
    -2
289
     1
 69
     0
  0
VISUALSTYLE
  5
29C26
102
{ACAD_REACTORS
330
29C20
102
}
330
29C20
100
AcDbVisualStyle
  2
2dWireframe
 70
     4
177
     2
291
     0
 71
     0
176
     1
 72
     2
176
     1
 73
     0
176
     1
 90
        0
176
     1
 40
0.6
176
     1
 41
30.0
176
     1
 62
     5
 63
     7
421
 16777215
176
     1
 74
     1
176
     1
 91
        4
176
     1
 64
     7
176
     1
 65
   257
176
     1
 75
     1
176
     1
175
     1
176
     1
 42
1.0
176
     1
 92
        0
176
     1
 66
   257
176
     1
 43
1.0
176
     1
 76
     1
176
     1
 77
     6
176
     1
 78
     2
176
     1
 67
     7
176
     1
 79
     5
176
     1
170
     0
176
     1
171
     0
176
     1
290
     0
176
     1
 93
        1
176
     1
 44
0.0
176
     1
173
     0
176
     1
  0
VISUALSTYLE
  5
29C25
102
{ACAD_REACTORS
330
29C20
102
}
330
29C20
100
AcDbVisualStyle
  2
Basic
 70
     7
177
     2
291
     1
 71
     1
176
     1
 72
     0
176
     1
 73
     1
176
     1
 90
        0
176
     1
 40
0.6
176
     1
 41
30.0
176
     1
 62
     5
 63
     7
421
 16777215
176
     1
 74
     0
176
     1
 91
        4
176
     1
 64
     7
176
     1
 65
   257
176
     1
 75
     1
176
     1
175
     1
176
     1
 42
1.0
176
     1
 92
        8
176
     1
 66
     7
176
     1
 43
1.0
176
     1
 76
     1
176
     1
 77
     6
176
     1
 78
     2
176
     1
 67
     7
176
     1
 79
     5
176
     1
170
     0
176
     1
171
     0
176
     1
290
     0
176
     1
 93
        1
176
     1
 44
0.0
176
     1
173
     0
176
     1
  0
VISUALSTYLE
  5
29C2C
102
{ACAD_REACTORS
330
29C20
102
}
330
29C20
100
AcDbVisualStyle
  2
Brighten
 70
    12
177
     2
291
     1
 71
     2
176
     1
 72
     2
176
     1
 73
     0
176
     1
 90
        0
176
     1
 40
0.6
176
     1
 41
30.0
176
     1
 62
     5
 63
     7
421
 16777215
176
     1
 74
     1
176
     1
 91
        4
176
     1
 64
     7
176
     1
 65
   257
176
     1
 75
     1
176
     1
175
     1
176
     1
 42
1.0
176
     1
 92
        8
176
     1
 66
     7
176
     1
 43
1.0
176
     1
 76
     1
176
     1
 77
     6
176
     1
 78
     2
176
     1
 67
     7
176
     1
 79
     5
176
     1
170
     0
176
     1
171
     0
176
     1
290
     0
176
     1
 93
        1
176
     1
 44
50.0
176
     1
173
     0
176
     1
  0
VISUALSTYLE
  5
29C30
102
{ACAD_REACTORS
330
29C20
102
}
330
29C20
100
AcDbVisualStyle
  2
ColorChange
 70
    16
177
     2
291
     1
 71
     2
176
     1
 72
     2
176
     1
 73
     3
176
     1
 90
        0
176
     1
 40
0.6
176
     1
 41
30.0
176
     1
 62
     5
 63
     8
421
  8421504
176
     1
 74
     1
176
     1
 91
        4
176
     1
 64
     7
176
     1
 65
   257
176
     1
 75
     1
176
     1
175
     1
176
     1
 42
1.0
176
     1
 92
        8
176
     1
 66
     8
424
  8421504
176
     1
 43
1.0
176
     1
 76
     1
176
     1
 77
     6
176
     1
 78
     2
176
     1
 67
     7
176
     1
 79
     5
176
     1
170
     0
176
     1
171
     0
176
     1
290
     0
176
     1
 93
        1
176
     1
 44
0.0
176
     1
173
     0
176
     1
  0
VISUALSTYLE
  5
29C29
102
{ACAD_REACTORS
330
29C20
102
}
330
29C20
100
AcDbVisualStyle
  2
Conceptual
 70
     9
177
     2
291
     0
 71
     3
176
     1
 72
     2
176
     1
 73
     0
176
     1
 90
        0
176
     1
 40
0.6
176
     1
 41
30.0
176
     1
 62
     5
 63
     7
421
 16777215
176
     1
 74
     2
176
     1
 91
        2
176
     1
 64
     7
176
     1
 65
   257
176
     1
 75
     1
176
     1
175
     1
176
     1
 42
179.0
176
     1
 92
        8
176
     1
 66
     7
176
     1
 43
1.0
176
     1
 76
     1
176
     1
 77
     6
176
     1
 78
     2
176
     1
 67
     7
176
     1
 79
     3
176
     1
170
     0
176
     1
171
     0
176
     1
290
     0
176
     1
 93
        1
176
     1
 44
0.0
176
     1
173
     0
176
     1
  0
VISUALSTYLE
  5
29C2B
102
{ACAD_REACTORS
330
29C20
102
}
330
29C20
100
AcDbVisualStyle
  2
Dim
 70
    11
177
     2
291
     1
 71
     2
176
     1
 72
     2
176
     1
 73
     0
176
     1
 90
        0
176
     1
 40
0.6
176
     1
 41
30.0
176
     1
 62
     5
 63
     7
421
 16777215
176
     1
 74
     1
176
     1
 91
        4
176
     1
 64
     7
176
     1
 65
   257
176
     1
 75
     1
176
     1
175
     1
176
     1
 42
1.0
176
     1
 92
        8
176
     1
 66
     7
176
     1
 43
1.0
176
     1
 76
     1
176
     1
 77
     6
176
     1
 78
     2
176
     1
 67
     7
176
     1
 79
     5
176
     1
170
     0
176
     1
171
     0
176
     1
290
     0
176
     1
 93
        1
176
     1
 44
-50.0
176
     1
173
     0
176
     1
  0
VISUALSTYLE
  5
29C38
102
{ACAD_REACTORS
330
29C20
102
}
330
29C20
100
AcDbVisualStyle
  2
EdgeColorOff
 70
    22
177
     2
291
     1
 71
     2
176
     0
 72
     2
176
     0
 73
     0
176
     0
 90
        0
176
     0
 40
0.6
176
     0
 41
30.0
176
     0
 62
     5
 63
     7
421
 16777215
176
     0
 74
     1
176
     0
 91
        4
176
     0
 64
     7
176
     0
 65
   257
176
     0
 75
     1
176
     0
175
     1
176
     0
 42
1.0
176
     0
 92
        8
176
     2
 66
     7
176
     0
 43
1.0
176
     0
 76
     1
176
     0
 77
     6
176
     0
 78
     2
176
     0
 67
     7
176
     0
 79
     5
176
     0
170
     0
176
     0
171
     0
176
     0
290
     0
176
     0
 93
        1
176
     0
 44
0.0
176
     0
173
     0
176
     0
  0
VISUALSTYLE
  5
29C2F
102
{ACAD_REACTORS
330
29C20
102
}
330
29C20
100
AcDbVisualStyle
  2
Facepattern
 70
    15
177
     2
291
     1
 71
     2
176
     1
 72
     2
176
     1
 73
     0
176
     1
 90
        0
176
     1
 40
0.6
176
     1
 41
30.0
176
     1
 62
     5
 63
     7
421
 16777215
176
     1
 74
     1
176
     1
 91
        4
176
     1
 64
     7
176
     1
 65
   257
176
     1
 75
     1
176
     1
175
     1
176
     1
 42
1.0
176
     1
 92
        8
176
     1
 66
     7
176
     1
 43
1.0
176
     1
 76
     1
176
     1
 77
     6
176
     1
 78
     2
176
     1
 67
     7
176
     1
 79
     5
176
     1
170
     0
176
     1
171
     0
176
     1
290
     0
176
     1
 93
        1
176
     1
 44
0.0
176
     1
173
     0
176
     1
  0
VISUALSTYLE
  5
29C21
102
{ACAD_REACTORS
330
29C20
102
}
330
29C20
100
AcDbVisualStyle
  2
Flat
 70
     0
177
     2
291
     1
 71
     2
176
     1
 72
     1
176
     1
 73
     1
176
     1
 90
        2
176
     1
 40
0.6
176
     1
 41
30.0
176
     1
 62
     5
 63
     7
421
 16777215
176
     1
 74
     0
176
     1
 91
        0
176
     1
 64
     7
176
     1
 65
   257
176
     1
 75
     1
176
     1
175
     1
176
     1
 42
1.0
176
     1
 92
        8
176
     1
 66
     7
176
     1
 43
1.0
176
     1
 76
     1
176
     1
 77
     6
176
     1
 78
     2
176
     1
 67
     7
176
     1
 79
     5
176
     1
170
     0
176
     1
171
     0
176
     1
290
     0
176
     1
 93
       13
176
     1
 44
0.0
176
     1
173
     0
176
     1
  0
VISUALSTYLE
  5
29C22
102
{ACAD_REACTORS
330
29C20
102
}
330
29C20
100
AcDbVisualStyle
  2
FlatWithEdges
 70
     1
177
     2
291
     1
 71
     2
176
     1
 72
     1
176
     1
 73
     1
176
     1
 90
        2
176
     1
 40
0.6
176
     1
 41
30.0
176
     1
 62
     5
 63
     7
421
 16777215
176
     1
 74
     1
176
     1
 91
        0
176
     1
 64
     7
176
     1
 65
   257
176
     1
 75
     1
176
     1
175
     1
176
     1
 42
1.0
176
     1
 92
        0
176
     1
 66
   257
176
     1
 43
1.0
176
     1
 76
     1
176
     1
 77
     6
176
     1
 78
     2
176
     1
 67
     7
176
     1
 79
     5
176
     1
170
     0
176
     1
171
     0
176
     1
290
     0
176
     1
 93
       13
176
     1
 44
0.0
176
     1
173
     0
176
     1
  0
VISUALSTYLE
  5
29C23
102
{ACAD_REACTORS
330
29C20
102
}
330
29C20
100
AcDbVisualStyle
  2
Gouraud
 70
     2
177
     2
291
     1
 71
     2
176
     1
 72
     2
176
     1
 73
     1
176
     1
 90
        2
176
     1
 40
0.6
176
     1
 41
30.0
176
     1
 62
     5
 63
     7
421
 16777215
176
     1
 74
     0
176
     1
 91
        0
176
     1
 64
     7
176
     1
 65
   257
176
     1
 75
     1
176
     1
175
     1
176
     1
 42
1.0
176
     1
 92
        0
176
     1
 66
     7
176
     1
 43
1.0
176
     1
 76
     1
176
     1
 77
     6
176
     1
 78
     2
176
     1
 67
     7
176
     1
 79
     5
176
     1
170
     0
176
     1
171
     0
176
     1
290
     0
176
     1
 93
       13
176
     1
 44
0.0
176
     1
173
     0
176
     1
  0
VISUALSTYLE
  5
29C24
102
{ACAD_REACTORS
330
29C20
102
}
330
29C20
100
AcDbVisualStyle
  2
GouraudWithEdges
 70
     3
177
     2
291
     1
 71
     2
176
     1
 72
     2
176
     1
 73
     1
176
     1
 90
        2
176
     1
 40
0.6
176
     1
 41
30.0
176
     1
 62
     5
 63
     7
421
 16777215
176
     1
 74
     1
176
     1
 91
        0
176
     1
 64
     7
176
     1
 65
   257
176
     1
 75
     1
176
     1
175
     1
176
     1
 42
1.0
176
     1
 92
        0
176
     1
 66
   257
176
     1
 43
1.0
176
     1
 76
     1
176
     1
 77
     6
176
     1
 78
     2
176
     1
 67
     7
176
     1
 79
     5
176
     1
170
     0
176
     1
171
     0
176
     1
290
     0
176
     1
 93
       13
176
     1
 44
0.0
176
     1
173
     0
176
     1
  0
VISUALSTYLE
  5
29C28
102
{ACAD_REACTORS
330
29C20
102
}
330
29C20
100
AcDbVisualStyle
  2
Hidden
 70
     6
177
     2
291
     0
 71
     1
176
     1
 72
     2
176
     1
 73
     2
176
     1
 90
        0
176
     1
 40
0.6
176
     1
 41
30.0
176
     1
 62
     5
 63
     7
421
 16777215
176
     1
 74
     2
176
     1
 91
        2
176
     1
 64
     7
176
     1
 65
   257
176
     1
 75
     2
176
     1
175
     1
176
     1
 42
40.0
176
     1
 92
        0
176
     1
 66
   257
176
     1
 43
1.0
176
     1
 76
     1
176
     1
 77
     6
176
     1
 78
     2
176
     1
 67
     7
176
     1
 79
     3
176
     1
170
     0
176
     1
171
     0
176
     1
290
     0
176
     1
 93
        1
176
     1
 44
0.0
176
     1
173
     0
176
     1
  0
VISUALSTYLE
  5
29C36
102
{ACAD_REACTORS
330
29C20
102
}
330
29C20
100
AcDbVisualStyle
  2
JitterOff
 70
    20
177
     2
291
     1
 71
     2
176
     0
 72
     2
176
     0
 73
     0
176
     0
 90
        0
176
     0
 40
0.6
176
     0
 41
30.0
176
     0
 62
     5
 63
     7
421
 16777215
176
     0
 74
     1
176
     0
 91
        4
176
     0
 64
     7
176
     0
 65
   257
176
     0
 75
     1
176
     0
175
     1
176
     0
 42
1.0
176
     0
 92
       10
176
     2
 66
     7
176
     0
 43
1.0
176
     0
 76
     1
176
     0
 77
     6
176
     0
 78
     2
176
     0
 67
     7
176
     0
 79
     5
176
     0
170
     0
176
     0
171
     0
176
     0
290
     0
176
     0
 93
        1
176
     0
 44
0.0
176
     0
173
     0
176
     0
  0
VISUALSTYLE
  5
29C2E
102
{ACAD_REACTORS
330
29C20
102
}
330
29C20
100
AcDbVisualStyle
  2
Linepattern
 70
    14
177
     2
291
     1
 71
     2
176
     1
 72
     2
176
     1
 73
     0
176
     1
 90
        0
176
     1
 40
0.6
176
     1
 41
30.0
176
     1
 62
     5
 63
     7
421
 16777215
176
     1
 74
     1
176
     1
 91
        4
176
     1
 64
     7
176
     1
 65
   257
176
     1
 75
     7
176
     1
175
     7
176
     1
 42
1.0
176
     1
 92
        8
176
     1
 66
     7
176
     1
 43
1.0
176
     1
 76
     1
176
     1
 77
     6
176
     1
 78
     2
176
     1
 67
     7
176
     1
 79
     5
176
     1
170
     0
176
     1
171
     0
176
     1
290
     0
176
     1
 93
        1
176
     1
 44
0.0
176
     1
173
     0
176
     1
  0
VISUALSTYLE
  5
29C37
102
{ACAD_REACTORS
330
29C20
102
}
330
29C20
100
AcDbVisualStyle
  2
OverhangOff
 70
    21
177
     2
291
     1
 71
     2
176
     0
 72
     2
176
     0
 73
     0
176
     0
 90
        0
176
     0
 40
0.6
176
     0
 41
30.0
176
     0
 62
     5
 63
     7
421
 16777215
176
     0
 74
     1
176
     0
 91
        4
176
     0
 64
     7
176
     0
 65
   257
176
     0
 75
     1
176
     0
175
     1
176
     0
 42
1.0
176
     0
 92
        9
176
     2
 66
     7
176
     0
 43
1.0
176
     0
 76
     1
176
     0
 77
     6
176
     0
 78
     2
176
     0
 67
     7
176
     0
 79
     5
176
     0
170
     0
176
     0
171
     0
176
     0
290
     0
176
     0
 93
        1
176
     0
 44
0.0
176
     0
173
     0
176
     0
  0
VISUALSTYLE
  5
29C2A
102
{ACAD_REACTORS
330
29C20
102
}
330
29C20
100
AcDbVisualStyle
  2
Realistic
 70
     8
177
     2
291
     0
 71
     2
176
     1
 72
     3
176
     1
 73
     0
176
     1
 90
        2
176
     1
 40
0.6
176
     1
 41
30.0
176
     1
 62
     5
 63
     7
421
 16777215
176
     1
 74
     0
176
     1
 91
        0
176
     1
 64
     7
176
     1
 65
   257
176
     1
 75
     1
176
     1
175
     1
176
     1
 42
1.0
176
     1
 92
        8
176
     1
 66
   257
176
     1
 43
1.0
176
     1
 76
     1
176
     1
 77
     6
176
     1
 78
     2
176
     1
 67
     7
176
     1
 79
     3
176
     1
170
     0
176
     1
171
     0
176
     1
290
     0
176
     1
 93
       13
176
     1
 44
0.0
176
     1
173
     0
176
     1
  0
VISUALSTYLE
  5
29C35
102
{ACAD_REACTORS
330
29C20
102
}
330
29C20
100
AcDbVisualStyle
  2
Shaded
 70
    27
177
     2
291
     0
 71
     2
176
     1
 72
     2
176
     1
 73
     1
176
     1
 90
        2
176
     1
 40
0.6
176
     1
 41
30.0
176
     1
 62
     5
 63
     7
421
 16777215
176
     1
 74
     0
176
     1
 91
        4
176
     1
 64
     7
176
     1
 65
   257
176
     1
 75
     1
176
     1
175
     1
176
     1
 42
1.0
176
     1
 92
        8
176
     1
 66
   257
176
     1
 43
1.0
176
     1
 76
     1
176
     1
 77
     6
176
     1
 78
     2
176
     1
 67
     8
425
  7895160
176
     1
 79
     3
176
     1
170
     0
176
     1
171
     0
176
     1
290
     0
176
     1
 93
        5
176
     1
 44
0.0
176
     1
173
     0
176
     1
  0
VISUALSTYLE
  5
29C34
102
{ACAD_REACTORS
330
29C20
102
}
330
29C20
100
AcDbVisualStyle
  2
Shaded with edges
 70
    26
177
     2
291
     0
 71
     2
176
     1
 72
     2
176
     1
 73
     1
176
     1
 90
        2
176
     1
 40
0.6
176
     1
 41
30.0
176
     1
 62
     5
 63
     7
421
 16777215
176
     1
 74
     1
176
     1
 91
       10
176
     1
 64
     7
176
     1
 65
   257
176
     1
 75
     2
176
     1
175
     1
176
     1
 42
1.0
176
     1
 92
        8
176
     1
 66
   257
176
     1
 43
1.0
176
     1
 76
     1
176
     1
 77
     6
176
     1
 78
     2
176
     1
 67
     7
176
     1
 79
     3
176
     1
170
     0
176
     1
171
     0
176
     1
290
     0
176
     1
 93
        5
176
     1
 44
0.0
176
     1
173
     0
176
     1
  0
VISUALSTYLE
  5
29C31
102
{ACAD_REACTORS
330
29C20
102
}
330
29C20
100
AcDbVisualStyle
  2
Shades of Gray
 70
    23
177
     2
291
     0
 71
     2
176
     1
 72
     2
176
     1
 73
     3
176
     1
 90
        0
176
     1
 40
0.6
176
     1
 41
30.0
176
     1
 62
     5
 63
     7
421
 16777215
176
     1
 74
     2
176
     1
 91
        2
176
     1
 64
     7
176
     1
 65
     7
176
     1
 75
     1
176
     1
175
     1
176
     1
 42
40.0
176
     1
 92
        8
176
     1
 66
     7
176
     1
 43
1.0
176
     1
 76
     1
176
     1
 77
     6
176
     1
 78
     2
176
     1
 67
     7
176
     1
 79
     3
176
     1
170
     0
176
     1
171
     0
176
     1
290
     0
176
     1
 93
        1
176
     1
 44
0.0
176
     1
173
     0
176
     1
  0
VISUALSTYLE
  5
29C32
102
{ACAD_REACTORS
330
29C20
102
}
330
29C20
100
AcDbVisualStyle
  2
Sketchy
 70
    24
177
     2
291
     0
 71
     1
176
     1
 72
     2
176
     1
 73
     2
176
     1
 90
        0
176
     1
 40
0.6
176
     1
 41
30.0
176
     1
 62
     5
 63
     7
421
 16777215
176
     1
 74
     2
176
     1
 91
        2
176
     1
 64
     7
176
     1
 65
     7
176
     1
 75
     1
176
     1
175
     1
176
     1
 42
40.0
176
     1
 92
       11
176
     1
 66
     7
176
     1
 43
1.0
176
     1
 76
     1
176
     1
 77
     6
176
     1
 78
     2
176
     1
 67
     7
176
     1
 79
     6
176
     1
170
     0
176
     1
171
     0
176
     1
290
     0
176
     1
 93
        1
176
     1
 44
0.0
176
     1
173
     0
176
     1
  0
VISUALSTYLE
  5
29C2D
102
{ACAD_REACTORS
330
29C20
102
}
330
29C20
100
AcDbVisualStyle
  2
Thicken
 70
    13
177
     2
291
     1
 71
     2
176
     1
 72
     2
176
     1
 73
     0
176
     1
 90
        0
176
     1
 40
0.6
176
     1
 41
30.0
176
     1
 62
     5
 63
     7
421
 16777215
176
     1
 74
     1
176
     1
 91
        4
176
     1
 64
     7
176
     1
 65
   257
176
     1
 75
     1
176
     1
175
     1
176
     1
 42
1.0
176
     1
 92
       12
176
     1
 66
     7
176
     1
 43
1.0
176
     1
 76
     1
176
     1
 77
     6
176
     1
 78
     2
176
     1
 67
     7
176
     1
 79
     5
176
     1
170
     0
176
     1
171
     0
176
     1
290
     0
176
     1
 93
        1
176
     1
 44
0.0
176
     1
173
     0
176
     1
  0
VISUALSTYLE
  5
29C27
102
{ACAD_REACTORS
330
29C20
102
}
330
29C20
100
AcDbVisualStyle
  2
Wireframe
 70
     5
177
     2
291
     0
 71
     0
176
     1
 72
     2
176
     1
 73
     0
176
     1
 90
        0
176
     1
 40
0.6
176
     1
 41
30.0
176
     1
 62
     5
 63
     7
421
 16777215
176
     1
 74
     1
176
     1
 91
        4
176
     1
 64
     7
176
     1
 65
   257
176
     1
 75
     1
176
     1
175
     1
176
     1
 42
1.0
176
     1
 92
        0
176
     1
 66
   257
176
     1
 43
1.0
176
     1
 76
     1
176
     1
 77
     6
176
     1
 78
     2
176
     1
 67
     7
176
     1
 79
     3
176
     1
170
     0
176
     1
171
     0
176
     1
290
     0
176
     1
 93
        1
176
     1
 44
0.0
176
     1
173
     0
176
     1
  0
VISUALSTYLE
  5
29C33
102
{ACAD_REACTORS
330
29C20
102
}
330
29C20
100
AcDbVisualStyle
  2
X-Ray
 70
    25
177
     2
291
     0
 71
     2
176
     1
 72
     2
176
     1
 73
     1
176
     1
 90
        1
176
     1
 40
0.5
176
     1
 41
30.0
176
     1
 62
     5
 63
     7
421
 16777215
176
     1
 74
     1
176
     1
 91
        0
176
     1
 64
     7
176
     1
 65
   257
176
     1
 75
     1
176
     1
175
     1
176
     1
 42
1.0
176
     1
 92
        8
176
     1
 66
     7
176
     1
 43
1.0
176
     1
 76
     1
176
     1
 77
     6
176
     1
 78
     2
176
     1
 67
     7
176
     1
 79
     3
176
     1
170
     0
176
     1
171
     0
176
     1
290
     0
176
     1
 93
       13
176
     1
 44
0.0
176
     1
173
     0
176
     1
  0
DICTIONARYVAR
  5
29CC4
102
{ACAD_REACTORS
330
29CBE
102
}
330
29CBE
100
DictionaryVariables
280
     0
  1
1'-0" = 1'-0"
  0
DICTIONARYVAR
  5
29CC0
102
{ACAD_REACTORS
330
29CBE
102
}
330
29CBE
100
DictionaryVariables
280
     0
  1
Standard
  0
DICTIONARYVAR
  5
29CBF
102
{ACAD_REACTORS
330
29CBE
102
}
330
29CBE
100
DictionaryVariables
280
     0
  1
Standard
  0
DICTIONARYVAR
  5
29CC1
102
{ACAD_REACTORS
330
29CBE
102
}
330
29CBE
100
DictionaryVariables
280
     0
  1
Imperial24
  0
DICTIONARYVAR
  5
29CC2
102
{ACAD_REACTORS
330
29CBE
102
}
330
29CBE
100
DictionaryVariables
280
     0
  1
Imperial24
  0
DICTIONARYVAR
  5
29CC6
102
{ACAD_REACTORS
330
29CBE
102
}
330
29CBE
100
DictionaryVariables
280
     0
  1
1
  0
DICTIONARYVAR
  5
29CC7
102
{ACAD_REACTORS
330
29CBE
102
}
330
29CBE
100
DictionaryVariables
280
     0
  1
15
  0
DICTIONARYVAR
  5
29CC5
102
{ACAD_REACTORS
330
29CBE
102
}
330
29CBE
100
DictionaryVariables
280
     0
  1
0
  0
DICTIONARYVAR
  5
29CC3
102
{ACAD_REACTORS
330
29CBE
102
}
330
29CBE
100
DictionaryVariables
280
     0
  1
0
  0
DICTIONARY
  5
29CBB
330
29C51
100
AcDbDictionary
280
     1
281
     1
  3
ACAD_XREC_ROUNDTRIP
360
29CBC
  0
DICTIONARY
  5
29CB9
330
29C4F
100
AcDbDictionary
280
     1
281
     1
  3
ACAD_XREC_ROUNDTRIP
360
29CBA
  0
DICTIONARY
  5
29CFD
330
29C3B
100
AcDbDictionary
280
     1
281
     1
  3
ACAD_ROUNDTRIP_2008_TABLESTYLE_CELLSTYLEMAP
360
29CFE
  0
XRECORD
  5
29CBC
102
{ACAD_REACTORS
330
29CBB
102
}
330
29CBB
100
AcDbXrecord
280
     1
102
DISPLAYNAME
  1
Imperial24
102
FLAGS
 90
        0
  0
XRECORD
  5
29CBA
102
{ACAD_REACTORS
330
29CB9
102
}
330
29CB9
100
AcDbXrecord
280
     1
102
DISPLAYNAME
  1
Imperial24
102
FLAGS
 90
        0
  0
CELLSTYLEMAP
  5
29CFE
102
{ACAD_REACTORS
330
29CFD
102
}
330
29CFD
100
AcDbCellStyleMap
 90
        3
300
CELLSTYLE
  1
TABLEFORMAT_BEGIN
 90
        5
170
     1
 91
        0
 92
    32768
 62
   257
 93
        1
300
CONTENTFORMAT
  1
CONTENTFORMAT_BEGIN
 90
        0
 91
        0
 92
      512
 93
        0
300

 40
0.0
140
1.0
 94
        5
 62
     0
340
29BA1
144
0.25
309
CONTENTFORMAT_END
171
     0
 94
        0
309
TABLEFORMAT_END
  1
CELLSTYLE_BEGIN
 90
        1
 91
        1
300
_TITLE
309
CELLSTYLE_END
300
CELLSTYLE
  1
TABLEFORMAT_BEGIN
 90
        5
170
     1
 91
        0
 92
        0
 62
   257
 93
        1
300
CONTENTFORMAT
  1
CONTENTFORMAT_BEGIN
 90
        0
 91
        0
 92
      512
 93
        0
300

 40
0.0
140
1.0
 94
        5
 62
     0
340
29BA1
144
0.18
309
CONTENTFORMAT_END
171
     0
 94
        0
309
TABLEFORMAT_END
  1
CELLSTYLE_BEGIN
 90
        2
 91
        1
300
_HEADER
309
CELLSTYLE_END
300
CELLSTYLE
  1
TABLEFORMAT_BEGIN
 90
        5
170
     1
 91
        0
 92
        0
 62
   257
 93
        1
300
CONTENTFORMAT
  1
CONTENTFORMAT_BEGIN
 90
        0
 91
        0
 92
      512
 93
        0
300

 40
0.0
140
1.0
 94
        2
 62
     0
340
29BA1
144
0.18
309
CONTENTFORMAT_END
171
     0
 94
        0
309
TABLEFORMAT_END
  1
CELLSTYLE_BEGIN
 90
        3
 91
        2
300
_DATA
309
CELLSTYLE_END
  0
ENDSEC
  0
EOF
